<?xml version="1.0" encoding="utf-8"?>
<!-- Generator: Adobe Illustrator 19.0.0, SVG Export Plug-In . SVG Version: 6.00 Build 0)  -->
<svg version="1.1" xmlns="http://www.w3.org/2000/svg" xmlns:xlink="http://www.w3.org/1999/xlink" x="0px" y="0px"
	 viewBox="-1799 1953.3 400 94.7" style="enable-background:new -1799 1953.3 400 94.7;" xml:space="preserve">
<style type="text/css">
	.st0{fill:#FFFB00;stroke:#000000;stroke-width:3;}
	.st1{enable-background:new    ;}
	.st2{fill:#050404;}
	.st3{display:none;}
	.st4{font-family:'MyriadPro-Regular';}
	.st5{font-size:28.8px;}
	.st6{fill:#FFFFFF;}
</style>
<g id="Layer_1" xmlns:bx="https://boxy-svg.com">
	<path class="st0" d="M-1749.1,1956.1h300.3c24.8,0,44.9,20.1,44.9,44.9l0,0c0,24.8-20.1,44.9-44.9,44.9h-300.3
		c-24.8,0-44.9-20.1-44.9-44.9l0,0C-1794,1976.2-1773.9,1956.1-1749.1,1956.1z"/>
	<g class="st1">
		<path d="M-1719.9,2005.6l-2,6.1h-2.6l6.6-19.4h3l6.6,19.4h-2.7l-2.1-6.1H-1719.9z M-1713.5,2003.7l-1.9-5.6
			c-0.4-1.3-0.7-2.4-1-3.5h-0.1c-0.3,1.2-0.6,2.3-1,3.5l-1.9,5.6H-1713.5z"/>
		<path d="M-1693.8,1991.3v16.8c0,1.2,0,2.6,0.1,3.6h-2.3l-0.1-2.4h-0.1c-0.8,1.6-2.5,2.7-4.8,2.7c-3.4,0-6-2.9-6-7.1
			c0-4.6,2.9-7.5,6.2-7.5c2.1,0,3.6,1,4.2,2.1h0.1v-8.3H-1693.8z M-1696.3,2003.5c0-0.3,0-0.7-0.1-1.1c-0.4-1.6-1.8-2.9-3.7-2.9
			c-2.6,0-4.2,2.3-4.2,5.4c0,2.8,1.4,5.2,4.1,5.2c1.7,0,3.3-1.1,3.7-3c0.1-0.3,0.1-0.7,0.1-1.1V2003.5z"/>
		<path d="M-1677.5,1991.3v16.8c0,1.2,0,2.6,0.1,3.6h-2.3l-0.1-2.4h-0.1c-0.8,1.6-2.5,2.7-4.8,2.7c-3.4,0-6-2.9-6-7.1
			c0-4.6,2.9-7.5,6.2-7.5c2.1,0,3.6,1,4.2,2.1h0.1v-8.3H-1677.5z M-1680.1,2003.5c0-0.3,0-0.7-0.1-1.1c-0.4-1.6-1.8-2.9-3.7-2.9
			c-2.6,0-4.2,2.3-4.2,5.4c0,2.8,1.4,5.2,4.1,5.2c1.7,0,3.3-1.1,3.7-3c0.1-0.3,0.1-0.7,0.1-1.1V2003.5z"/>
		<path d="M-1650.8,2003.2c-0.1-2.7-0.3-6-0.3-8.4h-0.1c-0.7,2.3-1.5,4.7-2.4,7.4l-3.4,9.4h-1.9l-3.1-9.2c-0.9-2.7-1.7-5.2-2.2-7.5
			h-0.1c-0.1,2.4-0.2,5.7-0.4,8.6l-0.5,8.3h-2.4l1.4-19.4h3.2l3.3,9.4c0.8,2.4,1.5,4.5,2,6.5h0.1c0.5-2,1.2-4.1,2-6.5l3.5-9.4h3.2
			l1.2,19.4h-2.4L-1650.8,2003.2z"/>
		<path d="M-1643,1997.8l3.1,8.2c0.3,0.9,0.7,2,0.9,2.9h0.1c0.3-0.8,0.5-1.9,0.9-2.9l2.8-8.2h2.7l-3.8,9.9c-1.8,4.8-3.1,7.2-4.8,8.7
			c-1.2,1.1-2.5,1.5-3.1,1.6l-0.6-2.1c0.6-0.2,1.5-0.6,2.2-1.2c0.7-0.5,1.6-1.5,2.1-2.8c0.1-0.3,0.2-0.5,0.2-0.6
			c0-0.1-0.1-0.3-0.2-0.7l-5.2-12.8H-1643z"/>
		<path d="M-1624.1,1992.6c1.2-0.2,2.8-0.4,4.8-0.4c2.5,0,4.3,0.6,5.4,1.6c1.1,0.9,1.7,2.3,1.7,4.1c0,1.8-0.5,3.1-1.5,4.1
			c-1.3,1.4-3.5,2.1-5.9,2.1c-0.7,0-1.4,0-2-0.2v7.8h-2.5V1992.6z M-1621.6,2001.9c0.5,0.1,1.2,0.2,2.1,0.2c3,0,4.9-1.5,4.9-4.1
			c0-2.6-1.8-3.8-4.6-3.8c-1.1,0-1.9,0.1-2.4,0.2V2001.9z"/>
		<path d="M-1609.3,2002.1c0-1.6,0-3.1-0.1-4.3h2.2l0.1,2.7h0.1c0.6-1.9,2.2-3.1,3.9-3.1c0.3,0,0.5,0,0.7,0.1v2.4
			c-0.3-0.1-0.5-0.1-0.9-0.1c-1.8,0-3.1,1.4-3.4,3.3c-0.1,0.3-0.1,0.7-0.1,1.2v7.4h-2.5V2002.1z"/>
		<path d="M-1597,1993.9c0,0.9-0.6,1.6-1.6,1.6c-0.9,0-1.5-0.7-1.5-1.6c0-0.9,0.7-1.6,1.6-1.6C-1597.6,1992.3-1597,1993-1597,1993.9
			z M-1599.8,2011.7v-13.9h2.5v13.9H-1599.8z"/>
		<path d="M-1592.1,1997.8l2.7,7.8c0.5,1.3,0.8,2.4,1.1,3.6h0.1c0.3-1.2,0.7-2.3,1.2-3.6l2.7-7.8h2.6l-5.5,13.9h-2.4l-5.3-13.9
			H-1592.1z"/>
		<path d="M-1571.6,2011.7l-0.2-1.8h-0.1c-0.8,1.1-2.3,2.1-4.3,2.1c-2.8,0-4.3-2-4.3-4c0-3.4,3-5.2,8.4-5.2v-0.3
			c0-1.2-0.3-3.2-3.2-3.2c-1.3,0-2.6,0.4-3.6,1l-0.6-1.7c1.2-0.7,2.8-1.2,4.6-1.2c4.3,0,5.3,2.9,5.3,5.7v5.2c0,1.2,0.1,2.4,0.2,3.3
			H-1571.6z M-1572,2004.6c-2.8-0.1-5.9,0.4-5.9,3.1c0,1.6,1.1,2.4,2.4,2.4c1.8,0,3-1.2,3.4-2.3c0.1-0.3,0.1-0.5,0.1-0.8V2004.6z"/>
		<path d="M-1562.5,1993.8v4h3.6v1.9h-3.6v7.5c0,1.7,0.5,2.7,1.9,2.7c0.7,0,1.2-0.1,1.5-0.2l0.1,1.9c-0.5,0.2-1.3,0.3-2.2,0.3
			c-1.2,0-2.1-0.4-2.7-1.1c-0.7-0.7-1-2-1-3.6v-7.6h-2.2v-1.9h2.2v-3.3L-1562.5,1993.8z"/>
		<path d="M-1554.8,2005.2c0.1,3.4,2.2,4.8,4.8,4.8c1.8,0,2.9-0.3,3.9-0.7l0.4,1.8c-0.9,0.4-2.4,0.9-4.6,0.9c-4.3,0-6.9-2.8-6.9-7
			c0-4.2,2.5-7.5,6.5-7.5c4.5,0,5.8,4,5.8,6.6c0,0.5-0.1,0.9-0.1,1.2H-1554.8z M-1547.4,2003.4c0-1.6-0.7-4.1-3.5-4.1
			c-2.6,0-3.7,2.4-3.9,4.1H-1547.4z"/>
	</g>
	<g>
		<g>
			<path class="st2" d="M-1514.1,1990.9c0.1-1.1,0.1-2.1,0.2-3.1c0.1-1.5,0.3-2.9,0.7-4.3c1.3-4.7,4.3-8,8.8-9.9
				c5.3-2.3,10.7-2.1,15.9,0.6c4.9,2.6,7.6,6.9,8.1,12.5c0.1,1.4,0.2,2.7,0.2,4.1c0.7,0,1.5,0,2.2,0c2.6,0.1,4.5,2.1,4.5,4.6
				c0,1.6-0.5,2.9-1.7,3.9c-0.9,0.8-1.9,1.5-2.9,2.2c-1.5,1.1-1.5,1.1-0.6,2.7c1.4,2.5,3.5,4.4,6,5.8c0.7,0.4,1.5,0.8,2.2,1.2
				c0.5,0.3,1,0.7,1.4,1.2c0.9,1.1,0.9,2.6,0.1,3.7c-0.5,0.8-1.1,1.5-2,1.9c-1.2,0.5-2.3,1-3.5,1.5c-0.7,0.2-1.1,0.6-1.4,1.2
				c-0.4,1-1,1.7-1.9,2.2c-0.7,0.4-1.5,0.5-2.3,0.6c-1.1,0.1-2.2,0.1-3.4,0.3c-1.7,0.2-3.1,0.9-4.5,1.8c-1.7,1.1-3.4,1.9-5.3,2.3
				c-3.8,0.8-7.4,0.5-10.9-1.4c-0.9-0.5-1.9-1-2.8-1.6c-1.2-0.7-2.4-1-3.8-1.2c-1.3-0.1-2.6-0.2-3.9-0.4c-1.5-0.2-2.6-0.9-3.2-2.3
				c-0.4-0.9-1-1.4-2-1.7c-1.1-0.4-2.1-0.8-3.1-1.3c-0.6-0.3-1.1-0.8-1.6-1.4c-1.3-1.3-1.2-4,0.7-5.2c0.6-0.3,1.1-0.7,1.7-1
				c2.5-1.3,4.6-3,6.2-5.3c0.4-0.6,0.8-1.2,1.1-1.8c0.3-0.7,0.2-0.9-0.4-1.4c-0.7-0.5-1.5-0.9-2.1-1.5c-0.8-0.6-1.6-1.3-2.3-2.1
				c-1.8-2.4-1-6.8,2.8-7.6C-1516.2,1990.8-1515.2,1990.9-1514.1,1990.9z M-1511,1990.7C-1511,1990.7-1511,1990.7-1511,1990.7
				c0.2,1.3,0.2,2.5,0.3,3.7c0,0.8-0.2,0.9-0.9,0.7c-0.6-0.2-1.2-0.5-1.8-0.6c-0.8-0.2-1.5-0.5-2.3-0.6c-0.7-0.1-1.4,0.2-1.8,0.9
				c-0.3,0.7-0.2,1.4,0.3,2c0.4,0.4,0.9,0.8,1.3,1.2c1.1,0.8,2.2,1.5,3.3,2.2c1.3,0.9,1.4,1.3,1,2.8c0,0.2-0.1,0.3-0.2,0.5
				c-0.6,1.9-1.7,3.5-3,5c-1.9,2.2-4.3,3.9-6.9,5.2c-0.3,0.2-0.7,0.4-0.8,0.7c-0.1,0.5,0.4,0.7,0.7,0.9c0.3,0.2,0.6,0.3,0.9,0.4
				c0.8,0.3,1.7,0.6,2.5,0.9c0.5,0.2,1.1,0.3,1.6,0.5c0.7,0.3,1,0.8,1.1,1.5c0,0.2,0,0.4,0.1,0.5c0.2,0.8,0.4,1.1,1.3,1.2
				c0.9,0.1,1.7,0.1,2.6,0.2c2.3,0.1,4.6,0.7,6.6,2c0.7,0.5,1.5,0.9,2.2,1.3c3.1,1.6,6.3,1.7,9.7,0.7c1.4-0.5,2.7-1.2,3.9-2
				c1.6-1,3.2-1.6,5.1-1.8c1.1-0.1,2.2-0.2,3.3-0.3c1.7-0.1,1.8-0.2,2-1.8c0.1-0.7,0.5-1.2,1.1-1.5c0.5-0.2,1.1-0.3,1.6-0.5
				c1.1-0.4,2.2-0.8,3.3-1.3c0.3-0.2,0.7-0.5,0.8-0.9c0.1-0.5-0.5-0.6-0.8-0.8c-0.2-0.1-0.4-0.2-0.6-0.3c-2.2-1.1-4.1-2.5-5.8-4.3
				c-1.7-1.8-3-3.8-3.7-6.1c-0.4-1.4-0.2-1.9,0.9-2.7c0.7-0.5,1.4-1,2.1-1.4c0.6-0.4,1.2-0.7,1.7-1.1c0.4-0.3,0.8-0.7,1.1-1.1
				c0.8-1.2,0.1-2.5-1.3-2.7c-0.3,0-0.7,0-1,0.1c-0.9,0.3-1.8,0.6-2.7,0.9c-0.3,0.1-0.7,0.2-1,0.3c-0.5,0.1-0.7-0.1-0.7-0.6
				c0-0.2,0-0.4,0-0.6c0-2.2,0.1-4.4,0-6.6c-0.2-4.6-2.3-8.2-6.4-10.3c-4.8-2.5-9.7-2.5-14.5,0.1c-3.4,1.8-5.5,4.7-6,8.6
				C-1510.8,1987.4-1510.9,1989-1511,1990.7z"/>
		</g>
	</g>
	<text transform="matrix(1 0 0 1 -1719.0001 1995.3334)" class="st3 st4 st5">Add My Private</text>
	<g>
		<g>
			<path class="st6" d="M-1511,1990.6C-1511,1990.6-1511,1990.6-1511,1990.6c0.2,1.3,0.2,2.5,0.3,3.7c0,0.8-0.2,0.9-0.9,0.7
				c-0.6-0.2-1.2-0.5-1.8-0.6c-0.8-0.2-1.5-0.5-2.3-0.6c-0.7-0.1-1.4,0.2-1.8,0.9c-0.3,0.7-0.2,1.4,0.3,2c0.4,0.4,0.9,0.8,1.3,1.2
				c1.1,0.8,2.2,1.5,3.3,2.2c1.3,0.9,1.4,1.3,1,2.8c0,0.2-0.1,0.3-0.2,0.5c-0.6,1.9-1.7,3.5-3,5c-1.9,2.2-4.3,3.9-6.9,5.2
				c-0.3,0.2-0.7,0.4-0.8,0.7c-0.1,0.5,0.4,0.7,0.7,0.9c0.3,0.2,0.6,0.3,0.9,0.4c0.8,0.3,1.7,0.6,2.5,0.9c0.5,0.2,1.1,0.3,1.6,0.5
				c0.7,0.3,1,0.8,1.1,1.5c0,0.2,0,0.4,0.1,0.5c0.2,0.8,0.4,1.1,1.3,1.2c0.9,0.1,1.7,0.1,2.6,0.2c2.3,0.1,4.6,0.7,6.6,2
				c0.7,0.5,1.5,0.9,2.2,1.3c3.1,1.6,6.3,1.7,9.7,0.7c1.4-0.5,2.7-1.2,3.9-2c1.6-1,3.2-1.6,5.1-1.8c1.1-0.1,2.2-0.2,3.3-0.3
				c1.7-0.1,1.8-0.2,2-1.8c0.1-0.7,0.5-1.2,1.1-1.5c0.5-0.2,1.1-0.3,1.6-0.5c1.1-0.4,2.2-0.8,3.3-1.3c0.3-0.2,0.7-0.5,0.8-0.9
				c0.1-0.5-0.5-0.6-0.8-0.8c-0.2-0.1-0.4-0.2-0.6-0.3c-2.2-1.1-4.1-2.5-5.8-4.3c-1.7-1.8-3-3.8-3.7-6.1c-0.4-1.4-0.2-1.9,0.9-2.7
				c0.7-0.5,1.4-1,2.1-1.4c0.6-0.4,1.2-0.7,1.7-1.1c0.4-0.3,0.8-0.7,1.1-1.1c0.8-1.2,0.1-2.5-1.3-2.7c-0.3,0-0.7,0-1,0.1
				c-0.9,0.3-1.8,0.6-2.7,0.9c-0.3,0.1-0.7,0.2-1,0.3c-0.5,0.1-0.7-0.1-0.7-0.6c0-0.2,0-0.4,0-0.6c0-2.2,0.1-4.4,0-6.6
				c-0.2-4.6-2.3-8.2-6.4-10.3c-4.8-2.5-9.7-2.5-14.5,0.1c-3.4,1.8-5.5,4.7-6,8.6C-1510.8,1987.4-1510.9,1989-1511,1990.6z"/>
		</g>
	</g>
</g>
<g id="Layer_2">
</g>
</svg>
