<?xml version="1.0" encoding="utf-8"?>
<!-- Generator: Adobe Illustrator 19.0.0, SVG Export Plug-In . SVG Version: 6.00 Build 0)  -->
<svg version="1.1" xmlns="http://www.w3.org/2000/svg" xmlns:xlink="http://www.w3.org/1999/xlink" x="0px" y="0px"
	 viewBox="0 0 398.8 199.9" style="enable-background:new 0 0 398.8 199.9;" xml:space="preserve">
<style type="text/css">
	.st0{fill:#E294E7;}
	.st1{fill:#E295E7;}
	.st2{fill:#B696CD;}
	.st3{fill:#A793B5;}
	.st4{fill:#A19FAA;}
	.st5{fill:#ADAEEC;}
	.st6{fill:#3783EA;}
	.st7{fill:#B1ACEC;}
	.st8{fill:#B9B8B9;}
	.st9{fill:#ABAAAF;}
	.st10{fill:#5A5757;}
	.st11{fill:#C8A6E2;}
	.st12{fill:#CCA1EC;}
	.st13{fill:#707174;}
	.st14{fill:#777B7E;}
	.st15{fill:#6C7C85;}
	.st16{fill:#CAA0EA;}
	.st17{fill:#7DC3F0;}
	.st18{fill:#80C0EE;}
	.st19{fill:#8ABCEE;}
	.st20{fill:#CBA0EA;}
	.st21{fill:#8ADEFE;}
	.st22{fill:#E195E7;}
	.st23{display:none;fill:#777B7E;}
	.st24{display:none;fill:#E294E7;}
	.st25{display:none;fill:#E295E7;}
	.st26{display:none;fill:#B696CD;}
	.st27{display:none;fill:#A793B5;}
	.st28{display:none;fill:#A19FAA;}
	.st29{display:none;fill:#ADAEEC;}
	.st30{fill:#FFFFFF;}
	.st31{display:none;fill:#B1ACEC;}
	.st32{display:none;fill:#B9B8B9;}
	.st33{display:none;fill:#ABAAAF;}
	.st34{display:none;fill:#5A5757;}
	.st35{display:none;fill:#C8A6E2;}
	.st36{display:none;fill:#CCA1EC;}
	.st37{display:none;fill:#707174;}
	.st38{display:none;fill:#6C7C85;}
	.st39{display:none;fill:#CAA0EA;}
	.st40{display:none;fill:#7DC3F0;}
	.st41{display:none;fill:#80C0EE;}
	.st42{display:none;fill:#8ABCEE;}
	.st43{display:none;fill:#CBA0EA;}
	.st44{display:none;fill:#8ADEFE;}
	.st45{display:none;fill:#E195E7;}
</style>
<g id="Layer_1">
	<g>
		<path class="st0" d="M273.2,11.3c0.1,0,0.3,0.1,0.4,0.1c2.9,0.3,5.9,0.5,8.8,0.8c4.4,0.4,8.7,1.6,12.9,2.9c3.7,1.2,7.2,2.8,10.4,5
			c1.8,1.2,3.5,2.6,5.1,4.1c3.1,2.8,5.4,6.2,7.2,9.9c1.6,3.4,2.7,6.9,3.3,10.6c0.3,1.9,0.5,3.8,0.7,5.7c-0.9,0.6-1,0.9-0.8,2.2
			c0.3,0.1,0.5,0.2,0.7,0.3c-0.6,0.2-0.7,0.5-0.7,1c0,0.8,0,1.6,0,2.3c-0.1,1.8-0.3,3.6-0.4,5.3c-0.1,0.8-0.2,1.7-0.4,2.5
			c-0.7,2.5-1.4,5-2.1,7.5c-0.2,0.7-0.5,1.4-0.7,2.1c0,0,0,0.1,0,0.1c-0.1,0.1-0.2,0.2-0.2,0.3c-0.2,0.5-0.4,0.9-0.6,1.4
			c-0.2,0.3-0.3,0.6-0.5,0.9c-0.1,0.1-0.1,0.3-0.2,0.4c-0.1,0.2-0.3,0.4-0.4,0.6c0,0,0,0.1,0,0.1c-0.1,0.1-0.2,0.2-0.2,0.3
			c-1.5,2.4-3.3,4.6-5.4,6.5c-0.5,0.5-1,0.9-1.5,1.3c0-2.6-1.8-3.8-3.7-4.1c-0.9-0.1-1.9,0-2.7,0.2c-2.7,0.5-5,1.9-7.2,3.4
			c-4.7,3.1-8.7,6.9-12.6,10.9c-0.3,0.3-0.6,0.6-1,0.9c-2.1,0.2-4.2,0.5-6.3,0.7c-2.7,0.3-5.5,0.5-8.2,0.7c-2.5,0.1-5.1,0.1-7.6,0.2
			c-1.8,0-3.6,0-5.4,0c-2.4,0-4.7,0-7.1,0c-0.6,0-1,0.1-1,0.8c0,0.3,0,0.6,0,1c0,10.9,0,21.8,0,32.8c-1.4,0.7-2.8,1.4-4.2,2.2
			c0-0.5,0.1-1,0.1-1.4c0-1.4-1.2-2.2-2.5-1.5c-0.3,0.2-0.7,0.4-0.9,0.7c-1.4,1.5-2.1,3.3-2.4,5.3c0,0.3-0.3,0.7-0.5,0.9
			c-1.2,0.9-2.5,1.7-3.8,2.6c-0.9,0.6-1,0.7-0.7,1.9c1.5-1,3.1-2,4.6-3c0.1,0,0.1,0.1,0.2,0.1c0,0.6,0,1.2,0,1.8
			c0,0.4-0.1,0.9-0.3,1.2c-2.7,4.4-5.5,8.7-8.3,13c-0.5,0.8-1.1,1.6-1.7,2.3c-0.2,0-0.5,0-0.7,0c-6.8,0-13.6,0-20.4,0
			c0-0.1,0-0.1,0-0.2c0-48.7,0-97.3,0-146c0-0.6-0.3-0.9-0.7-1.2c0-0.1,0-0.3,0-0.4C226.7,11.3,249.9,11.3,273.2,11.3z M273.5,30.9
			c-0.1-0.1-0.2-0.2-0.3-0.3c-0.2-0.2-0.3-0.5-0.6-0.7c-1.6-1.6-3.5-2.8-5.5-3.7c-2.6-1.2-5.4-1.8-8.3-1.9c-4-0.1-8,0-12,0
			c-0.7,0-1.1,0.2-1.1,0.9c0,0.3,0,0.5,0,0.8c0,19.5,0,39.1,0,58.6c0,0.2,0,0.5,0,0.8c0.3,0,0.6,0,0.8,0c0.1,0,0.2,0,0.3,0.1
			c3.5-0.1,6.9-0.2,10.4-0.2c2.9,0,5.7-0.5,8.4-1.6c2.4-0.9,4.6-2.4,6.3-4.2c1.2-1.2,2.2-2.7,3.1-4.1c1.4-2.2,2.3-4.5,2.9-7
			c0.8-3.2,1.4-6.5,1.5-9.8c0,0,0.1-0.1,0.1-0.1c0.3,0,0.5,0,0.8-0.1c0-2.8,0-5.6,0-8.3c0-0.1-0.1-0.2-0.1-0.2c0-0.5,0-0.9,0-1.4
			c0-0.1-0.1-0.2-0.1-0.2c-0.1-0.9-0.2-1.9-0.3-2.8c0-2-0.6-3.8-1.2-5.6c-0.2-0.6-0.5-1.1-0.7-1.6c-0.6-1.4-1.1-2.7-1.8-4
			c-0.5-0.9-1.3-1.8-1.9-2.6C273.9,31.3,273.7,31.1,273.5,30.9z"/>
		<path class="st1" d="M1.6,11.3c14.6,0,29.2,0,43.8,0c0.2,0.8,0.3,1.5,0.5,2.3c1.2,4.6,2.4,9.2,3.6,13.9c0.6,2.3,1.2,4.6,1.8,6.9
			c0.6,2.4,1.3,4.9,1.9,7.3c1.2,4.6,2.4,9.2,3.6,13.8c0.7,2.9,1.5,5.7,2.3,8.6c1.2,4.4,2.3,8.8,3.4,13.3c0.9,3.4,1.8,6.7,2.7,10.1
			c1,3.7,1.9,7.4,2.8,11.1c1.3,5,2.6,10,4,15c0.8,3.2,1.7,6.4,2.5,9.6c0.5-1.3,0.8-2.6,1.2-3.9c0.6-1.9,1.1-3.8,1.7-5.8
			c1.4-5,2.8-10,4.2-15.1c1.1-3.9,2.2-7.8,3.3-11.7c1.3-4.4,2.5-8.8,3.8-13.2c1.2-4.4,2.5-8.7,3.7-13.1c0.6-2.1,1.2-4.2,1.8-6.3
			c1.3-4.5,2.6-9,3.8-13.4c1.2-4.3,2.4-8.5,3.6-12.8c0.9-3.3,1.9-6.6,2.9-9.9c0.6-2.2,1.3-4.5,1.9-6.8c5.4,0,10.7,0,16.1,0
			c0,0.1,0,0.3,0,0.4l0,0c-0.8,0.2-1,0.8-1.2,1.5c-0.4,1.6-0.9,3.1-1.3,4.7c-0.6,2.1-1.2,4.1-1.8,6.2c-0.7,2.4-1.4,4.8-2.1,7.2
			c-0.5,1.9-1.1,3.8-1.7,5.7c-0.8,2.7-1.6,5.5-2.4,8.2c-1,3.6-2.1,7.2-3.1,10.7c-0.7,2.3-1.3,4.7-2,7c-0.5,1.9-1.1,3.8-1.7,5.7
			c-0.6,2-1.2,4.1-1.7,6.1c-0.7,2.4-1.4,4.8-2.1,7.1c-0.5,1.7-1.1,3.4-1.6,5.1c-0.7,2.5-1.4,5-2.1,7.5c-0.6,2.1-1.2,4.1-1.8,6.1
			c-1,3.3-2,6.6-2.9,9.9c-0.9,3.2-1.8,6.5-2.7,9.7c-0.6,2.1-1.2,4.2-1.8,6.3c-0.7,2.3-1.4,4.7-2,7c-0.6,2-1.2,4-1.7,6
			c-0.7,2.3-1.3,4.5-2,6.8c-0.7,2.4-1.4,4.8-2.1,7.3c-0.5,1.9-1.1,3.7-1.6,5.6c-12.5,0-25,0-37.4,0c0-0.2,0-0.4-0.1-0.5
			c-0.6-2.4-1.3-4.7-1.9-7.1c-0.5-1.8-0.9-3.7-1.4-5.5c-0.9-3.2-1.7-6.4-2.6-9.6c-0.5-1.7-0.9-3.4-1.3-5.1c-0.4-1.5-0.9-3.1-1.3-4.6
			c-0.8-3-1.5-6-2.3-8.9c-0.4-1.6-0.9-3.1-1.3-4.7c-0.8-3-1.5-6-2.3-9c-0.6-2.3-1.2-4.5-1.8-6.8c-0.3-1.2-0.7-2.4-1-3.7
			c-0.9-3.5-1.8-7-2.7-10.5c-0.6-2.3-1.2-4.6-1.8-6.9c-0.6-2.3-1.2-4.6-1.8-6.8c-0.7-2.6-1.4-5.1-2.1-7.7c-0.6-2.1-1.1-4.2-1.7-6.3
			c-0.8-2.9-1.6-5.9-2.3-8.8c-0.5-1.8-0.9-3.7-1.4-5.5c-1.1-4-2.2-7.9-3.2-11.8c-0.9-3.4-1.8-6.8-2.7-10.2c-0.5-1.8-1-3.5-1.4-5.3
			C3,12.9,2.8,12,1.8,11.6C1.7,11.5,1.7,11.4,1.6,11.3z"/>
		<path class="st0" d="M177.5,11.3c0,0.1,0,0.2,0,0.3c0,0,0,0,0,0c-0.5,0.3-0.8,0.7-0.8,1.4c0,48.7,0,97.4,0,146.2
			c-13.9,0-27.7,0-41.6,0c0-48.6,0-97.1,0-145.7c0-0.8-0.1-1.4-0.7-1.9c0-0.1,0-0.2,0-0.3C148.7,11.3,163.1,11.3,177.5,11.3z"/>
		<path class="st2" d="M203.4,11.3c0,0.1,0,0.3,0,0.4c0,49.1,0,98.2,0,147.3c0,0.2,0.1,0.4,0.1,0.7c0,0,0,0.1,0,0.1
			c0,0.1-0.1,0.1-0.1,0.2c0,0-0.1,0-0.1,0c0,0,0-0.1,0-0.1c0-49.3,0-98.6,0-148c0-0.2,0-0.4,0-0.6C203.3,11.3,203.4,11.3,203.4,11.3
			z"/>
		<path class="st3" d="M134.4,11.3c0,0.1,0,0.2,0,0.3c0,49.1,0,98.2,0,147.4c0,0.3,0,0.6,0,0.9c0,0,0,0.1,0,0.1c0,0-0.1,0-0.1,0
			c0-0.3,0-0.6,0-0.9c0-48.8,0-97.6,0-146.5c0-0.4,0-0.9,0-1.3C134.3,11.3,134.3,11.3,134.4,11.3z"/>
		<path class="st4" d="M1.6,11.3c0,0.1,0.1,0.2,0.1,0.3c0.5,1.9,1,3.8,1.5,5.7c0.5,2.1,1.1,4.2,1.6,6.3c0.6,2.4,1.3,4.7,1.9,7.1
			c0.5,2.1,1,4.1,1.6,6.2c0.4,1.6,0.9,3.2,1.3,4.7c0.2,0.8,0.4,1.6,0.5,2.4c-0.1-0.2-0.2-0.4-0.4-0.5C9.2,41,8.6,38.7,8,36.3
			C7.1,32.9,6.1,29.5,5.2,26c-1-3.6-1.9-7.3-2.9-11c-0.3-1.2-0.6-2.5-0.9-3.7C1.5,11.3,1.6,11.3,1.6,11.3z"/>
		<path class="st4" d="M123,11.3c-0.2,1.1-0.4,2.2-0.7,3.3c-1.1,3.9-2.3,7.8-3.4,11.7c-0.1,0.2-0.2,0.4-0.3,0.5
			c0.1-0.4,0.1-0.9,0.2-1.3c0.4-1.3,0.8-2.7,1.2-4c0.6-2.1,1.2-4.1,1.8-6.2c0.3-1.2,0.6-2.4,0.9-3.6c0,0,0,0,0,0
			c0-0.1,0.1-0.3,0.1-0.4C122.9,11.3,122.9,11.3,123,11.3z"/>
		<path class="st5" d="M122.8,11.3c0,0.1-0.1,0.3-0.1,0.4c0-0.1,0-0.3,0-0.4C122.8,11.3,122.8,11.3,122.8,11.3z"/>
		<path class="st6" d="M281.4,96.9c0.3-0.3,0.7-0.6,1-0.9c3.9-4,7.9-7.8,12.6-10.9c2.2-1.5,4.6-2.8,7.2-3.4c0.9-0.2,1.8-0.3,2.7-0.2
			c1.8,0.2,3.7,1.5,3.7,4.1c0,0.4,0,0.8,0,1.3c0,0.1,0,0.2,0,0.4c-2,6.7-6.8,11.3-11.8,15.8c-8.2,7.5-17.5,13.6-27.1,19
			c-3.4,1.9-6.8,3.7-10.3,5.5c-0.3,0.1-0.6,0.3-0.8,0.6c-4,4.7-7.9,9.5-11.9,14.3c0,0,0,0.1-0.1,0.1c-0.3,0.4-0.6,0.8-1,1.2
			c-1.4,1.7-2.8,3.3-4.3,5.1c1.4,0.8,2.8,1.3,4.3,1.5c0.3,0,0.7,0.1,1,0.1c4.9,0.3,9.2-1.1,13-4.3c1.6-1.3,3.2-2.7,4.6-4.2
			c4.7-5.2,10.7-8.2,17.5-9.7c2.4-0.5,4.8-0.8,7.2-0.4c2.1,0.3,3.2,1.9,2.8,4c-0.1,0.7-0.2,1.4-0.3,2.2c1.1-1.3,2.1-2.5,3.1-3.6
			c0-0.1,0.1-0.1,0.1-0.2c1-1.5,2.2-2.4,4.1-2.3c1.4,0.1,2.9-0.2,4.4-0.3c-0.2,0.3-0.3,0.5-0.5,0.6c-5,5.8-10,11.6-15,17.5
			c-1.9,2.2-3.6,4.5-5.3,6.8c-0.3,0.5-0.6,1-0.8,1.5c-0.1,0.4-0.1,1,0.1,1.4c0.3,0.5,0.9,0.5,1.4,0.3c1.2-0.5,2.5-0.9,3.7-1.5
			c3.7-2.1,7.1-4.8,10.4-7.5c3.1-2.5,6.1-5,9.1-7.5c2.8-2.3,5.4-4.8,8.3-7c1.9-1.5,4.1-2.7,6.2-3.9c0.9-0.5,2-0.7,3-0.8
			c1.7-0.1,2.6,0.8,2.8,2.4c0.3,2.4-0.3,4.5-1.6,6.4c-1.9,2.7-3.9,5.4-5.9,8.1c-0.1,0.1-0.2,0.3-0.3,0.5c0,0.1,0,0.1,0,0.2
			c0.1,0,0.1,0,0.2-0.1c3.6-2.8,7.1-5.7,10.7-8.4c3.5-2.6,7-5.2,11-7.1c2.3-1.1,4.7-1.9,7.3-2c1.8,0,2.7,0.7,3,2.6
			c0.4,2.9-0.5,5.5-2,7.9c-1.7,2.6-3.9,4.7-6.3,6.7c-2.1,1.7-4.2,3.3-6.2,5c-0.9,0.7-1.6,1.7-2.3,2.6c-0.5,0.7-0.8,1.5-0.2,2.3
			c0.6,0.8,1.3,1.4,2.4,1.3c1.1-0.2,2.3-0.5,3.3-0.9c3-1.3,5.6-3.2,8.1-5.3c4.8-3.9,9.3-8.1,14.1-11.9c1.3-1.1,2.8-2,4.1-3.2
			c3.8-3.2,7.6-6.5,11.3-9.8c1.3-1.2,2.4-2.8,3.6-4.1c0.6-0.7,1.2-1.4,1.8-2c0.7-0.7,1.7-0.6,2.3,0c0.5,0.6,0.5,1.5-0.2,2.1
			c-1,0.9-2.2,1.6-3.3,2.4c-0.2,0.1-0.3,0.2-0.6,0.4c4,5.7,6.2,11.7,4.5,18.7c2.4,0.6,4.7,0.6,6.7-0.8c1.6-1.1,3-2.4,4.5-3.6
			c0.2-0.2,0.4-0.4,0.7-0.7c0.1,0.8,0.1,1.4-0.4,1.9c-0.9,0.9-1.8,1.9-2.7,2.7c-2.4,2.1-5.2,2.6-8.3,1.9c-0.3-0.1-0.6-0.1-0.8-0.2
			c-0.9,1.3-1.6,2.6-2.6,3.8c-2.4,3-5.5,5-8.9,6.6c-4,1.9-8.1,3.2-12.6,3.1c-1.5,0-3-0.3-4.3-1.1c-1.9-1.1-2.7-2.9-2.1-5.1
			c0.5-1.9,2-3.1,4.1-3.1c0.9,0,1.8,0.1,2.5,0.6c1.4,1,1.6,2.9,0.3,4c-0.4,0.3-0.8,0.6-1.2,0.7c-1.3,0.5-2.2,0.1-2.8-1.1
			c-0.2-0.3-0.3-0.7-0.5-1.1c-1.1,0.4-1.4,2.1-0.6,3c1,1.1,2.2,1.7,3.7,1.9c2.9,0.5,5.6-0.4,8-1.9c6.9-4.3,11.4-10.4,13.3-18.3
			c0.9-3.8,0.2-7.4-1.8-10.7c-0.1-0.1-0.1-0.2-0.2-0.3c-1.2,1-2.4,2-3.5,3c-4.8,4.1-9.5,8.2-14.4,12.3c-4.2,3.6-8.4,7.2-12.8,10.7
			c-2.7,2.2-5.6,4.2-8.8,5.5c-0.9,0.4-2,0.7-3,0.9c-2.8,0.5-4.5-0.9-4.6-4c-0.1-2,0.7-3.8,1.6-5.6c1.9-3.4,4.5-6.2,7.4-8.8
			c2.3-2.1,4.5-4.5,6.7-6.7c0.4-0.4,0.7-1,1-1.6c0.3-0.7,0-1.1-0.7-1.3c-1.1-0.3-2.2-0.1-3.2,0.2c-2.8,0.8-5.2,2.2-7.6,3.7
			c-6.4,4.1-12.4,8.7-18.1,13.6c-3.5,3-6.9,6.1-10.3,9.2c-0.4,0.3-0.7,0.5-1.2,0.5c-1.8,0-3.6,0-5.6,0c0.1-0.2,0.2-0.3,0.4-0.5
			c5.8-6.6,11.6-13.2,17.4-19.8c1.5-1.8,2.9-3.6,4.3-5.5c0.3-0.4,0.7-0.9,0.3-1.4c-0.4-0.5-1-0.4-1.5-0.2c-1.1,0.5-2.3,0.9-3.3,1.5
			c-3.8,2.3-7.2,5-10.5,7.9c-6.1,5.5-12.5,10.6-19,15.5c-2.1,1.5-4.3,2.7-6.9,3.2c-2.6,0.4-3.6-0.5-3.5-3.1c0.1-2.1,0.8-4.1,1.6-6.1
			c0.1-0.2,0.2-0.5,0.3-0.7c0-0.1,0-0.2,0-0.3c-0.1,0-0.1,0.1-0.2,0.1c-1.5,1.3-3,2.6-4.5,3.8c-2.7,2.2-5.5,4.3-8.8,5.6
			c-1.4,0.6-2.8,0.9-4.3,0.7c-2.3-0.4-3.9-2.2-4.4-4.8c-0.6-2.9-0.2-5.6,0.9-8.3c0.1-0.2,0.2-0.4,0.3-0.6c0-0.1,0-0.1,0-0.2
			c-0.1,0-0.1,0-0.2,0c-1.6,1-3.2,2.1-4.9,2.9c-2.3,1.1-4.9,1.4-7.5,1.4c-0.5,0-0.9,0-1.4,0c-0.3,0-0.7-0.1-1-0.1
			c-1.5-0.4-3.1-0.8-4.6-1.3c-0.4-0.1-0.7-0.1-1,0.3c-0.6,0.7-1.2,1.4-1.8,2.1c-1.9,2.3-3.7,4.5-5.6,6.8c-0.2,0.3-0.5,0.6-0.7,0.8
			c-0.1,0.1-0.2,0.3-0.3,0.4c-0.1,0.1-0.2,0.2-0.2,0.2c-2.5,3-5,5.9-7.5,8.9c-7.4,8.9-14.9,17.8-22.3,26.6c-0.2,0.2-0.5,0.4-0.7,0.4
			c-2,0-4,0-6.1,0c0.3-0.3,0.5-0.6,0.7-0.8c5.4-6.3,11-12.4,16.2-18.8c4.3-5.2,8.2-10.7,12.3-16.1c0.1-0.1,0.2-0.3,0.2-0.4
			c0.1-0.1,0.1-0.1,0.2-0.2c0,0,0.1-0.1,0.1-0.1c0,0,0-0.1,0-0.1c0.1-0.1,0.1-0.1,0.2-0.2c0.1-0.2,0.3-0.4,0.4-0.6
			c0.6-0.8,1.2-1.5,1.7-2.3c2.8-4.3,5.5-8.7,8.3-13c0.2-0.3,0.2-0.8,0.3-1.2c0-0.6,0-1.2,0-1.8c-0.1,0-0.1-0.1-0.2-0.1
			c-1.5,1-3,2-4.6,3c-0.2-1.2-0.2-1.3,0.7-1.9c1.3-0.8,2.5-1.7,3.8-2.6c0.3-0.2,0.5-0.6,0.5-0.9c0.3-2,1-3.8,2.4-5.3
			c0.3-0.3,0.6-0.5,0.9-0.7c1.3-0.6,2.5,0.1,2.5,1.5c0,0.4,0,0.9-0.1,1.4c1.5-0.7,2.8-1.5,4.2-2.2c0.3-0.2,0.6-0.3,1-0.5
			c2-1,4.1-2,6.1-3.1c0.3-0.2,0.7-0.4,0.9-0.7c8.8-10.1,17.5-20.1,26.2-30.2c0.2-0.2,0.4-0.4,0.5-0.6
			C280.8,97.6,281.1,97.2,281.4,96.9z M246.7,136.6c1.4-1.6,2.8-3.3,4.2-4.9c-0.1-0.1-0.1-0.1-0.2-0.2c-1.4,0.7-2.7,1.5-4.1,2.2
			c-0.3,0.2-0.6,0.3-0.9,0.5c-1.4,0.8-2.8,1.5-4.3,2.3c-0.1,0.1-0.2,0.2-0.3,0.4c-0.5,1-1,2-1.5,3c-0.7,1.1-1.5,2.1-2.2,3.2
			c-0.2,0.3-0.3,0.9-0.2,1.3c0.3,0.7,0.8,1.3,1.2,2c1.4-1.6,2.7-3.2,3.9-4.7c1.1-1.3,2.2-2.6,3.3-4
			C246.1,137.3,246.4,137,246.7,136.6z M306.6,89.1c0-0.1,0.1-0.1,0.1-0.2c0.1-0.3,0.2-0.5,0.3-0.8c0.1-0.4,0.2-0.8,0.3-1.3
			c0.6-2.3-0.6-4-2.8-4.1c-2.1-0.1-4,0.7-5.8,1.8c-4.9,2.9-8.6,7.1-12.4,11.2l0,0c0,0-0.1,0.1-0.1,0.1c-0.3,0.4-0.6,0.7-1,1.1
			c-0.2,0.2-0.4,0.4-0.7,0.6c-5.7,6.7-11.5,13.4-17.2,20.1c-2,2.4-4,4.9-6,7.3c0,0-0.1,0.1-0.1,0.1c0.1,0,0.1,0,0.2-0.1
			c0.2-0.1,0.4-0.1,0.6-0.2c6-3.1,11.8-6.4,17.4-10.1c6.9-4.6,13.5-9.5,19.5-15.3c2.7-2.7,5.2-5.5,7.2-8.8
			C306.2,90.2,306.4,89.7,306.6,89.1C306.6,89.1,306.6,89.1,306.6,89.1z M226.8,159c-0.2,0.4-0.4,0.8-0.7,1.2c0.1,0,0.1,0.1,0.2,0.1
			c0.3-0.4,0.6-0.8,0.9-1.2c1.4-1.6,2.8-3.2,4.2-4.8c1.9-2.2,3.8-4.4,5.7-6.6c0.1-0.2,0.3-0.5,0.2-0.6c-0.4-0.8-0.9-1.6-1.4-2.6
			C232.9,149.6,229.9,154.3,226.8,159z M261.8,156.4c0,2.5,1.5,3.7,3.5,3.4c1.7-0.3,3.3-1,4.8-1.9c4.1-2.4,7.8-5.4,11.2-8.7
			c2.8-2.7,5.4-5.5,7.5-8.8c0.8-1.3,1.5-2.7,1.8-4.3c0.3-2-0.8-3.3-2.8-3.4c-0.4,0-0.8,0-1.2,0.1c-2.6,0.3-4.9,1.3-7.1,2.8
			c-4.1,2.7-7.6,6.1-10.8,9.8c-2.2,2.7-4.3,5.4-5.8,8.6C262.2,154.9,262,155.9,261.8,156.4z"/>
		<path class="st5" d="M122.7,11.7c-0.3,1.2-0.6,2.4-0.9,3.6c-0.6,2.1-1.2,4.1-1.8,6.2c-0.4,1.3-0.8,2.7-1.2,4
			c-0.1,0.4-0.1,0.9-0.2,1.3c0,0.1,0,0.2,0,0.2c-0.2,0.6-0.5,1.1-0.7,1.7c-1,3.4-1.9,6.8-2.9,10.1c-1.1,3.8-2.2,7.5-3.3,11.3
			c-0.2,0.8-0.4,1.6-0.6,2.4c-0.2,0.6-0.3,1.2-0.5,1.9c-0.4,1.1-0.8,2.1-1.1,3.2c-0.8,2.6-1.5,5.2-2.2,7.7c-0.6,2-1.4,4-1.6,6.1
			c0,0.2-0.1,0.3-0.1,0.5c-0.2,0.3-0.4,0.7-0.5,1c-0.6,2.2-1.3,4.3-1.9,6.5c-0.9,3.2-1.9,6.4-2.8,9.5c-0.1,0.5-0.2,1-0.2,1.5
			c0,0.1,0,0.2,0,0.2c-0.2,0.6-0.5,1.1-0.7,1.7c-0.4,1.3-0.7,2.6-1,3.9c-0.7,2.3-1.4,4.6-2.1,6.9c-0.8,2.8-1.6,5.5-2.4,8.3
			c-0.4,1.5-1.1,2.9-1.1,4.5c0,0.1,0,0.1-0.1,0.2c-0.1,0.4-0.2,0.8-0.3,1.2c0,0.1-0.1,0.1-0.1,0.2c-0.1,0.1-0.2,0.2-0.2,0.3
			c-0.4,1.2-0.8,2.3-1.1,3.5c-0.4,1.3-0.5,2.7-1,3.9c-0.5,1.2-0.9,2.4-0.9,3.7c0,0,0,0,0,0c-0.1,0.2-0.3,0.3-0.3,0.5
			c-0.4,1.1-0.7,2.3-1,3.5c-0.2,0.8-0.4,1.6-0.6,2.4c-0.2,0.7-0.4,1.5-0.6,2.2c-0.3,0.9-0.7,1.7-1,2.6c-0.2,0.8-0.3,1.7-0.6,2.5
			c-0.5,1.6-1,3.1-1.5,4.7c-0.1,0.3-0.1,0.6-0.1,0.9c0,0.1,0,0.2,0,0.2c-0.2,0.4-0.4,0.7-0.5,1.1c-0.5,1.7-1,3.5-1.5,5.3
			c-0.5,1.6-1,3.3-1.4,4.9c0,0-0.1,0-0.1,0c0,0,0-0.1,0-0.1c-0.2-0.2-0.4-0.5-0.6-0.7c0.5-1.9,1.1-3.7,1.6-5.6
			c0.7-2.4,1.4-4.8,2.1-7.3c0.7-2.3,1.3-4.5,2-6.8c0.6-2,1.2-4,1.7-6c0.7-2.3,1.4-4.7,2-7c0.6-2.1,1.2-4.2,1.8-6.3
			c0.9-3.2,1.8-6.5,2.7-9.7c1-3.3,1.9-6.6,2.9-9.9c0.6-2,1.2-4.1,1.8-6.1c0.7-2.5,1.4-5,2.1-7.5c0.5-1.7,1.1-3.4,1.6-5.1
			c0.7-2.4,1.4-4.8,2.1-7.1c0.6-2,1.2-4.1,1.7-6.1c0.5-1.9,1.1-3.8,1.7-5.7c0.7-2.3,1.4-4.7,2-7c1-3.6,2-7.2,3.1-10.7
			c0.8-2.7,1.6-5.5,2.4-8.2c0.6-1.9,1.1-3.8,1.7-5.7c0.7-2.4,1.4-4.8,2.1-7.2c0.6-2.1,1.2-4.1,1.8-6.2c0.5-1.6,0.9-3.1,1.3-4.7
			C121.7,12.6,121.9,11.9,122.7,11.7z"/>
		<path class="st7" d="M10.2,43.9c-0.2-0.8-0.3-1.6-0.5-2.4c-0.4-1.6-0.9-3.1-1.3-4.7c-0.5-2-1-4.1-1.6-6.2
			c-0.6-2.4-1.3-4.7-1.9-7.1c-0.6-2.1-1.1-4.2-1.6-6.3c-0.5-1.9-1-3.8-1.5-5.7C2.8,12,3,12.9,3.3,13.8c0.4,1.8,0.9,3.6,1.4,5.3
			c0.9,3.4,1.7,6.8,2.7,10.2c1.1,4,2.1,7.9,3.2,11.8c0.5,1.8,1,3.7,1.4,5.5c0.8,2.9,1.5,5.9,2.3,8.8c0.6,2.1,1.1,4.2,1.7,6.3
			c0.7,2.6,1.4,5.1,2.1,7.7c0.6,2.3,1.2,4.6,1.8,6.8c0.6,2.3,1.2,4.6,1.8,6.9c0.9,3.5,1.8,7,2.7,10.5c0.3,1.2,0.7,2.4,1,3.7
			c0.6,2.3,1.2,4.5,1.8,6.8c0.8,3,1.5,6,2.3,9c0.4,1.6,0.9,3.1,1.3,4.7c0.8,3,1.5,6,2.3,8.9c0.4,1.5,0.8,3.1,1.3,4.6
			c0.5,1.7,0.9,3.4,1.3,5.1c0.9,3.2,1.7,6.4,2.6,9.6c0.5,1.8,1,3.7,1.4,5.5c0.6,2.4,1.3,4.7,1.9,7.1c0,0.2,0,0.4,0.1,0.5
			c-0.1,0-0.2,0.1-0.3,0.1c-0.2,0-0.4,0-0.5,0c-0.5-1.8-0.9-3.5-1.4-5.3c-0.4-1.4-0.8-2.9-1.2-4.3c-0.1-0.1-0.2-0.3-0.2-0.4
			c0,0,0-0.1,0-0.1c0-0.3,0-0.7,0-1c0,0,0-0.1,0-0.1c0-0.1-0.1-0.2-0.1-0.3c0-0.1,0-0.2,0-0.3c-0.4-1.4-0.8-2.9-1.2-4.3
			c-0.7-2.6-1.5-5.2-2.2-7.7c0-0.1,0-0.1,0-0.2c0-0.3,0-0.6,0-0.9c-0.6-2.5-1.3-4.9-1.9-7.4c-0.6-2.2-1.2-4.4-1.8-6.6
			c-0.7-2.5-1.3-4.9-2-7.4c-0.6-2.3-1.2-4.6-1.8-6.9c-0.6-2.1-1.1-4.3-1.7-6.4c-0.6-2.4-1.3-4.8-1.9-7.2c-0.5-1.7-0.9-3.4-1.4-5.1
			c-0.1-0.2-0.2-0.4-0.3-0.6c0-0.1,0-0.1,0-0.2c-0.1-0.7-0.2-1.4-0.3-2.1c-0.4-1.5-0.8-3-1.3-4.5c-0.1-0.2-0.2-0.3-0.4-0.5
			c0,0,0-0.1,0-0.1c0-0.4,0.1-0.9,0-1.3c-0.8-3.2-1.7-6.4-2.6-9.5c-0.4-1.2-0.8-2.5-1.2-3.7c0-0.1,0-0.1,0-0.2c0-0.2,0.1-0.5,0-0.7
			c-0.3-1.1-0.6-2.2-0.9-3.3c0,0,0-0.1,0-0.1c0-0.1-0.1-0.2-0.1-0.3c-0.3-1.2-0.6-2.3-0.8-3.5c0-0.1-0.1-0.2-0.1-0.3
			c0,0,0-0.1,0-0.1c-0.2-0.6-0.4-1.1-0.5-1.7l0,0c-0.1-0.3-0.2-0.6-0.3-1l0,0c0-0.1,0-0.3,0-0.4c0,0-0.1-0.1-0.1-0.1
			c0-0.1,0-0.3,0-0.4c0,0-0.1-0.1-0.1-0.1c0-0.1-0.1-0.3-0.1-0.4l0,0c0-0.1-0.1-0.3-0.1-0.4C11.6,49.3,10.9,46.6,10.2,43.9z"/>
		<path class="st8" d="M177.5,11.6c0,0.3,0.1,0.7,0.1,1c0,22.7,0,45.4,0,68.1c0,26.2,0,52.3,0,78.5c0,0.3-0.1,0.6-0.1,0.9
			c0,0,0,0,0,0c0,0,0-0.1,0-0.1c0-0.3,0-0.7,0-1c0-48.7,0-97.5,0-146.2C177.5,12.3,177.5,12,177.5,11.6
			C177.5,11.6,177.5,11.6,177.5,11.6z"/>
		<path class="st9" d="M203.3,11.9c0,49.3,0,98.6,0,148c0-0.2-0.1-0.5-0.1-0.7c0-48.8,0-97.7,0-146.5
			C203.2,12.4,203.2,12.1,203.3,11.9z"/>
		<path class="st4" d="M21.5,86.9c0.1,0.2,0.3,0.4,0.3,0.6c0.5,1.7,1,3.4,1.4,5.1c0.6,2.4,1.3,4.8,1.9,7.2c0.6,2.1,1.1,4.3,1.7,6.4
			c0.6,2.3,1.2,4.6,1.8,6.9c0.7,2.5,1.3,4.9,2,7.4c0.6,2.2,1.2,4.4,1.8,6.6c0.6,2.4,1.3,4.9,1.9,7.4c0.1,0.3,0,0.6,0,0.9
			c-0.3-0.8-0.6-1.6-0.8-2.4c-1.8-6.7-3.5-13.5-5.3-20.2c-1.3-5-2.7-10-4-15c-0.9-3.4-1.8-6.8-2.7-10.2
			C21.5,87.4,21.5,87.1,21.5,86.9z"/>
		<path class="st4" d="M105.6,71.7c0.2-2.1,1-4.1,1.6-6.1c0.7-2.6,1.4-5.2,2.2-7.7c0.3-1.1,0.8-2.2,1.1-3.2c0.2-0.6,0.3-1.2,0.5-1.9
			c0.2-0.8,0.4-1.6,0.6-2.4c1.1-3.8,2.2-7.5,3.3-11.3c1-3.4,1.9-6.8,2.9-10.1c0.2-0.6,0.4-1.1,0.7-1.7c-0.2,0.7-0.3,1.5-0.5,2.2
			c-1.1,3.8-2.2,7.5-3.3,11.3c-1.6,5.4-3.1,10.9-4.7,16.3c-1,3.5-2.1,7.1-3.1,10.6c-0.3,1.2-0.7,2.3-1,3.5
			C105.8,71.4,105.7,71.5,105.6,71.7z"/>
		<path class="st10" d="M79.7,160.4c-0.3,0-0.6,0-0.9,0c-12.5,0-25,0-37.5,0c0-0.1-0.1-0.2-0.1-0.3c0,0,0.1-0.1,0.1-0.1
			c0.2,0,0.4,0,0.6,0c12.3,0,24.7,0,37,0c0.2,0,0.4,0,0.6,0c0.1,0,0.1,0.1,0.2,0.1C79.7,160.2,79.7,160.3,79.7,160.4z"/>
		<path class="st11" d="M245.7,151.3c0.3,0,0.7,0.1,1,0.1c0,2.8,0,5.7,0,8.5c0,0.4,0,0.8-0.6,0.8c-4.8,0-9.7,0-14.5,0
			c0.1-0.1,0.2-0.2,0.2-0.2c4.7,0,9.4,0,14.2,0c0.2,0,0.4-0.2,0.6-0.3c-0.3-0.3-0.5-0.6-0.8-1C245.7,156.6,245.7,153.9,245.7,151.3z
			"/>
		<path class="st8" d="M177.5,160.3c-0.1,0.1-0.1,0.3-0.3,0.3c-0.2,0.1-0.5,0-0.7,0c-13.8,0-27.6,0-41.3,0c-0.3,0-0.5-0.1-0.8-0.2
			c0,0,0-0.1,0-0.1c0.2,0,0.4,0,0.6,0c13.9,0,27.8,0,41.6,0c0.2,0,0.4-0.1,0.7-0.1C177.4,160.3,177.5,160.3,177.5,160.3z"/>
		<path class="st12" d="M320.9,61.7c0.1-1.8,0.3-3.6,0.4-5.3c0-0.8,0-1.6,0-2.3c0-0.5,0.1-0.8,0.7-1c-0.2-0.1-0.5-0.2-0.7-0.3
			c-0.3-1.4-0.2-1.6,0.8-2.2c0,0.1,0.1,0.3,0.1,0.4c0,0.2,0,0.5,0,0.7c-0.1,3.5-0.3,7-0.4,10.4C321.4,61.9,321.2,61.8,320.9,61.7z"
			/>
		<path class="st4" d="M92.8,116.2c0-1.6,0.7-3,1.1-4.5c0.8-2.8,1.6-5.5,2.4-8.3c0.7-2.3,1.4-4.6,2.1-6.9c0.4-1.3,0.7-2.6,1-3.9
			c0.2-0.6,0.5-1.1,0.7-1.7c-0.2,0.7-0.3,1.5-0.5,2.2c-1.1,3.9-2.3,7.9-3.5,11.8c-1.1,3.6-2.1,7.2-3.1,10.8
			C92.9,115.8,92.8,116,92.8,116.2z"/>
		<path class="st13" d="M224.5,160.3c-0.1,0.1-0.1,0.1-0.2,0.2c-6.7,0-13.4,0-20.2,0c-0.3,0-0.6-0.2-0.9-0.3c0.1,0,0.2-0.1,0.4-0.1
			c7,0,14,0,20.9,0c0,0,0,0.1,0,0.1C224.6,160.2,224.5,160.2,224.5,160.3z"/>
		<path class="st9" d="M321.7,61.9c0.1-3.5,0.3-7,0.4-10.4c0-0.2,0-0.5,0-0.7c0,2.2,0.1,4.5,0.1,6.7c0,0.9-0.1,1.9-0.2,2.8
			c-0.2,2.9-0.7,5.8-1.5,8.7c-0.7,2.8-1.8,5.4-3.2,7.9c-0.3,0.5-0.7,1-1,1.5c0.1-0.2,0.1-0.4,0.2-0.7c0,0,0,0,0,0
			c0.1-0.1,0.2-0.3,0.3-0.4c0,0,0,0,0,0c0.1-0.1,0.1-0.2,0.2-0.3c0.1-0.2,0.2-0.5,0.4-0.7c0-0.1,0.1-0.2,0.1-0.3l0,0
			c0.2-0.5,0.5-1,0.7-1.5l0,0c0-0.1,0.1-0.2,0.1-0.3c0,0,0,0,0,0c0.1-0.4,0.3-0.7,0.4-1.1c0,0,0.1-0.1,0.1-0.1
			c0.4-1.2,0.8-2.3,1.3-3.5c0.1-0.3,0.1-0.5,0.2-0.8c0.2-0.8,0.4-1.6,0.5-2.4C321.2,64.9,321.4,63.4,321.7,61.9z"/>
		<path class="st4" d="M100.1,90.6c0.1-0.5,0.1-1,0.2-1.5c0.9-3.2,1.9-6.4,2.8-9.5c0.6-2.2,1.3-4.3,1.9-6.5c0.1-0.3,0.3-0.7,0.5-1
			c-0.1,0.7-0.2,1.3-0.4,2c-1.5,5.3-3.1,10.6-4.6,16C100.4,90.3,100.2,90.4,100.1,90.6z"/>
		<path class="st11" d="M245.7,143.7c0.3-0.4,0.6-0.8,1-1.2c0,2.6,0,5.2,0,7.9c-0.3,0-0.7-0.1-1-0.1
			C245.7,148.1,245.7,145.9,245.7,143.7z"/>
		<path class="st4" d="M15.7,65.1c0.4,1.2,0.8,2.5,1.2,3.7c0.9,3.2,1.7,6.3,2.6,9.5c0.1,0.4,0,0.9,0,1.3c-0.5-1.7-1-3.3-1.4-5
			c-0.8-2.9-1.5-5.8-2.3-8.7C15.8,65.6,15.7,65.3,15.7,65.1z"/>
		<path class="st4" d="M79.7,160.4c0-0.1,0-0.2,0-0.3c0-0.1,0.1-0.1,0.1-0.2c0.5-1.6,1-3.3,1.4-4.9c0.5-1.8,1-3.5,1.5-5.3
			c0.1-0.4,0.3-0.7,0.5-1.1c-0.1,0.7-0.2,1.3-0.4,2c-0.8,3-1.7,5.9-2.6,8.9C80.2,159.8,80.3,160.4,79.7,160.4z"/>
		<path class="st4" d="M34.4,135.5c0.7,2.6,1.5,5.2,2.2,7.7c0.4,1.4,0.8,2.9,1.2,4.3c-0.1,0-0.2,0-0.3,0c-0.6-2.2-1.2-4.4-1.9-6.6
			c-0.5-1.7-0.9-3.3-1.3-5C34.3,135.7,34.4,135.6,34.4,135.5z"/>
		<path class="st4" d="M89,129.2c0.1-1.3,0.5-2.5,0.9-3.7c0.5-1.2,0.7-2.6,1-3.9c0.3-1.2,0.7-2.3,1.1-3.5c0-0.1,0.1-0.2,0.2-0.3
			c-0.1,0.6-0.2,1.3-0.4,1.9c-0.9,3.1-1.8,6.1-2.7,9.2C89.2,128.9,89.1,129.1,89,129.2z"/>
		<path class="st4" d="M83.3,148.4c0-0.3,0-0.6,0.1-0.9c0.5-1.6,1.1-3.1,1.5-4.7c0.2-0.8,0.3-1.7,0.6-2.5c0.3-0.9,0.6-1.8,1-2.6
			c-0.1,0.4-0.1,0.8-0.2,1.2c-0.9,3-1.7,6-2.6,8.9C83.6,148.1,83.4,148.3,83.3,148.4z"/>
		<path class="st9" d="M38.2,149.7c0.4,1.4,0.8,2.8,1.2,4.3c0.5,1.8,0.9,3.5,1.4,5.3c0,0.1,0.1,0.3,0.1,0.4c0,0,0,0.1,0,0.1
			c-0.1,0-0.1,0-0.2,0c-0.3-1.2-0.7-2.4-1-3.6c-0.5-1.9-1-3.8-1.5-5.7c-0.1-0.2-0.1-0.5-0.1-0.7C38.2,149.7,38.2,149.7,38.2,149.7z"
			/>
		<path class="st9" d="M10.2,43.9c0.7,2.7,1.4,5.4,2.1,8c0,0.1,0,0.1,0,0.2c-0.3-0.9-0.6-1.7-0.8-2.6c-0.6-2.1-1.1-4.1-1.6-6.2
			C10,43.6,10.1,43.7,10.2,43.9z"/>
		<path class="st4" d="M19.5,79.7c0.1,0.2,0.3,0.3,0.4,0.5c0.4,1.5,0.9,3,1.3,4.5c0.2,0.7,0.2,1.4,0.3,2.1c-0.2-0.7-0.5-1.4-0.7-2.1
			c-0.4-1.6-0.9-3.1-1.3-4.7C19.5,79.9,19.5,79.8,19.5,79.7z"/>
		<path class="st4" d="M87.1,135.5c0.2-0.8,0.3-1.6,0.6-2.4c0.3-1.2,0.7-2.3,1-3.5c0.1-0.2,0.2-0.3,0.3-0.5
			c-0.3,1.2-0.6,2.4-0.9,3.6c-0.2,0.8-0.4,1.5-0.7,2.2C87.3,135.2,87.2,135.4,87.1,135.5z"/>
		<path class="st4" d="M14.8,60.8c0.3,1.1,0.6,2.2,0.9,3.3c0.1,0.2,0,0.5,0,0.7c-0.2-0.6-0.4-1.1-0.6-1.7c-0.2-0.7-0.3-1.4-0.5-2.1
			C14.6,60.9,14.7,60.9,14.8,60.8z"/>
		<path class="st9" d="M14.8,60.8c-0.1,0-0.2,0.1-0.3,0.1c-0.4-1.5-0.7-3-1.1-4.4c0.1,0,0.2,0,0.3,0c0,0,0,0.1,0,0.1
			c0,0.1,0.1,0.2,0.1,0.3c0.3,1.2,0.6,2.3,0.8,3.5c0,0.1,0.1,0.2,0.1,0.3C14.8,60.8,14.8,60.8,14.8,60.8z"/>
		<path class="st14" d="M314.8,80.9c-0.1,0.1-0.1,0.1-0.2,0.2c-0.1,0.1-0.2,0.2-0.2,0.4c-0.1,0.1-0.2,0.2-0.3,0.3
			c-0.1,0.1-0.2,0.2-0.3,0.4c-0.1,0.1-0.2,0.2-0.3,0.3c-0.1,0.1-0.2,0.2-0.3,0.4c-0.2,0.2-0.3,0.3-0.5,0.5c-0.1,0.1-0.2,0.3-0.3,0.4
			c-0.1,0-0.1,0.1-0.2,0.1c0-0.1-0.1-0.1-0.1-0.2c1.1-1.4,2.2-2.8,3.3-4.1c0,0,0.1,0.1,0.1,0.1c0,0.1-0.1,0.2-0.1,0.3
			c-0.1,0.1-0.2,0.3-0.3,0.4c0,0.1-0.1,0.1-0.1,0.2C315,80.6,314.9,80.8,314.8,80.9z"/>
		<path class="st9" d="M12.7,53.4c0,0,0.1,0.1,0.1,0.1c0,0.1,0,0.3,0,0.4c0,0,0,0,0,0c0.1,0.3,0.2,0.6,0.3,1c0,0,0,0,0,0
			c0.1,0.5,0.2,1,0.2,1.4c-0.3-1-0.5-2-0.8-3C12.6,53.4,12.7,53.4,12.7,53.4z"/>
		<path class="st14" d="M316.6,77.8c-0.1,0.2-0.1,0.4-0.2,0.7c0,0,0,0.1-0.1,0.1c-0.1,0.2-0.2,0.4-0.3,0.6c0,0-0.1,0.1-0.1,0.1
			c-0.1,0.1-0.1,0.2-0.2,0.3c-0.1,0-0.1,0.1-0.2,0.1c0,0-0.1-0.1-0.1-0.1C315.8,79,316.2,78.4,316.6,77.8z"/>
		<path class="st14" d="M310.6,85.5c-0.1,0.1-0.1,0.2-0.2,0.3c-0.1,0.1-0.3,0.2-0.4,0.3c-0.2,0.1-0.4,0.3-0.6,0.4
			c0-0.1-0.1-0.1-0.1-0.2c0.4-0.3,0.7-0.7,1.1-1C310.5,85.4,310.6,85.4,310.6,85.5z"/>
		<path class="st4" d="M13.4,56.3c-0.1-0.5-0.2-1-0.2-1.4c0.2,0.6,0.4,1.1,0.5,1.7c-0.1,0-0.2,0-0.3,0
			C13.4,56.5,13.4,56.4,13.4,56.3z"/>
		<path class="st4" d="M38,148.2c0,0.3,0,0.7,0,1c-0.1-0.3-0.2-0.7-0.3-1C37.8,148.2,37.9,148.2,38,148.2z"/>
		<path class="st4" d="M40.8,159.8c0.1,0,0.1,0,0.2,0c0.1,0,0.1,0.1,0.2,0.1l0,0c0,0,0,0.1,0,0.1c0,0.1,0.1,0.2,0.1,0.3
			C40.7,160.6,40.9,160.1,40.8,159.8z"/>
		<path class="st4" d="M92.3,117.5c0.1-0.4,0.2-0.8,0.3-1.2C92.6,116.8,92.5,117.2,92.3,117.5z"/>
		<path class="st14" d="M309.1,86.9c-0.1,0-0.2,0.1-0.3,0.1c0-0.1-0.1-0.1-0.1-0.2c0.2-0.2,0.5-0.4,0.7-0.6c0,0.1,0.1,0.1,0.1,0.2
			c0,0.1-0.1,0.2-0.1,0.3C309.3,86.8,309.2,86.9,309.1,86.9z"/>
		<path class="st9" d="M12.6,52.8c0,0,0.1,0.1,0.1,0.1c-0.1,0.1-0.1,0.1-0.2,0.2c-0.1-0.2-0.2-0.5-0.2-0.7c0,0,0.1,0,0.1,0
			c0,0,0,0,0,0C12.5,52.5,12.5,52.7,12.6,52.8z"/>
		<path class="st14" d="M311.9,84.2c-0.2,0.2-0.4,0.4-0.6,0.6c0-0.1-0.1-0.1-0.1-0.2c0.2-0.2,0.4-0.4,0.6-0.6
			C311.7,84.1,311.8,84.2,311.9,84.2z"/>
		<path class="st9" d="M316,79.1c0.1-0.2,0.2-0.4,0.3-0.6C316.2,78.7,316.1,78.9,316,79.1z"/>
		<path class="st14" d="M311,85.1c-0.1,0.1-0.3,0.3-0.4,0.4c-0.1,0-0.1-0.1-0.2-0.1c0.1-0.1,0.3-0.3,0.4-0.4
			C310.9,85,311,85,311,85.1z"/>
		<path class="st9" d="M312.4,83.8c0.1-0.1,0.2-0.3,0.3-0.4C312.6,83.5,312.5,83.6,312.4,83.8z"/>
		<path class="st9" d="M310,86.1c0.1-0.1,0.3-0.2,0.4-0.3C310.3,85.9,310.2,86,310,86.1z"/>
		<path class="st4" d="M38.2,149.7c0,0-0.1,0-0.1,0c0-0.1-0.1-0.3-0.1-0.4C38.1,149.5,38.2,149.6,38.2,149.7z"/>
		<path class="st9" d="M313.3,82.8c0.1-0.1,0.2-0.2,0.3-0.4C313.4,82.6,313.3,82.7,313.3,82.8z"/>
		<path class="st9" d="M314.8,80.9c0.1-0.1,0.2-0.2,0.3-0.3C315,80.6,314.9,80.8,314.8,80.9z"/>
		<path class="st4" d="M37.8,147.8c0,0.1,0.1,0.2,0.1,0.3c-0.1,0-0.2,0-0.3,0c0-0.1,0-0.2-0.1-0.3C37.7,147.8,37.7,147.8,37.8,147.8
			z"/>
		<path class="st9" d="M315.2,80.4c0.1-0.1,0.2-0.3,0.3-0.4C315.3,80.1,315.3,80.2,315.2,80.4z"/>
		<path class="st9" d="M313.8,82.1c0.1-0.1,0.2-0.2,0.3-0.4C314,81.9,313.9,82,313.8,82.1z"/>
		<path class="st9" d="M314.4,81.4c0.1-0.1,0.2-0.2,0.2-0.4C314.5,81.2,314.4,81.3,314.4,81.4z"/>
		<path class="st15" d="M134.2,160c0,0,0.1,0,0.1,0c0.1,0,0.2,0,0.3,0c0,0.1-0.1,0.2-0.1,0.3c0,0,0,0.1,0,0.1c0,0-0.1,0-0.1-0.1
			c0-0.1-0.1-0.2-0.1-0.3C134.2,160.1,134.2,160,134.2,160z"/>
		<path class="st9" d="M309.1,86.9c0.1-0.1,0.2-0.1,0.2-0.2C309.3,86.8,309.2,86.9,309.1,86.9z"/>
		<path class="st9" d="M315.7,79.5c0.1-0.1,0.1-0.2,0.2-0.3C315.9,79.3,315.8,79.4,315.7,79.5z"/>
		<path class="st9" d="M37.8,147.8c-0.1,0-0.1,0-0.2,0c0-0.1,0-0.2-0.1-0.3c0.1,0,0.2,0,0.3,0C37.8,147.6,37.8,147.7,37.8,147.8z"/>
		<path class="st8" d="M134.2,160.1c0,0.1,0.1,0.2,0.1,0.3C134.3,160.3,134.3,160.2,134.2,160.1z"/>
		<path class="st4" d="M12.5,52.4c0,0-0.1,0-0.1,0c0-0.1,0-0.1,0-0.2c0-0.1,0-0.1,0-0.2C12.4,52.1,12.4,52.2,12.5,52.4z"/>
		<path class="st15" d="M177.5,160.3c-0.1,0-0.1,0-0.2,0c0-0.1-0.1-0.1-0.1-0.2c0.1,0,0.2,0,0.3,0c0,0,0,0,0,0
			C177.5,160.1,177.5,160.2,177.5,160.3z"/>
		<path class="st15" d="M203.7,160c-0.1,0-0.2,0.1-0.4,0.1c0,0,0-0.1,0-0.1c0,0,0,0,0-0.1c0,0,0.1,0,0.1,0
			C203.5,160,203.6,160,203.7,160z"/>
		<path class="st4" d="M12.6,53.1c0.1-0.1,0.1-0.1,0.2-0.2c0,0.1,0,0.3,0,0.4c0,0-0.1,0-0.1,0C12.6,53.3,12.6,53.2,12.6,53.1z"/>
		<path class="st9" d="M37.7,148.1c0.1,0,0.2,0,0.3,0c0,0,0,0.1,0,0.1c-0.1,0-0.2,0-0.2,0C37.7,148.2,37.7,148.1,37.7,148.1z"/>
		<path class="st14" d="M308.5,87.3c0-0.1,0-0.2,0-0.4c0,0,0.1,0,0.1,0c0,0.1,0.1,0.1,0.1,0.2C308.7,87.1,308.6,87.2,308.5,87.3z"/>
		<path class="st14" d="M312,84.1c0,0-0.1,0.1-0.1,0.1c-0.1,0-0.1-0.1-0.2-0.1c0,0,0.1-0.1,0.1-0.1C311.9,84,311.9,84,312,84.1z"/>
		<path class="st14" d="M312.1,83.9c0,0.1-0.1,0.1-0.1,0.2c-0.1,0-0.1-0.1-0.2-0.1c0,0,0.1-0.1,0.1-0.1
			C312,83.9,312.1,83.9,312.1,83.9z"/>
		<path class="st14" d="M312.2,83.9C312.2,83.9,312.2,83.9,312.2,83.9c-0.1,0-0.2,0-0.2,0c0,0,0.1-0.1,0.1-0.1
			C312.1,83.7,312.2,83.8,312.2,83.9z"/>
		<path class="st14" d="M311.2,84.9c0,0.1-0.1,0.1-0.1,0.2c-0.1,0-0.1-0.1-0.2-0.1c0,0,0.1-0.1,0.1-0.1
			C311.1,84.8,311.1,84.9,311.2,84.9z"/>
		<path class="st14" d="M311.2,84.8C311.2,84.9,311.2,84.9,311.2,84.8c-0.1,0-0.2,0-0.2,0c0,0,0.1-0.1,0.1-0.1
			C311.2,84.7,311.2,84.8,311.2,84.8z"/>
		<path class="st16" d="M203.5,159.7c0-0.2-0.1-0.4-0.1-0.7c0-49.1,0-98.2,0-147.3c0.4,0.3,0.7,0.6,0.7,1.2c0,48.7,0,97.3,0,146
			c0,0.1,0,0.1,0,0.2C203.9,159.4,203.7,159.5,203.5,159.7z"/>
		<path class="st11" d="M246.7,25.8c0,0,0,0.1,0,0.1c0,0.3-0.1,0.6-0.1,0.9c0,19.5,0,39.1,0,58.6c-0.2,0-0.5,0-0.8,0
			c0-0.3,0-0.6,0-0.8c0-19.5,0-39.1,0-58.6c0-0.3,0-0.5,0-0.8c0.3,0,0.5,0,0.8,0c0.1,0.1,0.1,0.2,0.2,0.3
			C246.7,25.6,246.7,25.7,246.7,25.8z"/>
		<path class="st11" d="M246.7,132.4c-0.3,0.2-0.6,0.3-1,0.5c0-10.9,0-21.8,0-32.8c0-0.3,0-0.6,0-1c0.3,0,0.5,0,0.8,0.1
			c0.1,0.2,0.1,0.3,0.2,0.5c0,0.1,0,0.3,0,0.4C246.7,110.9,246.7,121.7,246.7,132.4z"/>
		<path class="st17" d="M246.5,99.3c-0.3,0-0.5,0-0.8-0.1c0-0.7,0.5-0.8,1-0.8c2.4,0,4.7,0,7.1,0c1.8,0,3.6,0,5.4,0
			c2.5,0,5.1,0,7.6-0.2c2.7-0.1,5.5-0.4,8.2-0.7c2.1-0.2,4.2-0.5,6.3-0.7c-0.3,0.3-0.6,0.7-0.9,1c-1.7,0.2-3.4,0.4-5.1,0.5
			c-2.7,0.2-5.4,0.6-8.1,0.6c-4.4,0.1-8.7,0.1-13.1,0.2C251.6,99.3,249.1,99.3,246.5,99.3z"/>
		<path class="st18" d="M246.5,25.2c-0.3,0-0.5,0-0.8,0c0-0.7,0.4-0.9,1.1-0.9c4,0,8-0.1,12,0c2.9,0.1,5.6,0.8,8.3,1.9
			c2.1,0.9,3.9,2.1,5.5,3.7c0.2,0.2,0.4,0.5,0.6,0.7c-0.1,0.1-0.1,0.2-0.2,0.3c0,0,0,0,0,0c-0.2,0-0.3,0-0.5,0
			c-1.1-0.9-2.2-1.8-3.4-2.6c-3-1.9-6.4-2.9-10-3.1c-0.3,0-0.5,0-0.8,0c-2.7,0-5.4,0-8.1,0C249.1,25.2,247.8,25.2,246.5,25.2z"/>
		<path class="st18" d="M203.5,159.7c0.2-0.2,0.4-0.4,0.6-0.6c6.8,0,13.6,0,20.4,0c0.2,0,0.5,0,0.7,0c-0.1,0.2-0.3,0.4-0.4,0.6
			c-7.1,0-14.2,0-21.2,0C203.5,159.8,203.5,159.8,203.5,159.7z"/>
		<path class="st19" d="M311.1,84.7c0,0-0.1,0.1-0.1,0.1c0,0-0.1,0.1-0.1,0.1c-0.1,0.1-0.3,0.3-0.4,0.4c-0.4,0.3-0.7,0.7-1.1,1
			c-0.2,0.2-0.5,0.4-0.7,0.6c0,0-0.1,0-0.1,0c0-0.4,0-0.8,0-1.3c0.5-0.4,1-0.9,1.5-1.3c2.1-1.9,3.8-4.1,5.4-6.5
			c0.1-0.1,0.2-0.2,0.2-0.3c0,0,0-0.1,0-0.1c0.1-0.2,0.3-0.4,0.4-0.6c0.1-0.1,0.1-0.3,0.2-0.4c0.2-0.3,0.3-0.6,0.5-0.9
			c0.2-0.5,0.4-0.9,0.6-1.4c0.1-0.1,0.2-0.2,0.2-0.3c0,0,0-0.1,0-0.1c0.2,0.1,0.5,0.2,0.7,0.3c0,0.1,0,0.2,0,0.3c0,0,0,0,0,0
			c0,0.1-0.1,0.2-0.1,0.3c0,0,0,0,0,0c-0.2,0.5-0.5,1-0.7,1.5c0,0,0,0,0,0c0,0.1-0.1,0.2-0.1,0.3c-0.1,0.2-0.2,0.5-0.4,0.7
			c-0.1,0.1-0.1,0.2-0.2,0.3c0,0,0,0,0,0c-0.1,0.1-0.2,0.3-0.3,0.4c0,0,0,0,0,0c-0.4,0.6-0.8,1.2-1.1,1.8c-1.1,1.4-2.2,2.8-3.3,4.1
			c0,0-0.1,0.1-0.1,0.1c0,0-0.1,0.1-0.1,0.1c0,0-0.1,0.1-0.1,0.1C311.5,84.3,311.3,84.5,311.1,84.7z"/>
		<path class="st7" d="M318.4,74c-0.2-0.1-0.5-0.2-0.7-0.3c0.2-0.7,0.5-1.4,0.7-2.1c0.7-2.5,1.4-5,2.1-7.5c0.2-0.8,0.3-1.7,0.4-2.5
			c0.3,0.1,0.5,0.2,0.8,0.3c-0.3,1.5-0.5,3-0.8,4.4c-0.2,0.8-0.4,1.6-0.5,2.4c-0.1,0.3-0.1,0.5-0.2,0.8c-0.3,0.8-0.7,1.7-1,2.6
			c-0.1,0.3-0.2,0.6-0.2,0.9c0,0-0.1,0.1-0.1,0.1C318,73.2,318.7,73.8,318.4,74z"/>
		<path class="st8" d="M246.5,85.4c0-19.5,0-39.1,0-58.6c0-0.3,0.1-0.6,0.1-0.9c0,0.3,0,0.6,0,0.9c0,19.3,0,38.5,0,57.8
			c0,0.3,0.1,0.6,0.2,0.9C246.8,85.4,246.7,85.4,246.5,85.4z"/>
		<path class="st11" d="M280.4,50.1c0,2.7,0,5.5,0,8.3c-0.3,0-0.6,0-0.8,0.1c0-2.8,0-5.5,0-8.3C279.8,50.2,280.1,50.1,280.4,50.1z"
			/>
		<path class="st7" d="M277.9,38.2c0.2,0.5,0.5,1,0.7,1.6c0.6,1.8,1.2,3.7,1.2,5.6c-0.2,0-0.5,0.1-0.7,0.1c0,0-0.1-0.1-0.1-0.1
			c0,0,0-0.1,0-0.1c0-0.2-0.1-0.5-0.1-0.7l0,0c0-0.1,0-0.3,0-0.4c-0.5-1.9-1-3.8-1.5-5.7C277.5,38.4,277.7,38.3,277.9,38.2z"/>
		<path class="st19" d="M277.9,38.2c-0.2,0.1-0.4,0.2-0.6,0.3c-0.5-1-1-1.9-1.5-2.9c-0.1-0.1-0.1-0.2-0.2-0.3c0,0,0,0,0,0
			c0,0-0.1-0.1-0.1-0.1c0,0,0,0,0,0c0-0.1-0.1-0.2-0.1-0.3c0,0,0,0,0,0c0-0.1-0.1-0.2-0.1-0.3c0,0,0,0,0,0c-0.1-0.2-0.3-0.5-0.4-0.7
			c0,0,0,0,0,0c-0.4-0.6-0.8-1.2-1.1-1.8c0.2-0.2,0.3-0.4,0.5-0.6c0.6,0.9,1.4,1.7,1.9,2.6C276.8,35.5,277.3,36.9,277.9,38.2z"/>
		<path class="st11" d="M279.1,45.6c0.2,0,0.5-0.1,0.7-0.1c0.1,0.9,0.2,1.9,0.3,2.8c-0.2,0-0.4,0-0.6,0.1c-0.1-0.4-0.1-0.7-0.2-1.1
			C279.2,46.7,279.2,46.1,279.1,45.6z"/>
		<path class="st4" d="M279.5,50.2c0,2.8,0,5.5,0,8.3c0,0-0.1,0.1-0.1,0.1c0-2.4,0-4.8,0-7.3c0-0.8-0.2-1.6-0.2-2.5
			c0-0.3,0-0.5,0.1-0.8C279.4,48.8,279.5,49.5,279.5,50.2z"/>
		<path class="st11" d="M280.2,48.5c0,0.5,0,0.9,0,1.4c-0.2,0-0.4,0-0.7,0.1c0-0.5,0-0.9,0-1.4C279.8,48.5,280,48.5,280.2,48.5z"/>
		<path class="st17" d="M274.1,31.6c-0.2,0.2-0.3,0.4-0.5,0.6c-0.3-0.3-0.7-0.7-1-1c0.1-0.1,0.2-0.2,0.3-0.3c0,0,0,0,0,0
			c0.1,0,0.3,0,0.4,0C273.7,31.1,273.9,31.3,274.1,31.6z"/>
		<path class="st3" d="M280.2,48.5c-0.2,0-0.4,0-0.6,0.1c0,0.5,0,0.9,0,1.4c0.2,0,0.4,0,0.7-0.1c0,0.1,0.1,0.2,0.1,0.2
			c-0.3,0-0.5,0-0.8,0c-0.1-0.7-0.2-1.4-0.3-2.1c0-0.1,0-0.2,0-0.3c0-0.2,0-0.4,0-0.6l0,0c0.1,0.3,0.1,0.7,0.2,1.1
			c0.2,0,0.4,0,0.6-0.1C280.1,48.3,280.2,48.4,280.2,48.5z"/>
		<path class="st7" d="M316.8,75.5c-0.2,0.3-0.3,0.6-0.5,0.9C316.5,76.1,316.7,75.8,316.8,75.5z"/>
		<path class="st7" d="M316.2,76.8c-0.1,0.2-0.3,0.4-0.4,0.6C315.9,77.2,316,77,316.2,76.8z"/>
		<path class="st19" d="M273.5,30.9c-0.1,0-0.3,0-0.4,0c0.1-0.1,0.1-0.2,0.2-0.3C273.3,30.7,273.4,30.8,273.5,30.9z"/>
		<path class="st7" d="M315.7,77.5c-0.1,0.1-0.2,0.2-0.2,0.3C315.6,77.7,315.7,77.6,315.7,77.5z"/>
		<path class="st7" d="M317.7,73.9c-0.1,0.1-0.2,0.2-0.2,0.3C317.5,74.1,317.6,74,317.7,73.9z"/>
		<path class="st17" d="M41.4,159.3c0.1,0,0.2-0.1,0.3-0.1c12.5,0,25,0,37.4,0c0.2,0.2,0.4,0.5,0.6,0.7c-12.8,0-25.6,0-38.4,0
			c0-0.1,0-0.2,0-0.3C41.4,159.5,41.4,159.4,41.4,159.3z"/>
		<path class="st20" d="M177.5,11.6c0,0.3,0,0.7,0,1c0,48.7,0,97.5,0,146.2c0,0.3,0,0.7,0,1c-0.1,0-0.2,0-0.2,0
			c-0.2-0.2-0.4-0.4-0.6-0.7c0-48.7,0-97.4,0-146.2C176.6,12.3,177,12,177.5,11.6z"/>
		<path class="st12" d="M134.4,159.9c0-0.3,0-0.6,0-0.9c0-49.1,0-98.2,0-147.4c0.6,0.5,0.7,1.1,0.7,1.9c0,48.6,0,97.1,0,145.7
			c-0.2,0.2-0.4,0.4-0.6,0.7C134.4,159.9,134.4,159.9,134.4,159.9z"/>
		<path class="st18" d="M134.5,159.9c0.2-0.2,0.4-0.4,0.6-0.7c13.9,0,27.7,0,41.6,0c0.2,0.2,0.4,0.4,0.6,0.7
			C163,159.9,148.7,159.9,134.5,159.9z"/>
		<path class="st21" d="M203.5,159.8c7.1,0,14.2,0,21.2,0c-0.1,0.1-0.1,0.1-0.2,0.2c-7,0-14,0-20.9,0c-0.1,0-0.2,0-0.3,0
			C203.5,159.9,203.5,159.9,203.5,159.8z"/>
		<path class="st21" d="M134.5,159.9c14.2,0,28.5,0,42.7,0c0.1,0,0.2,0,0.2,0c0,0,0,0.1,0,0.1c-0.1,0-0.2,0-0.3,0
			c-0.2,0-0.4,0-0.6,0c-13.8,0-27.5,0-41.3,0c-0.2,0-0.4,0-0.6,0c-0.1,0-0.2,0-0.3,0c0,0,0-0.1,0-0.1
			C134.4,159.9,134.4,159.9,134.5,159.9z"/>
		<path class="st22" d="M286.2,95.8c3.8-4.1,7.6-8.3,12.4-11.2c1.8-1.1,3.7-1.9,5.8-1.8c2.2,0.1,3.5,1.8,2.8,4.1
			c-0.1,0.1-0.2,0.1-0.4,0.2c-1.9,1.2-3.7,2.4-5.6,3.5c-3.7,2-7.6,3.4-11.6,4.5C288.6,95.4,287.4,95.6,286.2,95.8z"/>
		<path class="st1" d="M245.7,151.3c0,2.6,0,5.2,0,7.9c-4.3,0-8.6,0-12.9,0c1.9-2.3,3.7-4.5,5.6-6.8c0.6-0.7,1.2-1.4,1.8-2.1
			c0.3-0.4,0.5-0.4,1-0.3C242.6,150.5,244.2,150.9,245.7,151.3z"/>
		<path class="st22" d="M245.7,137.7c-1.1,1.3-2.2,2.6-3.3,4c-1.3,1.5-2.6,3-3.9,4.7c-0.4-0.7-0.9-1.3-1.2-2c-0.1-0.4,0-0.9,0.2-1.3
			c0.7-1.1,1.5-2.1,2.2-3.2c0.6-1,1-2,1.5-3c0.1-0.1,0.2-0.3,0.3-0.4c1.4-0.8,2.8-1.5,4.3-2.3C245.7,135.4,245.7,136.5,245.7,137.7z
			"/>
		<path class="st22" d="M226.8,159c3-4.7,6.1-9.5,9.2-14.3c0.5,0.9,1,1.7,1.4,2.6c0.1,0.1-0.1,0.4-0.2,0.6c-1.9,2.2-3.8,4.4-5.7,6.6
			c-1.4,1.6-2.8,3.2-4.2,4.8C227.1,159.2,227,159.1,226.8,159z"/>
		<path class="st17" d="M286.2,95.8c1.2-0.2,2.4-0.4,3.5-0.7c4-1.1,7.9-2.5,11.6-4.5c1.9-1.1,3.8-2.3,5.6-3.5
			c0.1-0.1,0.2-0.1,0.4-0.2c-0.1,0.4-0.2,0.8-0.3,1.3c-1,0.6-1.9,1.3-2.9,1.9c-3.1,1.8-6.3,3.3-9.6,4.4c-3.1,1-6.2,1.9-9.3,2.5
			c0.3-0.4,0.6-0.7,1-1.1C286.1,95.9,286.2,95.8,286.2,95.8L286.2,95.8z"/>
		<path class="st13" d="M280,98.5c-3,0.3-6.1,0.6-9.1,0.9c-2.2,0.2-4.4,0.2-6.6,0.3c-5.6,0.1-11.1,0.1-16.7,0.1
			c-0.3,0-0.6,0.1-0.9,0.1c-0.1-0.2-0.1-0.3-0.2-0.5c2.5,0,5.1,0,7.6,0c4.4,0,8.7,0,13.1-0.2c2.7-0.1,5.4-0.4,8.1-0.6
			c1.7-0.2,3.4-0.4,5.1-0.5C280.3,98.1,280.1,98.3,280,98.5z"/>
		<path class="st22" d="M245.7,143.7c0,2.2,0,4.4,0,6.5c-1.5-0.2-2.9-0.7-4.3-1.5C242.9,147,244.3,145.4,245.7,143.7z"/>
		<path class="st14" d="M285.1,97c3.2-0.6,6.3-1.5,9.3-2.5c3.4-1.1,6.5-2.7,9.6-4.4c1-0.6,2-1.3,2.9-1.9c-0.1,0.3-0.2,0.5-0.3,0.8
			c0,0.1-0.1,0.1-0.1,0.2c0,0,0,0,0,0c-0.2,0-0.3,0.1-0.5,0.1c-4.8,3.2-10,5.4-15.6,7c-2,0.6-4.1,1-6.1,1.4
			C284.7,97.4,284.9,97.2,285.1,97z"/>
		<path class="st17" d="M232.8,159.2c4.3,0,8.6,0,12.9,0c0.3,0.3,0.5,0.6,0.8,1c-0.3,0-0.6-0.1-0.9-0.1c-4.5,0-9,0-13.5,0
			C232.3,159.7,232.6,159.4,232.8,159.2z"/>
		<path class="st13" d="M232.1,160c4.5,0,9,0,13.5,0c0.3,0,0.6,0.1,0.9,0.1c-0.2,0.1-0.4,0.3-0.6,0.3c-4.7,0-9.4,0-14.2,0
			C231.9,160.3,232,160.1,232.1,160z"/>
		<path class="st11" d="M246.6,133.7c0,1,0,1.9,0.1,2.9c-0.3,0.4-0.6,0.7-0.9,1.1c0-1.2,0-2.3,0-3.5
			C246,134.1,246.3,133.9,246.6,133.7z"/>
		<path class="st18" d="M226.8,159c0.2,0.1,0.3,0.1,0.5,0.2c-0.3,0.4-0.6,0.8-0.9,1.2c-0.1,0-0.1-0.1-0.2-0.1
			C226.4,159.9,226.6,159.5,226.8,159z"/>
		<path class="st22" d="M286.2,95.8c0,0-0.1,0.1-0.1,0.1C286.1,95.9,286.2,95.8,286.2,95.8z"/>
		<path class="st15" d="M224.5,160.3c0,0,0.1-0.1,0.1-0.1C224.6,160.2,224.5,160.2,224.5,160.3z"/>
		<path class="st21" d="M41.3,159.9c12.8,0,25.6,0,38.4,0c0,0,0,0.1,0,0.1c-0.1,0-0.1,0-0.2,0.1c-0.2,0-0.4,0-0.6,0
			c-12.3,0-24.7,0-37,0c-0.2,0-0.4,0-0.6,0c0,0-0.1,0-0.1,0c0,0,0,0,0,0C41.2,159.9,41.2,159.9,41.3,159.9z"/>
		<path class="st15" d="M79.6,160c0.1,0,0.1,0,0.2-0.1c0,0,0.1,0,0.1,0c0,0.1-0.1,0.1-0.1,0.2C79.7,160.1,79.6,160.1,79.6,160z"/>
		<path class="st5" d="M41.4,159.3c0,0.1-0.1,0.2-0.1,0.3c-0.1,0-0.2,0.1-0.3,0.1c0-0.1-0.1-0.3-0.1-0.4
			C41.1,159.3,41.3,159.3,41.4,159.3z"/>
		<path class="st4" d="M13.2,54.9c-0.1-0.3-0.2-0.6-0.3-1C13,54.2,13.1,54.6,13.2,54.9z"/>
		<path class="st4" d="M12.6,52.8c0-0.1-0.1-0.3-0.1-0.4C12.5,52.5,12.5,52.7,12.6,52.8z"/>
		<path class="st4" d="M12.9,53.9c0-0.1,0-0.3,0-0.4C12.9,53.6,12.9,53.8,12.9,53.9z"/>
		<path class="st4" d="M14.8,60.7c0-0.1-0.1-0.2-0.1-0.3C14.7,60.5,14.8,60.6,14.8,60.7z"/>
		<path class="st4" d="M13.8,57c0-0.1-0.1-0.2-0.1-0.3C13.7,56.8,13.8,56.9,13.8,57z"/>
		<path class="st15" d="M41.2,160c0,0,0.1,0,0.1,0c0,0-0.1,0.1-0.1,0.1C41.2,160.1,41.2,160.1,41.2,160z"/>
		<path class="st10" d="M134.6,160c0.2,0,0.4,0,0.6,0c13.8,0,27.5,0,41.3,0c0.2,0,0.4,0,0.6,0c0,0.1,0.1,0.1,0.1,0.2
			c-0.2,0-0.4,0.1-0.7,0.1c-13.9,0-27.8,0-41.6,0c-0.2,0-0.4,0-0.6,0C134.5,160.3,134.6,160.2,134.6,160z"/>
		<path class="st4" d="M318.9,73c0.1-0.3,0.1-0.6,0.2-0.9c0.3-0.9,0.7-1.7,1-2.6C319.8,70.7,319.3,71.9,318.9,73z"/>
		<path class="st4" d="M318.4,74c0.3-0.2-0.3-0.9,0.4-0.9c-0.1,0.4-0.3,0.7-0.4,1.1C318.4,74.2,318.4,74.1,318.4,74z"/>
		<path class="st4" d="M317.5,76.1c0.2-0.5,0.5-1,0.7-1.5C318,75.1,317.8,75.6,317.5,76.1z"/>
		<path class="st14" d="M316.6,77.8c0.1-0.1,0.2-0.3,0.3-0.4C316.8,77.5,316.7,77.6,316.6,77.8z"/>
		<path class="st4" d="M318.2,74.6c0-0.1,0.1-0.2,0.1-0.3C318.3,74.4,318.3,74.5,318.2,74.6z"/>
		<path class="st4" d="M317.4,76.4c0-0.1,0.1-0.2,0.1-0.3C317.5,76.2,317.4,76.3,317.4,76.4z"/>
		<path class="st14" d="M316.8,77.3c0.1-0.1,0.1-0.2,0.2-0.3C317,77.2,316.9,77.3,316.8,77.3z"/>
		<path class="st7" d="M41,159.7c0.1,0,0.2-0.1,0.3-0.1c0,0.1,0,0.2,0,0.3c0,0-0.1,0.1-0.1,0.1c-0.1,0-0.1-0.1-0.2-0.1
			C41,159.8,41,159.8,41,159.7z"/>
		<path class="st14" d="M259.2,25.2c3.6,0.2,6.9,1.2,10,3.1c1.2,0.8,2.3,1.7,3.4,2.6c0,0.1,0,0.2,0,0.3c0,0,0,0,0,0
			c-0.2,0-0.4-0.1-0.6-0.1c-0.2-0.2-0.5-0.5-0.7-0.7c-0.2-0.1-0.4-0.3-0.6-0.4c0,0-0.1-0.1-0.1-0.1c-0.1-0.1-0.1-0.2-0.2-0.3
			c-1-0.6-1.9-1.2-2.9-1.7c-0.6-0.3-1.3-0.4-1.9-0.6c-1.1-0.3-2.1-0.6-3.2-0.9c-0.3-0.1-0.6-0.3-0.9-0.4c-0.9-0.2-1.7-0.3-2.6-0.4
			C259.1,25.4,259.1,25.3,259.2,25.2z"/>
		<path class="st8" d="M259,25.5c0.9,0.1,1.7,0.3,2.6,0.4c0.3,0.1,0.6,0.2,0.9,0.4c-1.1-0.2-2.2-0.3-3.3-0.5c-0.2,0-0.3-0.1-0.5-0.1
			c-4,0-8,0-12,0c0-0.1,0-0.1,0-0.2c0.3,0,0.5-0.1,0.8-0.1C251.3,25.5,255.2,25.5,259,25.5z"/>
		<path class="st4" d="M275.9,35.6c0.5,1,1,1.9,1.5,2.9c0.5,1.9,1,3.8,1.5,5.7c0,0.1,0,0.3,0,0.4c0,0,0,0,0,0c0,0.2,0,0.3,0,0.5
			c-0.1-0.4-0.3-0.8-0.4-1.2c-0.8-3.5-1.9-6.9-4-9.9c-0.1-0.1-0.1-0.3-0.2-0.4c0.2,0.1,0.4,0.3,0.6,0.4c0,0,0,0,0,0
			c0.1,0.2,0.3,0.5,0.4,0.7c0,0,0,0,0,0c0,0.1,0.1,0.2,0.1,0.3c0,0,0,0,0,0c0,0.1,0.1,0.2,0.1,0.3c0,0,0,0,0,0c0,0,0.1,0.1,0.1,0.1
			l0,0C275.7,35.4,275.8,35.5,275.9,35.6z"/>
		<path class="st4" d="M265.7,27.1c0.6,0.2,1.3,0.3,1.9,0.6c1,0.5,1.9,1.2,2.9,1.7c0.1,0.1,0.1,0.2,0.2,0.3
			c-0.7-0.4-1.4-0.9-2.2-1.3C267.6,28,266.6,27.6,265.7,27.1z"/>
		<path class="st14" d="M274.8,33.9c-0.2-0.1-0.4-0.3-0.6-0.4c0,0,0,0,0,0c-0.1-0.2-0.3-0.4-0.4-0.6c0,0-0.1-0.1-0.1-0.1
			c-0.1-0.1-0.1-0.2-0.2-0.3c-0.3-0.3-0.5-0.5-0.8-0.8c0-0.2-0.1-0.4-0.1-0.6c0,0,0,0,0,0c0,0,0.1,0,0.1,0c0.3,0.3,0.7,0.7,1,1
			C274.1,32.8,274.5,33.4,274.8,33.9z"/>
		<path class="st3" d="M279.1,45.6c0,0.6,0.1,1.1,0.1,1.7c0,0,0,0,0,0c0,0-0.1,0-0.1,0c0-0.1,0-0.3,0-0.4c0-0.2-0.1-0.4-0.1-0.6
			c0-0.1,0-0.3,0-0.4c0-0.2,0-0.3,0-0.5C279,45.5,279.1,45.5,279.1,45.6z"/>
		<path class="st4" d="M272.6,31.2c0,0.2,0.1,0.4,0.1,0.6c-0.2-0.2-0.5-0.5-0.7-0.7C272.2,31.1,272.4,31.1,272.6,31.2z"/>
		<path class="st4" d="M273.9,33c0.1,0.2,0.3,0.4,0.4,0.6C274.1,33.3,274,33.2,273.9,33z"/>
		<path class="st4" d="M279,45.4c0,0.2,0,0.3,0,0.5c0-0.2-0.1-0.4-0.1-0.6c0,0,0.1,0,0.1,0C279,45.4,279,45.4,279,45.4z"/>
		<path class="st4" d="M279.1,47.3c0,0,0.1,0,0.1,0c0,0.2,0,0.4,0,0.6C279.2,47.6,279.2,47.4,279.1,47.3z"/>
		<path class="st4" d="M279,46.3c0,0.2,0.1,0.4,0.1,0.6C279.1,46.7,279,46.5,279,46.3z"/>
		<path class="st4" d="M270.8,29.9c0.2,0.1,0.4,0.3,0.6,0.4C271.2,30.2,271,30.1,270.8,29.9z"/>
		<path class="st3" d="M279,45.3c0,0-0.1,0-0.1,0c0-0.1,0-0.2,0-0.2c0-0.2,0-0.3,0-0.5C278.9,44.9,278.9,45.1,279,45.3z"/>
		<path class="st4" d="M273.5,32.5c0.1,0.1,0.1,0.2,0.2,0.3C273.7,32.7,273.6,32.6,273.5,32.5z"/>
		<path class="st10" d="M259,25.5c-3.8,0-7.7,0-11.5,0c-0.3,0-0.5,0-0.8,0.1c-0.1-0.1-0.1-0.2-0.2-0.3c1.3,0,2.5,0,3.8,0
			c2.7,0,5.4,0,8.1,0c0.3,0,0.5,0,0.8,0C259.1,25.3,259.1,25.4,259,25.5z"/>
		<path class="st19" d="M272.7,31.2c0,0-0.1,0-0.1,0c0-0.1,0-0.2,0-0.3c0.2,0,0.3,0,0.5,0C272.9,31,272.8,31.1,272.7,31.2z"/>
		<path class="st3" d="M278.9,44.6c0-0.1,0-0.3,0-0.4C278.9,44.3,278.9,44.5,278.9,44.6z"/>
		<path class="st14" d="M275.3,34.6c-0.1-0.2-0.3-0.5-0.4-0.7C275,34.2,275.1,34.4,275.3,34.6z"/>
		<path class="st23" d="M275.9,37.2c0-0.1-0.1-0.2-0.1-0.3C275.8,37.1,275.8,37.2,275.9,37.2z"/>
		<path class="st23" d="M276.4,37.9c-0.1-0.1-0.1-0.2-0.2-0.3C276.2,37.8,276.3,37.8,276.4,37.9z"/>
		<path class="st23" d="M276,37.5c0-0.1-0.1-0.2-0.1-0.3C275.9,37.3,276,37.4,276,37.5z"/>
		<path class="st23" d="M276.2,37.7c0,0-0.1-0.1-0.1-0.1C276.1,37.6,276.1,37.6,276.2,37.7z"/>
	</g>
	<g>
		<path class="st24" d="M273.7,13.7c0.1,0,0.3,0.1,0.4,0.1c2.9,0.3,5.9,0.5,8.8,0.8c4.4,0.4,8.7,1.6,12.9,2.9
			c3.7,1.2,7.2,2.8,10.4,5c1.8,1.2,3.5,2.6,5.1,4.1c3.1,2.8,5.4,6.2,7.2,9.9c1.6,3.4,2.7,6.9,3.3,10.6c0.3,1.9,0.5,3.8,0.7,5.7
			c-0.9,0.6-1,0.9-0.8,2.2c0.3,0.1,0.5,0.2,0.7,0.3c-0.6,0.2-0.7,0.5-0.7,1c0,0.8,0,1.6,0,2.3c-0.1,1.8-0.3,3.6-0.4,5.3
			c-0.1,0.8-0.2,1.7-0.4,2.5c-0.7,2.5-1.4,5-2.1,7.5c-0.2,0.7-0.5,1.4-0.7,2.1c0,0,0,0.1,0,0.1c-0.1,0.1-0.2,0.2-0.2,0.3
			c-0.2,0.5-0.4,0.9-0.6,1.4c-0.2,0.3-0.3,0.6-0.5,0.9c-0.1,0.1-0.1,0.3-0.2,0.4c-0.1,0.2-0.3,0.4-0.4,0.6c0,0,0,0.1,0,0.1
			c-0.1,0.1-0.2,0.2-0.2,0.3c-1.5,2.4-3.3,4.6-5.4,6.5c-0.5,0.5-1,0.9-1.5,1.3c0-2.6-1.8-3.8-3.7-4.1c-0.9-0.1-1.9,0-2.7,0.2
			c-2.7,0.5-5,1.9-7.2,3.4c-4.7,3.1-8.7,6.9-12.6,10.9c-0.3,0.3-0.6,0.6-1,0.9c-2.1,0.2-4.2,0.5-6.3,0.7c-2.7,0.3-5.5,0.5-8.2,0.7
			c-2.5,0.1-5.1,0.1-7.6,0.2c-1.8,0-3.6,0-5.4,0c-2.4,0-4.7,0-7.1,0c-0.6,0-1,0.1-1,0.8c0,0.3,0,0.6,0,1c0,10.9,0,21.8,0,32.8
			c-1.4,0.7-2.8,1.4-4.2,2.2c0-0.5,0.1-1,0.1-1.4c0-1.4-1.2-2.2-2.5-1.5c-0.3,0.2-0.7,0.4-0.9,0.7c-1.4,1.5-2.1,3.3-2.4,5.3
			c0,0.3-0.3,0.7-0.5,0.9c-1.2,0.9-2.5,1.7-3.8,2.6c-0.9,0.6-1,0.7-0.7,1.9c1.5-1,3.1-2,4.6-3c0.1,0,0.1,0.1,0.2,0.1
			c0,0.6,0,1.2,0,1.8c0,0.4-0.1,0.9-0.3,1.2c-2.7,4.4-5.5,8.7-8.3,13c-0.5,0.8-1.1,1.6-1.7,2.3c-0.2,0-0.5,0-0.7,0
			c-6.8,0-13.6,0-20.4,0c0-0.1,0-0.1,0-0.2c0-48.7,0-97.3,0-146c0-0.6-0.3-0.9-0.7-1.2c0-0.1,0-0.3,0-0.4
			C227.2,13.7,250.4,13.7,273.7,13.7z M274,33.2c-0.1-0.1-0.2-0.2-0.3-0.3c-0.2-0.2-0.3-0.5-0.6-0.7c-1.6-1.6-3.5-2.8-5.5-3.7
			c-2.6-1.2-5.4-1.8-8.3-1.9c-4-0.1-8,0-12,0c-0.7,0-1.1,0.2-1.1,0.9c0,0.3,0,0.5,0,0.8c0,19.5,0,39.1,0,58.6c0,0.2,0,0.5,0,0.8
			c0.3,0,0.6,0,0.8,0c0.1,0,0.2,0,0.3,0.1c3.5-0.1,6.9-0.2,10.4-0.2c2.9,0,5.7-0.5,8.4-1.6c2.4-0.9,4.6-2.4,6.3-4.2
			c1.2-1.2,2.2-2.7,3.1-4.1c1.4-2.2,2.3-4.5,2.9-7c0.8-3.2,1.4-6.5,1.5-9.8c0,0,0.1-0.1,0.1-0.1c0.3,0,0.5,0,0.8-0.1
			c0-2.8,0-5.6,0-8.3c0-0.1-0.1-0.2-0.1-0.2c0-0.5,0-0.9,0-1.4c0-0.1-0.1-0.2-0.1-0.2c-0.1-0.9-0.2-1.9-0.3-2.8c0-2-0.6-3.8-1.2-5.6
			c-0.2-0.6-0.5-1.1-0.7-1.6c-0.6-1.4-1.1-2.7-1.8-4c-0.5-0.9-1.3-1.8-1.9-2.6C274.4,33.7,274.2,33.4,274,33.2z"/>
		<path class="st25" d="M2.1,13.7c14.6,0,29.2,0,43.8,0c0.2,0.8,0.3,1.5,0.5,2.3c1.2,4.6,2.4,9.2,3.6,13.9c0.6,2.3,1.2,4.6,1.8,6.9
			c0.6,2.4,1.3,4.9,1.9,7.3c1.2,4.6,2.4,9.2,3.6,13.8c0.7,2.9,1.5,5.7,2.3,8.6c1.2,4.4,2.3,8.8,3.4,13.3c0.9,3.4,1.8,6.7,2.7,10.1
			c1,3.7,1.9,7.4,2.8,11.1c1.3,5,2.6,10,4,15c0.8,3.2,1.7,6.4,2.5,9.6c0.5-1.3,0.8-2.6,1.2-3.9c0.6-1.9,1.1-3.8,1.7-5.8
			c1.4-5,2.8-10,4.2-15.1c1.1-3.9,2.2-7.8,3.3-11.7c1.3-4.4,2.5-8.8,3.8-13.2c1.2-4.4,2.5-8.7,3.7-13.1c0.6-2.1,1.2-4.2,1.8-6.3
			c1.3-4.5,2.6-9,3.8-13.4c1.2-4.3,2.4-8.5,3.6-12.8c0.9-3.3,1.9-6.6,2.9-9.9c0.6-2.2,1.3-4.5,1.9-6.8c5.4,0,10.7,0,16.1,0
			c0,0.1,0,0.3,0,0.4l0,0c-0.8,0.2-1,0.8-1.2,1.5c-0.4,1.6-0.9,3.1-1.3,4.7c-0.6,2.1-1.2,4.1-1.8,6.2c-0.7,2.4-1.4,4.8-2.1,7.2
			c-0.5,1.9-1.1,3.8-1.7,5.7c-0.8,2.7-1.6,5.5-2.4,8.2c-1,3.6-2.1,7.2-3.1,10.7c-0.7,2.3-1.3,4.7-2,7c-0.5,1.9-1.1,3.8-1.7,5.7
			c-0.6,2-1.2,4.1-1.7,6.1c-0.7,2.4-1.4,4.8-2.1,7.1c-0.5,1.7-1.1,3.4-1.6,5.1c-0.7,2.5-1.4,5-2.1,7.5c-0.6,2.1-1.2,4.1-1.8,6.1
			c-1,3.3-2,6.6-2.9,9.9c-0.9,3.2-1.8,6.5-2.7,9.7c-0.6,2.1-1.2,4.2-1.8,6.3c-0.7,2.3-1.4,4.7-2,7c-0.6,2-1.2,4-1.7,6
			c-0.7,2.3-1.3,4.5-2,6.8c-0.7,2.4-1.4,4.8-2.1,7.3c-0.5,1.9-1.1,3.7-1.6,5.6c-12.5,0-25,0-37.4,0c0-0.2,0-0.4-0.1-0.5
			c-0.6-2.4-1.3-4.7-1.9-7.1c-0.5-1.8-0.9-3.7-1.4-5.5c-0.9-3.2-1.7-6.4-2.6-9.6c-0.5-1.7-0.9-3.4-1.3-5.1c-0.4-1.5-0.9-3.1-1.3-4.6
			c-0.8-3-1.5-6-2.3-8.9c-0.4-1.6-0.9-3.1-1.3-4.7c-0.8-3-1.5-6-2.3-9c-0.6-2.3-1.2-4.5-1.8-6.8c-0.3-1.2-0.7-2.4-1-3.7
			c-0.9-3.5-1.8-7-2.7-10.5c-0.6-2.3-1.2-4.6-1.8-6.9c-0.6-2.3-1.2-4.6-1.8-6.8c-0.7-2.6-1.4-5.1-2.1-7.7c-0.6-2.1-1.1-4.2-1.7-6.3
			C14,54.9,13.2,52,12.5,49c-0.5-1.8-0.9-3.7-1.4-5.5c-1.1-4-2.2-7.9-3.2-11.8c-0.9-3.4-1.8-6.8-2.7-10.2c-0.5-1.8-1-3.5-1.4-5.3
			c-0.2-0.9-0.5-1.8-1.5-2.2C2.2,13.9,2.2,13.8,2.1,13.7z"/>
		<path class="st24" d="M178,13.7c0,0.1,0,0.2,0,0.3c0,0,0,0,0,0c-0.5,0.3-0.8,0.7-0.8,1.4c0,48.7,0,97.4,0,146.2
			c-13.9,0-27.7,0-41.6,0c0-48.6,0-97.1,0-145.7c0-0.8-0.1-1.4-0.7-1.9c0-0.1,0-0.2,0-0.3C149.2,13.7,163.6,13.7,178,13.7z"/>
		<path class="st26" d="M203.9,13.7c0,0.1,0,0.3,0,0.4c0,49.1,0,98.2,0,147.3c0,0.2,0.1,0.4,0.1,0.7c0,0,0,0.1,0,0.1
			c0,0.1-0.1,0.1-0.1,0.2c0,0-0.1,0-0.1,0c0,0,0-0.1,0-0.1c0-49.3,0-98.6,0-148c0-0.2,0-0.4,0-0.6C203.8,13.7,203.9,13.7,203.9,13.7
			z"/>
		<path class="st27" d="M134.9,13.7c0,0.1,0,0.2,0,0.3c0,49.1,0,98.2,0,147.4c0,0.3,0,0.6,0,0.9c0,0,0,0.1,0,0.1c0,0-0.1,0-0.1,0
			c0-0.3,0-0.6,0-0.9c0-48.8,0-97.6,0-146.5c0-0.4,0-0.9,0-1.3C134.8,13.7,134.8,13.7,134.9,13.7z"/>
		<path class="st28" d="M2.1,13.7c0,0.1,0.1,0.2,0.1,0.3c0.5,1.9,1,3.8,1.5,5.7c0.5,2.1,1.1,4.2,1.6,6.3C6,28.3,6.6,30.6,7.3,33
			c0.5,2.1,1,4.1,1.6,6.2c0.4,1.6,0.9,3.2,1.3,4.7c0.2,0.8,0.4,1.6,0.5,2.4c-0.1-0.2-0.2-0.4-0.4-0.5c-0.6-2.4-1.2-4.7-1.9-7.1
			c-0.9-3.4-1.8-6.8-2.8-10.3c-1-3.6-1.9-7.3-2.9-11c-0.3-1.2-0.6-2.5-0.9-3.7C2,13.7,2.1,13.7,2.1,13.7z"/>
		<path class="st28" d="M123.5,13.7c-0.2,1.1-0.4,2.2-0.7,3.3c-1.1,3.9-2.3,7.8-3.4,11.7c-0.1,0.2-0.2,0.4-0.3,0.5
			c0.1-0.4,0.1-0.9,0.2-1.3c0.4-1.3,0.8-2.7,1.2-4c0.6-2.1,1.2-4.1,1.8-6.2c0.3-1.2,0.6-2.4,0.9-3.6c0,0,0,0,0,0
			c0-0.1,0.1-0.3,0.1-0.4C123.4,13.7,123.4,13.7,123.5,13.7z"/>
		<path class="st29" d="M123.3,13.7c0,0.1-0.1,0.3-0.1,0.4c0-0.1,0-0.3,0-0.4C123.3,13.7,123.3,13.7,123.3,13.7z"/>
		<path class="st30" d="M281.4,96.9c0.3-0.3,0.7-0.6,1-0.9c3.9-4,7.9-7.8,12.6-10.9c2.2-1.5,4.6-2.8,7.2-3.4
			c0.9-0.2,1.8-0.3,2.7-0.2c1.8,0.2,3.7,1.5,3.7,4.1c0,0.4,0,0.8,0,1.3c0,0.1,0,0.2,0,0.4c-2,6.7-6.8,11.3-11.8,15.8
			c-8.2,7.5-17.5,13.6-27.1,19c-3.4,1.9-6.8,3.7-10.3,5.5c-0.3,0.1-0.6,0.3-0.8,0.6c-4,4.7-7.9,9.5-11.9,14.3c0,0,0,0.1-0.1,0.1
			c-0.3,0.4-0.6,0.8-1,1.2c-1.4,1.7-2.8,3.3-4.3,5.1c1.4,0.8,2.8,1.3,4.3,1.5c0.3,0,0.7,0.1,1,0.1c4.9,0.3,9.2-1.1,13-4.3
			c1.6-1.3,3.2-2.7,4.6-4.2c4.7-5.2,10.7-8.2,17.5-9.7c2.4-0.5,4.8-0.8,7.2-0.4c2.1,0.3,3.2,1.9,2.8,4c-0.1,0.7-0.2,1.4-0.3,2.2
			c1.1-1.3,2.1-2.5,3.1-3.6c0-0.1,0.1-0.1,0.1-0.2c1-1.5,2.2-2.4,4.1-2.3c1.4,0.1,2.9-0.2,4.4-0.3c-0.2,0.3-0.3,0.5-0.5,0.6
			c-5,5.8-10,11.6-15,17.5c-1.9,2.2-3.6,4.5-5.3,6.8c-0.3,0.5-0.6,1-0.8,1.5c-0.1,0.4-0.1,1,0.1,1.4c0.3,0.5,0.9,0.5,1.4,0.3
			c1.2-0.5,2.5-0.9,3.7-1.5c3.7-2.1,7.1-4.8,10.4-7.5c3.1-2.5,6.1-5,9.1-7.5c2.8-2.3,5.4-4.8,8.3-7c1.9-1.5,4.1-2.7,6.2-3.9
			c0.9-0.5,2-0.7,3-0.8c1.7-0.1,2.6,0.8,2.8,2.4c0.3,2.4-0.3,4.5-1.6,6.4c-1.9,2.7-3.9,5.4-5.9,8.1c-0.1,0.1-0.2,0.3-0.3,0.5
			c0,0.1,0,0.1,0,0.2c0.1,0,0.1,0,0.2-0.1c3.6-2.8,7.1-5.7,10.7-8.4c3.5-2.6,7-5.2,11-7.1c2.3-1.1,4.7-1.9,7.3-2
			c1.8,0,2.7,0.7,3,2.6c0.4,2.9-0.5,5.5-2,7.9c-1.7,2.6-3.9,4.7-6.3,6.7c-2.1,1.7-4.2,3.3-6.2,5c-0.9,0.7-1.6,1.7-2.3,2.6
			c-0.5,0.7-0.8,1.5-0.2,2.3c0.6,0.8,1.3,1.4,2.4,1.3c1.1-0.2,2.3-0.5,3.3-0.9c3-1.3,5.6-3.2,8.1-5.3c4.8-3.9,9.3-8.1,14.1-11.9
			c1.3-1.1,2.8-2,4.1-3.2c3.8-3.2,7.6-6.5,11.3-9.8c1.3-1.2,2.4-2.8,3.6-4.1c0.6-0.7,1.2-1.4,1.8-2c0.7-0.7,1.7-0.6,2.3,0
			c0.5,0.6,0.5,1.5-0.2,2.1c-1,0.9-2.2,1.6-3.3,2.4c-0.2,0.1-0.3,0.2-0.6,0.4c4,5.7,6.2,11.7,4.5,18.7c2.4,0.6,4.7,0.6,6.7-0.8
			c1.6-1.1,3-2.4,4.5-3.6c0.2-0.2,0.4-0.4,0.7-0.7c0.1,0.8,0.1,1.4-0.4,1.9c-0.9,0.9-1.8,1.9-2.7,2.7c-2.4,2.1-5.2,2.6-8.3,1.9
			c-0.3-0.1-0.6-0.1-0.8-0.2c-0.9,1.3-1.6,2.6-2.6,3.8c-2.4,3-5.5,5-8.9,6.6c-4,1.9-8.1,3.2-12.6,3.1c-1.5,0-3-0.3-4.3-1.1
			c-1.9-1.1-2.7-2.9-2.1-5.1c0.5-1.9,2-3.1,4.1-3.1c0.9,0,1.8,0.1,2.5,0.6c1.4,1,1.6,2.9,0.3,4c-0.4,0.3-0.8,0.6-1.2,0.7
			c-1.3,0.5-2.2,0.1-2.8-1.1c-0.2-0.3-0.3-0.7-0.5-1.1c-1.1,0.4-1.4,2.1-0.6,3c1,1.1,2.2,1.7,3.7,1.9c2.9,0.5,5.6-0.4,8-1.9
			c6.9-4.3,11.4-10.4,13.3-18.3c0.9-3.8,0.2-7.4-1.8-10.7c-0.1-0.1-0.1-0.2-0.2-0.3c-1.2,1-2.4,2-3.5,3c-4.8,4.1-9.5,8.2-14.4,12.3
			c-4.2,3.6-8.4,7.2-12.8,10.7c-2.7,2.2-5.6,4.2-8.8,5.5c-0.9,0.4-2,0.7-3,0.9c-2.8,0.5-4.5-0.9-4.6-4c-0.1-2,0.7-3.8,1.6-5.6
			c1.9-3.4,4.5-6.2,7.4-8.8c2.3-2.1,4.5-4.5,6.7-6.7c0.4-0.4,0.7-1,1-1.6c0.3-0.7,0-1.1-0.7-1.3c-1.1-0.3-2.2-0.1-3.2,0.2
			c-2.8,0.8-5.2,2.2-7.6,3.7c-6.4,4.1-12.4,8.7-18.1,13.6c-3.5,3-6.9,6.1-10.3,9.2c-0.4,0.3-0.7,0.5-1.2,0.5c-1.8,0-3.6,0-5.6,0
			c0.1-0.2,0.2-0.3,0.4-0.5c5.8-6.6,11.6-13.2,17.4-19.8c1.5-1.8,2.9-3.6,4.3-5.5c0.3-0.4,0.7-0.9,0.3-1.4c-0.4-0.5-1-0.4-1.5-0.2
			c-1.1,0.5-2.3,0.9-3.3,1.5c-3.8,2.3-7.2,5-10.5,7.9c-6.1,5.5-12.5,10.6-19,15.5c-2.1,1.5-4.3,2.7-6.9,3.2
			c-2.6,0.4-3.6-0.5-3.5-3.1c0.1-2.1,0.8-4.1,1.6-6.1c0.1-0.2,0.2-0.5,0.3-0.7c0-0.1,0-0.2,0-0.3c-0.1,0-0.1,0.1-0.2,0.1
			c-1.5,1.3-3,2.6-4.5,3.8c-2.7,2.2-5.5,4.3-8.8,5.6c-1.4,0.6-2.8,0.9-4.3,0.7c-2.3-0.4-3.9-2.2-4.4-4.8c-0.6-2.9-0.2-5.6,0.9-8.3
			c0.1-0.2,0.2-0.4,0.3-0.6c0-0.1,0-0.1,0-0.2c-0.1,0-0.1,0-0.2,0c-1.6,1-3.2,2.1-4.9,2.9c-2.3,1.1-4.9,1.4-7.5,1.4
			c-0.5,0-0.9,0-1.4,0c-0.3,0-0.7-0.1-1-0.1c-1.5-0.4-3.1-0.8-4.6-1.3c-0.4-0.1-0.7-0.1-1,0.3c-0.6,0.7-1.2,1.4-1.8,2.1
			c-1.9,2.3-3.7,4.5-5.6,6.8c-0.2,0.3-0.5,0.6-0.7,0.8c-0.1,0.1-0.2,0.3-0.3,0.4c-0.1,0.1-0.2,0.2-0.2,0.2c-2.5,3-5,5.9-7.5,8.9
			c-7.4,8.9-14.9,17.8-22.3,26.6c-0.2,0.2-0.5,0.4-0.7,0.4c-2,0-4,0-6.1,0c0.3-0.3,0.5-0.6,0.7-0.8c5.4-6.3,11-12.4,16.2-18.8
			c4.3-5.2,8.2-10.7,12.3-16.1c0.1-0.1,0.2-0.3,0.2-0.4c0.1-0.1,0.1-0.1,0.2-0.2c0,0,0.1-0.1,0.1-0.1c0,0,0-0.1,0-0.1
			c0.1-0.1,0.1-0.1,0.2-0.2c0.1-0.2,0.3-0.4,0.4-0.6c0.6-0.8,1.2-1.5,1.7-2.3c2.8-4.3,5.5-8.7,8.3-13c0.2-0.3,0.2-0.8,0.3-1.2
			c0-0.6,0-1.2,0-1.8c-0.1,0-0.1-0.1-0.2-0.1c-1.5,1-3,2-4.6,3c-0.2-1.2-0.2-1.3,0.7-1.9c1.3-0.8,2.5-1.7,3.8-2.6
			c0.3-0.2,0.5-0.6,0.5-0.9c0.3-2,1-3.8,2.4-5.3c0.3-0.3,0.6-0.5,0.9-0.7c1.3-0.6,2.5,0.1,2.5,1.5c0,0.4,0,0.9-0.1,1.4
			c1.5-0.7,2.8-1.5,4.2-2.2c0.3-0.2,0.6-0.3,1-0.5c2-1,4.1-2,6.1-3.1c0.3-0.2,0.7-0.4,0.9-0.7c8.8-10.1,17.5-20.1,26.2-30.2
			c0.2-0.2,0.4-0.4,0.5-0.6C280.8,97.6,281.1,97.2,281.4,96.9z M246.7,136.6c1.4-1.6,2.8-3.3,4.2-4.9c-0.1-0.1-0.1-0.1-0.2-0.2
			c-1.4,0.7-2.7,1.5-4.1,2.2c-0.3,0.2-0.6,0.3-0.9,0.5c-1.4,0.8-2.8,1.5-4.3,2.3c-0.1,0.1-0.2,0.2-0.3,0.4c-0.5,1-1,2-1.5,3
			c-0.7,1.1-1.5,2.1-2.2,3.2c-0.2,0.3-0.3,0.9-0.2,1.3c0.3,0.7,0.8,1.3,1.2,2c1.4-1.6,2.7-3.2,3.9-4.7c1.1-1.3,2.2-2.6,3.3-4
			C246.1,137.3,246.4,137,246.7,136.6z M306.6,89.1c0-0.1,0.1-0.1,0.1-0.2c0.1-0.3,0.2-0.5,0.3-0.8c0.1-0.4,0.2-0.8,0.3-1.3
			c0.6-2.3-0.6-4-2.8-4.1c-2.1-0.1-4,0.7-5.8,1.8c-4.9,2.9-8.6,7.1-12.4,11.2l0,0c0,0-0.1,0.1-0.1,0.1c-0.3,0.4-0.6,0.7-1,1.1
			c-0.2,0.2-0.4,0.4-0.7,0.6c-5.7,6.7-11.5,13.4-17.2,20.1c-2,2.4-4,4.9-6,7.3c0,0-0.1,0.1-0.1,0.1c0.1,0,0.1,0,0.2-0.1
			c0.2-0.1,0.4-0.1,0.6-0.2c6-3.1,11.8-6.4,17.4-10.1c6.9-4.6,13.5-9.5,19.5-15.3c2.7-2.7,5.2-5.5,7.2-8.8
			C306.2,90.2,306.4,89.7,306.6,89.1C306.6,89.1,306.6,89.1,306.6,89.1z M226.8,159c-0.2,0.4-0.4,0.8-0.7,1.2c0.1,0,0.1,0.1,0.2,0.1
			c0.3-0.4,0.6-0.8,0.9-1.2c1.4-1.6,2.8-3.2,4.2-4.8c1.9-2.2,3.8-4.4,5.7-6.6c0.1-0.2,0.3-0.5,0.2-0.6c-0.4-0.8-0.9-1.6-1.4-2.6
			C232.9,149.6,229.9,154.3,226.8,159z M261.8,156.4c0,2.5,1.5,3.7,3.5,3.4c1.7-0.3,3.3-1,4.8-1.9c4.1-2.4,7.8-5.4,11.2-8.7
			c2.8-2.7,5.4-5.5,7.5-8.8c0.8-1.3,1.5-2.7,1.8-4.3c0.3-2-0.8-3.3-2.8-3.4c-0.4,0-0.8,0-1.2,0.1c-2.6,0.3-4.9,1.3-7.1,2.8
			c-4.1,2.7-7.6,6.1-10.8,9.8c-2.2,2.7-4.3,5.4-5.8,8.6C262.2,154.9,262,155.9,261.8,156.4z"/>
		<path class="st29" d="M123.2,14.1c-0.3,1.2-0.6,2.4-0.9,3.6c-0.6,2.1-1.2,4.1-1.8,6.2c-0.4,1.3-0.8,2.7-1.2,4
			c-0.1,0.4-0.1,0.9-0.2,1.3c0,0.1,0,0.2,0,0.2c-0.2,0.6-0.5,1.1-0.7,1.7c-1,3.4-1.9,6.8-2.9,10.1c-1.1,3.8-2.2,7.5-3.3,11.3
			c-0.2,0.8-0.4,1.6-0.6,2.4c-0.2,0.6-0.3,1.2-0.5,1.9c-0.4,1.1-0.8,2.1-1.1,3.2c-0.8,2.6-1.5,5.2-2.2,7.7c-0.6,2-1.4,4-1.6,6.1
			c0,0.2-0.1,0.3-0.1,0.5c-0.2,0.3-0.4,0.7-0.5,1c-0.6,2.2-1.3,4.3-1.9,6.5c-0.9,3.2-1.9,6.4-2.8,9.5c-0.1,0.5-0.2,1-0.2,1.5
			c0,0.1,0,0.2,0,0.2c-0.2,0.6-0.5,1.1-0.7,1.7c-0.4,1.3-0.7,2.6-1,3.9c-0.7,2.3-1.4,4.6-2.1,6.9c-0.8,2.8-1.6,5.5-2.4,8.3
			c-0.4,1.5-1.1,2.9-1.1,4.5c0,0.1,0,0.1-0.1,0.2c-0.1,0.4-0.2,0.8-0.3,1.2c0,0.1-0.1,0.1-0.1,0.2c-0.1,0.1-0.2,0.2-0.2,0.3
			c-0.4,1.2-0.8,2.3-1.1,3.5c-0.4,1.3-0.5,2.7-1,3.9c-0.5,1.2-0.9,2.4-0.9,3.7c0,0,0,0,0,0c-0.1,0.2-0.3,0.3-0.3,0.5
			c-0.4,1.1-0.7,2.3-1,3.5c-0.2,0.8-0.4,1.6-0.6,2.4c-0.2,0.7-0.4,1.5-0.6,2.2c-0.3,0.9-0.7,1.7-1,2.6c-0.2,0.8-0.3,1.7-0.6,2.5
			c-0.5,1.6-1,3.1-1.5,4.7c-0.1,0.3-0.1,0.6-0.1,0.9c0,0.1,0,0.2,0,0.2c-0.2,0.4-0.4,0.7-0.5,1.1c-0.5,1.7-1,3.5-1.5,5.3
			c-0.5,1.6-1,3.3-1.4,4.9c0,0-0.1,0-0.1,0c0,0,0-0.1,0-0.1c-0.2-0.2-0.4-0.5-0.6-0.7c0.5-1.9,1.1-3.7,1.6-5.6
			c0.7-2.4,1.4-4.8,2.1-7.3c0.7-2.3,1.3-4.5,2-6.8c0.6-2,1.2-4,1.7-6c0.7-2.3,1.4-4.7,2-7c0.6-2.1,1.2-4.2,1.8-6.3
			c0.9-3.2,1.8-6.5,2.7-9.7c1-3.3,1.9-6.6,2.9-9.9c0.6-2,1.2-4.1,1.8-6.1c0.7-2.5,1.4-5,2.1-7.5c0.5-1.7,1.1-3.4,1.6-5.1
			c0.7-2.4,1.4-4.8,2.1-7.1c0.6-2,1.2-4.1,1.7-6.1c0.5-1.9,1.1-3.8,1.7-5.7c0.7-2.3,1.4-4.7,2-7c1-3.6,2-7.2,3.1-10.7
			c0.8-2.7,1.6-5.5,2.4-8.2c0.6-1.9,1.1-3.8,1.7-5.7c0.7-2.4,1.4-4.8,2.1-7.2c0.6-2.1,1.2-4.1,1.8-6.2c0.5-1.6,0.9-3.1,1.3-4.7
			C122.2,14.9,122.4,14.3,123.2,14.1z"/>
		<path class="st31" d="M10.7,46.3c-0.2-0.8-0.3-1.6-0.5-2.4c-0.4-1.6-0.9-3.1-1.3-4.7c-0.5-2-1-4.1-1.6-6.2
			c-0.6-2.4-1.3-4.7-1.9-7.1c-0.6-2.1-1.1-4.2-1.6-6.3c-0.5-1.9-1-3.8-1.5-5.7c1.1,0.3,1.3,1.2,1.5,2.2c0.4,1.8,0.9,3.6,1.4,5.3
			c0.9,3.4,1.7,6.8,2.7,10.2c1.1,4,2.1,7.9,3.2,11.8c0.5,1.8,1,3.7,1.4,5.5c0.8,2.9,1.5,5.9,2.3,8.8c0.6,2.1,1.1,4.2,1.7,6.3
			c0.7,2.6,1.4,5.1,2.1,7.7c0.6,2.3,1.2,4.6,1.8,6.8c0.6,2.3,1.2,4.6,1.8,6.9c0.9,3.5,1.8,7,2.7,10.5c0.3,1.2,0.7,2.4,1,3.7
			c0.6,2.3,1.2,4.5,1.8,6.8c0.8,3,1.5,6,2.3,9c0.4,1.6,0.9,3.1,1.3,4.7c0.8,3,1.5,6,2.3,8.9c0.4,1.5,0.8,3.1,1.3,4.6
			c0.5,1.7,0.9,3.4,1.3,5.1c0.9,3.2,1.7,6.4,2.6,9.6c0.5,1.8,1,3.7,1.4,5.5c0.6,2.4,1.3,4.7,1.9,7.1c0,0.2,0,0.4,0.1,0.5
			c-0.1,0-0.2,0.1-0.3,0.1c-0.2,0-0.4,0-0.5,0c-0.5-1.8-0.9-3.5-1.4-5.3c-0.4-1.4-0.8-2.9-1.2-4.3c-0.1-0.1-0.2-0.3-0.2-0.4
			c0,0,0-0.1,0-0.1c0-0.3,0-0.7,0-1c0,0,0-0.1,0-0.1c0-0.1-0.1-0.2-0.1-0.3c0-0.1,0-0.2,0-0.3c-0.4-1.4-0.8-2.9-1.2-4.3
			c-0.7-2.6-1.5-5.2-2.2-7.7c0-0.1,0-0.1,0-0.2c0-0.3,0-0.6,0-0.9c-0.6-2.5-1.3-4.9-1.9-7.4c-0.6-2.2-1.2-4.4-1.8-6.6
			c-0.7-2.5-1.3-4.9-2-7.4c-0.6-2.3-1.2-4.6-1.8-6.9c-0.6-2.1-1.1-4.3-1.7-6.4c-0.6-2.4-1.3-4.8-1.9-7.2c-0.5-1.7-0.9-3.4-1.4-5.1
			c-0.1-0.2-0.2-0.4-0.3-0.6c0-0.1,0-0.1,0-0.2c-0.1-0.7-0.2-1.4-0.3-2.1c-0.4-1.5-0.8-3-1.3-4.5c-0.1-0.2-0.2-0.3-0.4-0.5
			c0,0,0-0.1,0-0.1c0-0.4,0.1-0.9,0-1.3c-0.8-3.2-1.7-6.4-2.6-9.5c-0.4-1.2-0.8-2.5-1.2-3.7c0-0.1,0-0.1,0-0.2c0-0.2,0.1-0.5,0-0.7
			c-0.3-1.1-0.6-2.2-0.9-3.3c0,0,0-0.1,0-0.1c0-0.1-0.1-0.2-0.1-0.3c-0.3-1.2-0.6-2.3-0.8-3.5c0-0.1-0.1-0.2-0.1-0.3
			c0,0,0-0.1,0-0.1c-0.2-0.6-0.4-1.1-0.5-1.7l0,0c-0.1-0.3-0.2-0.6-0.3-1l0,0c0-0.1,0-0.3,0-0.4c0,0-0.1-0.1-0.1-0.1
			c0-0.1,0-0.3,0-0.4c0,0-0.1-0.1-0.1-0.1c0-0.1-0.1-0.3-0.1-0.4l0,0c0-0.1-0.1-0.3-0.1-0.4C12.1,51.6,11.4,48.9,10.7,46.3z"/>
		<path class="st32" d="M178,14c0,0.3,0.1,0.7,0.1,1c0,22.7,0,45.4,0,68.1c0,26.2,0,52.3,0,78.5c0,0.3-0.1,0.6-0.1,0.9c0,0,0,0,0,0
			c0,0,0-0.1,0-0.1c0-0.3,0-0.7,0-1c0-48.7,0-97.5,0-146.2C178,14.7,178,14.3,178,14C178,14,178,14,178,14z"/>
		<path class="st33" d="M203.8,14.2c0,49.3,0,98.6,0,148c0-0.2-0.1-0.5-0.1-0.7c0-48.8,0-97.7,0-146.5
			C203.7,14.7,203.7,14.5,203.8,14.2z"/>
		<path class="st28" d="M22,89.3c0.1,0.2,0.3,0.4,0.3,0.6c0.5,1.7,1,3.4,1.4,5.1c0.6,2.4,1.3,4.8,1.9,7.2c0.6,2.1,1.1,4.3,1.7,6.4
			c0.6,2.3,1.2,4.6,1.8,6.9c0.7,2.5,1.3,4.9,2,7.4c0.6,2.2,1.2,4.4,1.8,6.6c0.6,2.4,1.3,4.9,1.9,7.4c0.1,0.3,0,0.6,0,0.9
			c-0.3-0.8-0.6-1.6-0.8-2.4c-1.8-6.7-3.5-13.5-5.3-20.2c-1.3-5-2.7-10-4-15c-0.9-3.4-1.8-6.8-2.7-10.2C22,89.7,22,89.5,22,89.3z"/>
		<path class="st28" d="M106.1,74c0.2-2.1,1-4.1,1.6-6.1c0.7-2.6,1.4-5.2,2.2-7.7c0.3-1.1,0.8-2.2,1.1-3.2c0.2-0.6,0.3-1.2,0.5-1.9
			c0.2-0.8,0.4-1.6,0.6-2.4c1.1-3.8,2.2-7.5,3.3-11.3c1-3.4,1.9-6.8,2.9-10.1c0.2-0.6,0.4-1.1,0.7-1.7c-0.2,0.7-0.3,1.5-0.5,2.2
			c-1.1,3.8-2.2,7.5-3.3,11.3c-1.6,5.4-3.1,10.9-4.7,16.3c-1,3.5-2.1,7.1-3.1,10.6c-0.3,1.2-0.7,2.3-1,3.5
			C106.3,73.7,106.2,73.8,106.1,74z"/>
		<path class="st34" d="M80.2,162.8c-0.3,0-0.6,0-0.9,0c-12.5,0-25,0-37.5,0c0-0.1-0.1-0.2-0.1-0.3c0,0,0.1-0.1,0.1-0.1
			c0.2,0,0.4,0,0.6,0c12.3,0,24.7,0,37,0c0.2,0,0.4,0,0.6,0c0.1,0,0.1,0.1,0.2,0.1C80.2,162.6,80.2,162.7,80.2,162.8z"/>
		<path class="st35" d="M246.2,153.7c0.3,0,0.7,0.1,1,0.1c0,2.8,0,5.7,0,8.5c0,0.4,0,0.8-0.6,0.8c-4.8,0-9.7,0-14.5,0
			c0.1-0.1,0.2-0.2,0.2-0.2c4.7,0,9.4,0,14.2,0c0.2,0,0.4-0.2,0.6-0.3c-0.3-0.3-0.5-0.6-0.8-1C246.2,158.9,246.2,156.3,246.2,153.7z
			"/>
		<path class="st32" d="M178,162.6c-0.1,0.1-0.1,0.3-0.3,0.3c-0.2,0.1-0.5,0-0.7,0c-13.8,0-27.6,0-41.3,0c-0.3,0-0.5-0.1-0.8-0.2
			c0,0,0-0.1,0-0.1c0.2,0,0.4,0,0.6,0c13.9,0,27.8,0,41.6,0c0.2,0,0.4-0.1,0.7-0.1C177.9,162.6,178,162.6,178,162.6z"/>
		<path class="st36" d="M321.4,64c0.1-1.8,0.3-3.6,0.4-5.3c0-0.8,0-1.6,0-2.3c0-0.5,0.1-0.8,0.7-1c-0.2-0.1-0.5-0.2-0.7-0.3
			c-0.3-1.4-0.2-1.6,0.8-2.2c0,0.1,0.1,0.3,0.1,0.4c0,0.2,0,0.5,0,0.7c-0.1,3.5-0.3,7-0.4,10.4C321.9,64.2,321.7,64.1,321.4,64z"/>
		<path class="st28" d="M93.3,118.5c0-1.6,0.7-3,1.1-4.5c0.8-2.8,1.6-5.5,2.4-8.3c0.7-2.3,1.4-4.6,2.1-6.9c0.4-1.3,0.7-2.6,1-3.9
			c0.2-0.6,0.5-1.1,0.7-1.7c-0.2,0.7-0.3,1.5-0.5,2.2c-1.1,3.9-2.3,7.9-3.5,11.8c-1.1,3.6-2.1,7.2-3.1,10.8
			C93.4,118.2,93.3,118.3,93.3,118.5z"/>
		<path class="st37" d="M225,162.6c-0.1,0.1-0.1,0.1-0.2,0.2c-6.7,0-13.4,0-20.2,0c-0.3,0-0.6-0.2-0.9-0.3c0.1,0,0.2-0.1,0.4-0.1
			c7,0,14,0,20.9,0c0,0,0,0.1,0,0.1C225.1,162.5,225,162.6,225,162.6z"/>
		<path class="st33" d="M322.2,64.3c0.1-3.5,0.3-7,0.4-10.4c0-0.2,0-0.5,0-0.7c0,2.2,0.1,4.5,0.1,6.7c0,0.9-0.1,1.9-0.2,2.8
			c-0.2,2.9-0.7,5.8-1.5,8.7c-0.7,2.8-1.8,5.4-3.2,7.9c-0.3,0.5-0.7,1-1,1.5c0.1-0.2,0.1-0.4,0.2-0.7c0,0,0,0,0,0
			c0.1-0.1,0.2-0.3,0.3-0.4c0,0,0,0,0,0c0.1-0.1,0.1-0.2,0.2-0.3c0.1-0.2,0.2-0.5,0.4-0.7c0-0.1,0.1-0.2,0.1-0.3l0,0
			c0.2-0.5,0.5-1,0.7-1.5l0,0c0-0.1,0.1-0.2,0.1-0.3c0,0,0,0,0,0c0.1-0.4,0.3-0.7,0.4-1.1c0,0,0.1-0.1,0.1-0.1
			c0.4-1.2,0.8-2.3,1.3-3.5c0.1-0.3,0.1-0.5,0.2-0.8c0.2-0.8,0.4-1.6,0.5-2.4C321.7,67.2,321.9,65.8,322.2,64.3z"/>
		<path class="st28" d="M100.6,92.9c0.1-0.5,0.1-1,0.2-1.5c0.9-3.2,1.9-6.4,2.8-9.5c0.6-2.2,1.3-4.3,1.9-6.5c0.1-0.3,0.3-0.7,0.5-1
			c-0.1,0.7-0.2,1.3-0.4,2c-1.5,5.3-3.1,10.6-4.6,16C100.9,92.6,100.7,92.8,100.6,92.9z"/>
		<path class="st35" d="M246.2,146.1c0.3-0.4,0.6-0.8,1-1.2c0,2.6,0,5.2,0,7.9c-0.3,0-0.7-0.1-1-0.1
			C246.2,150.4,246.2,148.2,246.2,146.1z"/>
		<path class="st28" d="M16.2,67.4c0.4,1.2,0.8,2.5,1.2,3.7c0.9,3.2,1.7,6.3,2.6,9.5c0.1,0.4,0,0.9,0,1.3c-0.5-1.7-1-3.3-1.4-5
			c-0.8-2.9-1.5-5.8-2.3-8.7C16.3,67.9,16.2,67.7,16.2,67.4z"/>
		<path class="st28" d="M80.2,162.8c0-0.1,0-0.2,0-0.3c0-0.1,0.1-0.1,0.1-0.2c0.5-1.6,1-3.3,1.4-4.9c0.5-1.8,1-3.5,1.5-5.3
			c0.1-0.4,0.3-0.7,0.5-1.1c-0.1,0.7-0.2,1.3-0.4,2c-0.8,3-1.7,5.9-2.6,8.9C80.7,162.2,80.8,162.7,80.2,162.8z"/>
		<path class="st28" d="M34.9,137.8c0.7,2.6,1.5,5.2,2.2,7.7c0.4,1.4,0.8,2.9,1.2,4.3c-0.1,0-0.2,0-0.3,0c-0.6-2.2-1.2-4.4-1.9-6.6
			c-0.5-1.7-0.9-3.3-1.3-5C34.8,138.1,34.9,137.9,34.9,137.8z"/>
		<path class="st28" d="M89.5,131.5c0.1-1.3,0.5-2.5,0.9-3.7c0.5-1.2,0.7-2.6,1-3.9c0.3-1.2,0.7-2.3,1.1-3.5c0-0.1,0.1-0.2,0.2-0.3
			c-0.1,0.6-0.2,1.3-0.4,1.9c-0.9,3.1-1.8,6.1-2.7,9.2C89.7,131.3,89.6,131.4,89.5,131.5z"/>
		<path class="st28" d="M83.8,150.8c0-0.3,0-0.6,0.1-0.9c0.5-1.6,1.1-3.1,1.5-4.7c0.2-0.8,0.3-1.7,0.6-2.5c0.3-0.9,0.6-1.8,1-2.6
			c-0.1,0.4-0.1,0.8-0.2,1.2c-0.9,3-1.7,6-2.6,8.9C84.1,150.4,83.9,150.6,83.8,150.8z"/>
		<path class="st33" d="M38.7,152.1c0.4,1.4,0.8,2.8,1.2,4.3c0.5,1.8,0.9,3.5,1.4,5.3c0,0.1,0.1,0.3,0.1,0.4c0,0,0,0.1,0,0.1
			c-0.1,0-0.1,0-0.2,0c-0.3-1.2-0.7-2.4-1-3.6c-0.5-1.9-1-3.8-1.5-5.7c-0.1-0.2-0.1-0.5-0.1-0.7C38.7,152.1,38.7,152.1,38.7,152.1z"
			/>
		<path class="st33" d="M10.7,46.3c0.7,2.7,1.4,5.4,2.1,8c0,0.1,0,0.1,0,0.2c-0.3-0.9-0.6-1.7-0.8-2.6c-0.6-2.1-1.1-4.1-1.6-6.2
			C10.5,45.9,10.6,46.1,10.7,46.3z"/>
		<path class="st28" d="M20,82c0.1,0.2,0.3,0.3,0.4,0.5c0.4,1.5,0.9,3,1.3,4.5c0.2,0.7,0.2,1.4,0.3,2.1c-0.2-0.7-0.5-1.4-0.7-2.1
			c-0.4-1.6-0.9-3.1-1.3-4.7C20,82.3,20,82.1,20,82z"/>
		<path class="st28" d="M87.6,137.9c0.2-0.8,0.3-1.6,0.6-2.4c0.3-1.2,0.7-2.3,1-3.5c0.1-0.2,0.2-0.3,0.3-0.5
			c-0.3,1.2-0.6,2.4-0.9,3.6c-0.2,0.8-0.4,1.5-0.7,2.2C87.8,137.6,87.7,137.7,87.6,137.9z"/>
		<path class="st28" d="M15.3,63.2c0.3,1.1,0.6,2.2,0.9,3.3c0.1,0.2,0,0.5,0,0.7c-0.2-0.6-0.4-1.1-0.6-1.7c-0.2-0.7-0.3-1.4-0.5-2.1
			C15.1,63.3,15.2,63.2,15.3,63.2z"/>
		<path class="st33" d="M15.3,63.2c-0.1,0-0.2,0.1-0.3,0.1c-0.4-1.5-0.7-3-1.1-4.4c0.1,0,0.2,0,0.3,0c0,0,0,0.1,0,0.1
			c0,0.1,0.1,0.2,0.1,0.3c0.3,1.2,0.6,2.3,0.8,3.5c0,0.1,0.1,0.2,0.1,0.3C15.3,63.1,15.3,63.1,15.3,63.2z"/>
		<path class="st23" d="M315.3,83.2c-0.1,0.1-0.1,0.1-0.2,0.2c-0.1,0.1-0.2,0.2-0.2,0.4c-0.1,0.1-0.2,0.2-0.3,0.3
			c-0.1,0.1-0.2,0.2-0.3,0.4c-0.1,0.1-0.2,0.2-0.3,0.3c-0.1,0.1-0.2,0.2-0.3,0.4c-0.2,0.2-0.3,0.3-0.5,0.5c-0.1,0.1-0.2,0.3-0.3,0.4
			c-0.1,0-0.1,0.1-0.2,0.1c0-0.1-0.1-0.1-0.1-0.2c1.1-1.4,2.2-2.8,3.3-4.1c0,0,0.1,0.1,0.1,0.1c0,0.1-0.1,0.2-0.1,0.3
			c-0.1,0.1-0.2,0.3-0.3,0.4c0,0.1-0.1,0.1-0.1,0.2C315.5,83,315.4,83.1,315.3,83.2z"/>
		<path class="st33" d="M13.2,55.7c0,0,0.1,0.1,0.1,0.1c0,0.1,0,0.3,0,0.4c0,0,0,0,0,0c0.1,0.3,0.2,0.6,0.3,1c0,0,0,0,0,0
			c0.1,0.5,0.2,1,0.2,1.4c-0.3-1-0.5-2-0.8-3C13.1,55.7,13.2,55.7,13.2,55.7z"/>
		<path class="st23" d="M317.1,80.1c-0.1,0.2-0.1,0.4-0.2,0.7c0,0,0,0.1-0.1,0.1c-0.1,0.2-0.2,0.4-0.3,0.6c0,0-0.1,0.1-0.1,0.1
			c-0.1,0.1-0.1,0.2-0.2,0.3c-0.1,0-0.1,0.1-0.2,0.1c0,0-0.1-0.1-0.1-0.1C316.3,81.3,316.7,80.7,317.1,80.1z"/>
		<path class="st23" d="M311.1,87.8c-0.1,0.1-0.1,0.2-0.2,0.3c-0.1,0.1-0.3,0.2-0.4,0.3c-0.2,0.1-0.4,0.3-0.6,0.4
			c0-0.1-0.1-0.1-0.1-0.2c0.4-0.3,0.7-0.7,1.1-1C311,87.7,311.1,87.8,311.1,87.8z"/>
		<path class="st28" d="M13.9,58.6c-0.1-0.5-0.2-1-0.2-1.4c0.2,0.6,0.4,1.1,0.5,1.7c-0.1,0-0.2,0-0.3,0
			C13.9,58.8,13.9,58.7,13.9,58.6z"/>
		<path class="st28" d="M38.5,150.5c0,0.3,0,0.7,0,1c-0.1-0.3-0.2-0.7-0.3-1C38.3,150.5,38.4,150.5,38.5,150.5z"/>
		<path class="st28" d="M41.3,162.2c0.1,0,0.1,0,0.2,0c0.1,0,0.1,0.1,0.2,0.1l0,0c0,0,0,0.1,0,0.1c0,0.1,0.1,0.2,0.1,0.3
			C41.2,162.9,41.4,162.5,41.3,162.2z"/>
		<path class="st28" d="M92.8,119.9c0.1-0.4,0.2-0.8,0.3-1.2C93.1,119.1,93,119.5,92.8,119.9z"/>
		<path class="st23" d="M309.6,89.3c-0.1,0-0.2,0.1-0.3,0.1c0-0.1-0.1-0.1-0.1-0.2c0.2-0.2,0.5-0.4,0.7-0.6c0,0.1,0.1,0.1,0.1,0.2
			c0,0.1-0.1,0.2-0.1,0.3C309.8,89.2,309.7,89.2,309.6,89.3z"/>
		<path class="st33" d="M13.1,55.1c0,0,0.1,0.1,0.1,0.1c-0.1,0.1-0.1,0.1-0.2,0.2c-0.1-0.2-0.2-0.5-0.2-0.7c0,0,0.1,0,0.1,0
			c0,0,0,0,0,0C13,54.9,13,55,13.1,55.1z"/>
		<path class="st23" d="M312.4,86.6c-0.2,0.2-0.4,0.4-0.6,0.6c0-0.1-0.1-0.1-0.1-0.2c0.2-0.2,0.4-0.4,0.6-0.6
			C312.2,86.5,312.3,86.5,312.4,86.6z"/>
		<path class="st33" d="M316.5,81.5c0.1-0.2,0.2-0.4,0.3-0.6C316.7,81.1,316.6,81.3,316.5,81.5z"/>
		<path class="st23" d="M311.5,87.4c-0.1,0.1-0.3,0.3-0.4,0.4c-0.1,0-0.1-0.1-0.2-0.1c0.1-0.1,0.3-0.3,0.4-0.4
			C311.4,87.3,311.5,87.4,311.5,87.4z"/>
		<path class="st33" d="M312.9,86.1c0.1-0.1,0.2-0.3,0.3-0.4C313.1,85.8,313,86,312.9,86.1z"/>
		<path class="st33" d="M310.5,88.4c0.1-0.1,0.3-0.2,0.4-0.3C310.8,88.2,310.7,88.3,310.5,88.4z"/>
		<path class="st28" d="M38.7,152.1c0,0-0.1,0-0.1,0c0-0.1-0.1-0.3-0.1-0.4C38.6,151.8,38.7,151.9,38.7,152.1z"/>
		<path class="st33" d="M313.8,85.2c0.1-0.1,0.2-0.2,0.3-0.4C313.9,84.9,313.8,85,313.8,85.2z"/>
		<path class="st33" d="M315.3,83.2c0.1-0.1,0.2-0.2,0.3-0.3C315.5,83,315.4,83.1,315.3,83.2z"/>
		<path class="st28" d="M38.3,150.1c0,0.1,0.1,0.2,0.1,0.3c-0.1,0-0.2,0-0.3,0c0-0.1,0-0.2-0.1-0.3
			C38.2,150.1,38.2,150.1,38.3,150.1z"/>
		<path class="st33" d="M315.7,82.7c0.1-0.1,0.2-0.3,0.3-0.4C315.8,82.4,315.8,82.6,315.7,82.7z"/>
		<path class="st33" d="M314.3,84.5c0.1-0.1,0.2-0.2,0.3-0.4C314.5,84.2,314.4,84.3,314.3,84.5z"/>
		<path class="st33" d="M314.9,83.8c0.1-0.1,0.2-0.2,0.2-0.4C315,83.5,314.9,83.6,314.9,83.8z"/>
		<path class="st38" d="M134.7,162.3c0,0,0.1,0,0.1,0c0.1,0,0.2,0,0.3,0c0,0.1-0.1,0.2-0.1,0.3c0,0,0,0.1,0,0.1c0,0-0.1,0-0.1-0.1
			c0-0.1-0.1-0.2-0.1-0.3C134.7,162.4,134.7,162.4,134.7,162.3z"/>
		<path class="st33" d="M309.6,89.3c0.1-0.1,0.2-0.1,0.2-0.2C309.8,89.2,309.7,89.2,309.6,89.3z"/>
		<path class="st33" d="M316.2,81.9c0.1-0.1,0.1-0.2,0.2-0.3C316.4,81.7,316.3,81.8,316.2,81.9z"/>
		<path class="st33" d="M38.3,150.1c-0.1,0-0.1,0-0.2,0c0-0.1,0-0.2-0.1-0.3c0.1,0,0.2,0,0.3,0C38.3,149.9,38.3,150,38.3,150.1z"/>
		<path class="st32" d="M134.7,162.5c0,0.1,0.1,0.2,0.1,0.3C134.8,162.7,134.8,162.6,134.7,162.5z"/>
		<path class="st28" d="M13,54.7c0,0-0.1,0-0.1,0c0-0.1,0-0.1,0-0.2c0-0.1,0-0.1,0-0.2C12.9,54.4,12.9,54.6,13,54.7z"/>
		<path class="st38" d="M178,162.6c-0.1,0-0.1,0-0.2,0c0-0.1-0.1-0.1-0.1-0.2c0.1,0,0.2,0,0.3,0c0,0,0,0,0,0
			C178,162.4,178,162.5,178,162.6z"/>
		<path class="st38" d="M204.2,162.4c-0.1,0-0.2,0.1-0.4,0.1c0,0,0-0.1,0-0.1c0,0,0,0,0-0.1c0,0,0.1,0,0.1,0
			C204,162.3,204.1,162.4,204.2,162.4z"/>
		<path class="st28" d="M13.1,55.5c0.1-0.1,0.1-0.1,0.2-0.2c0,0.1,0,0.3,0,0.4c0,0-0.1,0-0.1,0C13.1,55.6,13.1,55.5,13.1,55.5z"/>
		<path class="st33" d="M38.2,150.4c0.1,0,0.2,0,0.3,0c0,0,0,0.1,0,0.1c-0.1,0-0.2,0-0.2,0C38.2,150.5,38.2,150.5,38.2,150.4z"/>
		<path class="st23" d="M309,89.6c0-0.1,0-0.2,0-0.4c0,0,0.1,0,0.1,0c0,0.1,0.1,0.1,0.1,0.2C309.2,89.5,309.1,89.5,309,89.6z"/>
		<path class="st23" d="M312.5,86.4c0,0-0.1,0.1-0.1,0.1c-0.1,0-0.1-0.1-0.2-0.1c0,0,0.1-0.1,0.1-0.1
			C312.4,86.3,312.4,86.4,312.5,86.4z"/>
		<path class="st23" d="M312.6,86.3c0,0.1-0.1,0.1-0.1,0.2c-0.1,0-0.1-0.1-0.2-0.1c0,0,0.1-0.1,0.1-0.1
			C312.5,86.2,312.6,86.2,312.6,86.3z"/>
		<path class="st23" d="M312.7,86.2C312.7,86.2,312.7,86.2,312.7,86.2c-0.1,0-0.2,0-0.2,0c0,0,0.1-0.1,0.1-0.1
			C312.6,86.1,312.7,86.1,312.7,86.2z"/>
		<path class="st23" d="M311.7,87.2c0,0.1-0.1,0.1-0.1,0.2c-0.1,0-0.1-0.1-0.2-0.1c0,0,0.1-0.1,0.1-0.1
			C311.6,87.2,311.6,87.2,311.7,87.2z"/>
		<path class="st23" d="M311.7,87.2C311.7,87.2,311.7,87.2,311.7,87.2c-0.1,0-0.2,0-0.2,0c0,0,0.1-0.1,0.1-0.1
			C311.7,87.1,311.7,87.1,311.7,87.2z"/>
		<path class="st39" d="M204,162.1c0-0.2-0.1-0.4-0.1-0.7c0-49.1,0-98.2,0-147.3c0.4,0.3,0.7,0.6,0.7,1.2c0,48.7,0,97.3,0,146
			c0,0.1,0,0.1,0,0.2C204.4,161.7,204.2,161.9,204,162.1z"/>
		<path class="st35" d="M247.2,28.1c0,0,0,0.1,0,0.1c0,0.3-0.1,0.6-0.1,0.9c0,19.5,0,39.1,0,58.6c-0.2,0-0.5,0-0.8,0
			c0-0.3,0-0.6,0-0.8c0-19.5,0-39.1,0-58.6c0-0.3,0-0.5,0-0.8c0.3,0,0.5,0,0.8,0c0.1,0.1,0.1,0.2,0.2,0.3
			C247.2,27.9,247.2,28,247.2,28.1z"/>
		<path class="st35" d="M247.2,134.8c-0.3,0.2-0.6,0.3-1,0.5c0-10.9,0-21.8,0-32.8c0-0.3,0-0.6,0-1c0.3,0,0.5,0,0.8,0.1
			c0.1,0.2,0.1,0.3,0.2,0.5c0,0.1,0,0.3,0,0.4C247.2,113.3,247.2,124,247.2,134.8z"/>
		<path class="st40" d="M247,101.6c-0.3,0-0.5,0-0.8-0.1c0-0.7,0.5-0.8,1-0.8c2.4,0,4.7,0,7.1,0c1.8,0,3.6,0,5.4,0
			c2.5,0,5.1,0,7.6-0.2c2.7-0.1,5.5-0.4,8.2-0.7c2.1-0.2,4.2-0.5,6.3-0.7c-0.3,0.3-0.6,0.7-0.9,1c-1.7,0.2-3.4,0.4-5.1,0.5
			c-2.7,0.2-5.4,0.6-8.1,0.6c-4.4,0.1-8.7,0.1-13.1,0.2C252.1,101.6,249.6,101.6,247,101.6z"/>
		<path class="st41" d="M247,27.5c-0.3,0-0.5,0-0.8,0c0-0.7,0.4-0.9,1.1-0.9c4,0,8-0.1,12,0c2.9,0.1,5.6,0.8,8.3,1.9
			c2.1,0.9,3.9,2.1,5.5,3.7c0.2,0.2,0.4,0.5,0.6,0.7c-0.1,0.1-0.1,0.2-0.2,0.3c0,0,0,0,0,0c-0.2,0-0.3,0-0.5,0
			c-1.1-0.9-2.2-1.8-3.4-2.6c-3-1.9-6.4-2.9-10-3.1c-0.3,0-0.5,0-0.8,0c-2.7,0-5.4,0-8.1,0C249.6,27.5,248.3,27.5,247,27.5z"/>
		<path class="st41" d="M204,162.1c0.2-0.2,0.4-0.4,0.6-0.6c6.8,0,13.6,0,20.4,0c0.2,0,0.5,0,0.7,0c-0.1,0.2-0.3,0.4-0.4,0.6
			c-7.1,0-14.2,0-21.2,0C204,162.1,204,162.1,204,162.1z"/>
		<path class="st42" d="M311.6,87c0,0-0.1,0.1-0.1,0.1c0,0-0.1,0.1-0.1,0.1c-0.1,0.1-0.3,0.3-0.4,0.4c-0.4,0.3-0.7,0.7-1.1,1
			c-0.2,0.2-0.5,0.4-0.7,0.6c0,0-0.1,0-0.1,0c0-0.4,0-0.8,0-1.3c0.5-0.4,1-0.9,1.5-1.3c2.1-1.9,3.8-4.1,5.4-6.5
			c0.1-0.1,0.2-0.2,0.2-0.3c0,0,0-0.1,0-0.1c0.1-0.2,0.3-0.4,0.4-0.6c0.1-0.1,0.1-0.3,0.2-0.4c0.2-0.3,0.3-0.6,0.5-0.9
			c0.2-0.5,0.4-0.9,0.6-1.4c0.1-0.1,0.2-0.2,0.2-0.3c0,0,0-0.1,0-0.1c0.2,0.1,0.5,0.2,0.7,0.3c0,0.1,0,0.2,0,0.3c0,0,0,0,0,0
			c0,0.1-0.1,0.2-0.1,0.3c0,0,0,0,0,0c-0.2,0.5-0.5,1-0.7,1.5c0,0,0,0,0,0c0,0.1-0.1,0.2-0.1,0.3c-0.1,0.2-0.2,0.5-0.4,0.7
			c-0.1,0.1-0.1,0.2-0.2,0.3c0,0,0,0,0,0c-0.1,0.1-0.2,0.3-0.3,0.4c0,0,0,0,0,0c-0.4,0.6-0.8,1.2-1.1,1.8c-1.1,1.4-2.2,2.8-3.3,4.1
			c0,0-0.1,0.1-0.1,0.1c0,0-0.1,0.1-0.1,0.1c0,0-0.1,0.1-0.1,0.1C312,86.6,311.8,86.8,311.6,87z"/>
		<path class="st31" d="M318.9,76.4c-0.2-0.1-0.5-0.2-0.7-0.3c0.2-0.7,0.5-1.4,0.7-2.1c0.7-2.5,1.4-5,2.1-7.5
			c0.2-0.8,0.3-1.7,0.4-2.5c0.3,0.1,0.5,0.2,0.8,0.3c-0.3,1.5-0.5,3-0.8,4.4c-0.2,0.8-0.4,1.6-0.5,2.4c-0.1,0.3-0.1,0.5-0.2,0.8
			c-0.3,0.8-0.7,1.7-1,2.6c-0.1,0.3-0.2,0.6-0.2,0.9c0,0-0.1,0.1-0.1,0.1C318.5,75.5,319.2,76.1,318.9,76.4z"/>
		<path class="st32" d="M247,87.7c0-19.5,0-39.1,0-58.6c0-0.3,0.1-0.6,0.1-0.9c0,0.3,0,0.6,0,0.9c0,19.3,0,38.5,0,57.8
			c0,0.3,0.1,0.6,0.2,0.9C247.3,87.8,247.2,87.7,247,87.7z"/>
		<path class="st35" d="M280.9,52.5c0,2.7,0,5.5,0,8.3c-0.3,0-0.6,0-0.8,0.1c0-2.8,0-5.5,0-8.3C280.3,52.5,280.6,52.5,280.9,52.5z"
			/>
		<path class="st31" d="M278.4,40.6c0.2,0.5,0.5,1,0.7,1.6c0.6,1.8,1.2,3.7,1.2,5.6c-0.2,0-0.5,0.1-0.7,0.1c0,0-0.1-0.1-0.1-0.1
			c0,0,0-0.1,0-0.1c0-0.2-0.1-0.5-0.1-0.7l0,0c0-0.1,0-0.3,0-0.4c-0.5-1.9-1-3.8-1.5-5.7C278,40.8,278.2,40.7,278.4,40.6z"/>
		<path class="st42" d="M278.4,40.6c-0.2,0.1-0.4,0.2-0.6,0.3c-0.5-1-1-1.9-1.5-2.9c-0.1-0.1-0.1-0.2-0.2-0.3c0,0,0,0,0,0
			c0,0-0.1-0.1-0.1-0.1c0,0,0,0,0,0c0-0.1-0.1-0.2-0.1-0.3c0,0,0,0,0,0c0-0.1-0.1-0.2-0.1-0.3c0,0,0,0,0,0c-0.1-0.2-0.3-0.5-0.4-0.7
			c0,0,0,0,0,0c-0.4-0.6-0.8-1.2-1.1-1.8c0.2-0.2,0.3-0.4,0.5-0.6c0.6,0.9,1.4,1.7,1.9,2.6C277.3,37.8,277.8,39.2,278.4,40.6z"/>
		<path class="st35" d="M279.6,47.9c0.2,0,0.5-0.1,0.7-0.1c0.1,0.9,0.2,1.9,0.3,2.8c-0.2,0-0.4,0-0.6,0.1c-0.1-0.4-0.1-0.7-0.2-1.1
			C279.7,49,279.7,48.5,279.6,47.9z"/>
		<path class="st28" d="M280,52.5c0,2.8,0,5.5,0,8.3c0,0-0.1,0.1-0.1,0.1c0-2.4,0-4.8,0-7.3c0-0.8-0.2-1.6-0.2-2.5
			c0-0.3,0-0.5,0.1-0.8C279.9,51.1,280,51.8,280,52.5z"/>
		<path class="st35" d="M280.7,50.8c0,0.5,0,0.9,0,1.4c-0.2,0-0.4,0-0.7,0.1c0-0.5,0-0.9,0-1.4C280.3,50.9,280.5,50.8,280.7,50.8z"
			/>
		<path class="st40" d="M274.6,33.9c-0.2,0.2-0.3,0.4-0.5,0.6c-0.3-0.3-0.7-0.7-1-1c0.1-0.1,0.2-0.2,0.3-0.3c0,0,0,0,0,0
			c0.1,0,0.3,0,0.4,0C274.2,33.4,274.4,33.7,274.6,33.9z"/>
		<path class="st27" d="M280.7,50.8c-0.2,0-0.4,0-0.6,0.1c0,0.5,0,0.9,0,1.4c0.2,0,0.4,0,0.7-0.1c0,0.1,0.1,0.2,0.1,0.2
			c-0.3,0-0.5,0-0.8,0c-0.1-0.7-0.2-1.4-0.3-2.1c0-0.1,0-0.2,0-0.3c0-0.2,0-0.4,0-0.6l0,0c0.1,0.3,0.1,0.7,0.2,1.1
			c0.2,0,0.4,0,0.6-0.1C280.6,50.6,280.7,50.7,280.7,50.8z"/>
		<path class="st31" d="M317.3,77.9c-0.2,0.3-0.3,0.6-0.5,0.9C317,78.4,317.2,78.2,317.3,77.9z"/>
		<path class="st31" d="M316.7,79.1c-0.1,0.2-0.3,0.4-0.4,0.6C316.4,79.5,316.5,79.3,316.7,79.1z"/>
		<path class="st42" d="M274,33.2c-0.1,0-0.3,0-0.4,0c0.1-0.1,0.1-0.2,0.2-0.3C273.8,33,273.9,33.1,274,33.2z"/>
		<path class="st31" d="M316.2,79.8c-0.1,0.1-0.2,0.2-0.2,0.3C316.1,80,316.2,79.9,316.2,79.8z"/>
		<path class="st31" d="M318.2,76.2c-0.1,0.1-0.2,0.2-0.2,0.3C318,76.4,318.1,76.3,318.2,76.2z"/>
		<path class="st40" d="M41.9,161.6c0.1,0,0.2-0.1,0.3-0.1c12.5,0,25,0,37.4,0c0.2,0.2,0.4,0.5,0.6,0.7c-12.8,0-25.6,0-38.4,0
			c0-0.1,0-0.2,0-0.3C41.9,161.8,41.9,161.7,41.9,161.6z"/>
		<path class="st43" d="M178,14c0,0.3,0,0.7,0,1c0,48.7,0,97.5,0,146.2c0,0.3,0,0.7,0,1c-0.1,0-0.2,0-0.2,0
			c-0.2-0.2-0.4-0.4-0.6-0.7c0-48.7,0-97.4,0-146.2C177.1,14.6,177.5,14.3,178,14z"/>
		<path class="st36" d="M134.9,162.2c0-0.3,0-0.6,0-0.9c0-49.1,0-98.2,0-147.4c0.6,0.5,0.7,1.1,0.7,1.9c0,48.6,0,97.1,0,145.7
			c-0.2,0.2-0.4,0.4-0.6,0.7C134.9,162.2,134.9,162.2,134.9,162.2z"/>
		<path class="st41" d="M135,162.2c0.2-0.2,0.4-0.4,0.6-0.7c13.9,0,27.7,0,41.6,0c0.2,0.2,0.4,0.4,0.6,0.7
			C163.5,162.2,149.2,162.2,135,162.2z"/>
		<path class="st44" d="M204,162.2c7.1,0,14.2,0,21.2,0c-0.1,0.1-0.1,0.1-0.2,0.2c-7,0-14,0-20.9,0c-0.1,0-0.2,0-0.3,0
			C204,162.3,204,162.2,204,162.2z"/>
		<path class="st44" d="M135,162.2c14.2,0,28.5,0,42.7,0c0.1,0,0.2,0,0.2,0c0,0,0,0.1,0,0.1c-0.1,0-0.2,0-0.3,0c-0.2,0-0.4,0-0.6,0
			c-13.8,0-27.5,0-41.3,0c-0.2,0-0.4,0-0.6,0c-0.1,0-0.2,0-0.3,0c0,0,0-0.1,0-0.1C134.9,162.2,134.9,162.2,135,162.2z"/>
		<path class="st45" d="M286.7,98.1c3.8-4.1,7.6-8.3,12.4-11.2c1.8-1.1,3.7-1.9,5.8-1.8c2.2,0.1,3.5,1.8,2.8,4.1
			c-0.1,0.1-0.2,0.1-0.4,0.2c-1.9,1.2-3.7,2.4-5.6,3.5c-3.7,2-7.6,3.4-11.6,4.5C289.1,97.7,287.9,97.9,286.7,98.1z"/>
		<path class="st25" d="M246.2,153.7c0,2.6,0,5.2,0,7.9c-4.3,0-8.6,0-12.9,0c1.9-2.3,3.7-4.5,5.6-6.8c0.6-0.7,1.2-1.4,1.8-2.1
			c0.3-0.4,0.5-0.4,1-0.3C243.1,152.8,244.7,153.2,246.2,153.7z"/>
		<path class="st45" d="M246.2,140c-1.1,1.3-2.2,2.6-3.3,4c-1.3,1.5-2.6,3-3.9,4.7c-0.4-0.7-0.9-1.3-1.2-2c-0.1-0.4,0-0.9,0.2-1.3
			c0.7-1.1,1.5-2.1,2.2-3.2c0.6-1,1-2,1.5-3c0.1-0.1,0.2-0.3,0.3-0.4c1.4-0.8,2.8-1.5,4.3-2.3C246.2,137.7,246.2,138.9,246.2,140z"
			/>
		<path class="st45" d="M227.3,161.4c3-4.7,6.1-9.5,9.2-14.3c0.5,0.9,1,1.7,1.4,2.6c0.1,0.1-0.1,0.4-0.2,0.6
			c-1.9,2.2-3.8,4.4-5.7,6.6c-1.4,1.6-2.8,3.2-4.2,4.8C227.6,161.5,227.5,161.4,227.3,161.4z"/>
		<path class="st40" d="M286.7,98.1c1.2-0.2,2.4-0.4,3.5-0.7c4-1.1,7.9-2.5,11.6-4.5c1.9-1.1,3.8-2.3,5.6-3.5
			c0.1-0.1,0.2-0.1,0.4-0.2c-0.1,0.4-0.2,0.8-0.3,1.3c-1,0.6-1.9,1.3-2.9,1.9c-3.1,1.8-6.3,3.3-9.6,4.4c-3.1,1-6.2,1.9-9.3,2.5
			c0.3-0.4,0.6-0.7,1-1.1C286.6,98.2,286.7,98.2,286.7,98.1L286.7,98.1z"/>
		<path class="st37" d="M280.5,100.8c-3,0.3-6.1,0.6-9.1,0.9c-2.2,0.2-4.4,0.2-6.6,0.3c-5.6,0.1-11.1,0.1-16.7,0.1
			c-0.3,0-0.6,0.1-0.9,0.1c-0.1-0.2-0.1-0.3-0.2-0.5c2.5,0,5.1,0,7.6,0c4.4,0,8.7,0,13.1-0.2c2.7-0.1,5.4-0.4,8.1-0.6
			c1.7-0.2,3.4-0.4,5.1-0.5C280.8,100.4,280.6,100.6,280.5,100.8z"/>
		<path class="st45" d="M246.2,146.1c0,2.2,0,4.4,0,6.5c-1.5-0.2-2.9-0.7-4.3-1.5C243.4,149.4,244.8,147.7,246.2,146.1z"/>
		<path class="st23" d="M285.6,99.4c3.2-0.6,6.3-1.5,9.3-2.5c3.4-1.1,6.5-2.7,9.6-4.4c1-0.6,2-1.3,2.9-1.9c-0.1,0.3-0.2,0.5-0.3,0.8
			c0,0.1-0.1,0.1-0.1,0.2c0,0,0,0,0,0c-0.2,0-0.3,0.1-0.5,0.1c-4.8,3.2-10,5.4-15.6,7c-2,0.6-4.1,1-6.1,1.4
			C285.2,99.8,285.4,99.6,285.6,99.4z"/>
		<path class="st40" d="M233.3,161.5c4.3,0,8.6,0,12.9,0c0.3,0.3,0.5,0.6,0.8,1c-0.3,0-0.6-0.1-0.9-0.1c-4.5,0-9,0-13.5,0
			C232.8,162.1,233.1,161.8,233.3,161.5z"/>
		<path class="st37" d="M232.6,162.3c4.5,0,9,0,13.5,0c0.3,0,0.6,0.1,0.9,0.1c-0.2,0.1-0.4,0.3-0.6,0.3c-4.7,0-9.4,0-14.2,0
			C232.4,162.6,232.5,162.5,232.6,162.3z"/>
		<path class="st35" d="M247.1,136.1c0,1,0,1.9,0.1,2.9c-0.3,0.4-0.6,0.7-0.9,1.1c0-1.2,0-2.3,0-3.5
			C246.5,136.4,246.8,136.2,247.1,136.1z"/>
		<path class="st41" d="M227.3,161.4c0.2,0.1,0.3,0.1,0.5,0.2c-0.3,0.4-0.6,0.8-0.9,1.2c-0.1,0-0.1-0.1-0.2-0.1
			C226.9,162.2,227.1,161.8,227.3,161.4z"/>
		<path class="st45" d="M286.7,98.1c0,0-0.1,0.1-0.1,0.1C286.6,98.2,286.7,98.2,286.7,98.1z"/>
		<path class="st38" d="M225,162.6c0,0,0.1-0.1,0.1-0.1C225.1,162.5,225,162.6,225,162.6z"/>
		<path class="st44" d="M41.8,162.2c12.8,0,25.6,0,38.4,0c0,0,0,0.1,0,0.1c-0.1,0-0.1,0-0.2,0.1c-0.2,0-0.4,0-0.6,0
			c-12.3,0-24.7,0-37,0c-0.2,0-0.4,0-0.6,0c0,0-0.1,0-0.1,0c0,0,0,0,0,0C41.7,162.3,41.7,162.2,41.8,162.2z"/>
		<path class="st38" d="M80.1,162.4c0.1,0,0.1,0,0.2-0.1c0,0,0.1,0,0.1,0c0,0.1-0.1,0.1-0.1,0.2C80.2,162.4,80.1,162.4,80.1,162.4z"
			/>
		<path class="st29" d="M41.9,161.6c0,0.1-0.1,0.2-0.1,0.3c-0.1,0-0.2,0.1-0.3,0.1c0-0.1-0.1-0.3-0.1-0.4
			C41.6,161.6,41.8,161.6,41.9,161.6z"/>
		<path class="st28" d="M13.7,57.2c-0.1-0.3-0.2-0.6-0.3-1C13.5,56.6,13.6,56.9,13.7,57.2z"/>
		<path class="st28" d="M13.1,55.1c0-0.1-0.1-0.3-0.1-0.4C13,54.9,13,55,13.1,55.1z"/>
		<path class="st28" d="M13.4,56.2c0-0.1,0-0.3,0-0.4C13.4,56,13.4,56.1,13.4,56.2z"/>
		<path class="st28" d="M15.3,63c0-0.1-0.1-0.2-0.1-0.3C15.2,62.9,15.3,62.9,15.3,63z"/>
		<path class="st28" d="M14.3,59.3c0-0.1-0.1-0.2-0.1-0.3C14.2,59.1,14.3,59.2,14.3,59.3z"/>
		<path class="st38" d="M41.7,162.4c0,0,0.1,0,0.1,0c0,0-0.1,0.1-0.1,0.1C41.7,162.4,41.7,162.4,41.7,162.4z"/>
		<path class="st34" d="M135.1,162.4c0.2,0,0.4,0,0.6,0c13.8,0,27.5,0,41.3,0c0.2,0,0.4,0,0.6,0c0,0.1,0.1,0.1,0.1,0.2
			c-0.2,0-0.4,0.1-0.7,0.1c-13.9,0-27.8,0-41.6,0c-0.2,0-0.4,0-0.6,0C135,162.6,135.1,162.5,135.1,162.4z"/>
		<path class="st28" d="M319.4,75.4c0.1-0.3,0.1-0.6,0.2-0.9c0.3-0.9,0.7-1.7,1-2.6C320.3,73.1,319.8,74.2,319.4,75.4z"/>
		<path class="st28" d="M318.9,76.4c0.3-0.2-0.3-0.9,0.4-0.9c-0.1,0.4-0.3,0.7-0.4,1.1C318.9,76.5,318.9,76.4,318.9,76.4z"/>
		<path class="st28" d="M318,78.4c0.2-0.5,0.5-1,0.7-1.5C318.5,77.4,318.3,77.9,318,78.4z"/>
		<path class="st23" d="M317.1,80.1c0.1-0.1,0.2-0.3,0.3-0.4C317.3,79.8,317.2,80,317.1,80.1z"/>
		<path class="st28" d="M318.7,76.9c0-0.1,0.1-0.2,0.1-0.3C318.8,76.7,318.8,76.8,318.7,76.9z"/>
		<path class="st28" d="M317.9,78.7c0-0.1,0.1-0.2,0.1-0.3C318,78.5,317.9,78.6,317.9,78.7z"/>
		<path class="st23" d="M317.3,79.7c0.1-0.1,0.1-0.2,0.2-0.3C317.5,79.5,317.4,79.6,317.3,79.7z"/>
		<path class="st31" d="M41.5,162.1c0.1,0,0.2-0.1,0.3-0.1c0,0.1,0,0.2,0,0.3c0,0-0.1,0.1-0.1,0.1c-0.1,0-0.1-0.1-0.2-0.1
			C41.5,162.2,41.5,162.1,41.5,162.1z"/>
		<path class="st23" d="M259.7,27.5c3.6,0.2,6.9,1.2,10,3.1c1.2,0.8,2.3,1.7,3.4,2.6c0,0.1,0,0.2,0,0.3c0,0,0,0,0,0
			c-0.2,0-0.4-0.1-0.6-0.1c-0.2-0.2-0.5-0.5-0.7-0.7c-0.2-0.1-0.4-0.3-0.6-0.4c0,0-0.1-0.1-0.1-0.1c-0.1-0.1-0.1-0.2-0.2-0.3
			c-1-0.6-1.9-1.2-2.9-1.7c-0.6-0.3-1.3-0.4-1.9-0.6c-1.1-0.3-2.1-0.6-3.2-0.9c-0.3-0.1-0.6-0.3-0.9-0.4c-0.9-0.2-1.7-0.3-2.6-0.4
			C259.6,27.7,259.6,27.6,259.7,27.5z"/>
		<path class="st32" d="M259.5,27.8c0.9,0.1,1.7,0.3,2.6,0.4c0.3,0.1,0.6,0.2,0.9,0.4c-1.1-0.2-2.2-0.3-3.3-0.5
			c-0.2,0-0.3-0.1-0.5-0.1c-4,0-8,0-12,0c0-0.1,0-0.1,0-0.2c0.3,0,0.5-0.1,0.8-0.1C251.8,27.8,255.7,27.8,259.5,27.8z"/>
		<path class="st28" d="M276.4,37.9c0.5,1,1,1.9,1.5,2.9c0.5,1.9,1,3.8,1.5,5.7c0,0.1,0,0.3,0,0.4c0,0,0,0,0,0c0,0.2,0,0.3,0,0.5
			c-0.1-0.4-0.3-0.8-0.4-1.2c-0.8-3.5-1.9-6.9-4-9.9c-0.1-0.1-0.1-0.3-0.2-0.4c0.2,0.1,0.4,0.3,0.6,0.4c0,0,0,0,0,0
			c0.1,0.2,0.3,0.5,0.4,0.7c0,0,0,0,0,0c0,0.1,0.1,0.2,0.1,0.3c0,0,0,0,0,0c0,0.1,0.1,0.2,0.1,0.3c0,0,0,0,0,0c0,0,0.1,0.1,0.1,0.1
			l0,0C276.2,37.8,276.3,37.8,276.4,37.9z"/>
		<path class="st28" d="M266.2,29.5c0.6,0.2,1.3,0.3,1.9,0.6c1,0.5,1.9,1.2,2.9,1.7c0.1,0.1,0.1,0.2,0.2,0.3
			c-0.7-0.4-1.4-0.9-2.2-1.3C268.1,30.4,267.1,29.9,266.2,29.5z"/>
		<path class="st23" d="M275.3,36.3c-0.2-0.1-0.4-0.3-0.6-0.4c0,0,0,0,0,0c-0.1-0.2-0.3-0.4-0.4-0.6c0,0-0.1-0.1-0.1-0.1
			c-0.1-0.1-0.1-0.2-0.2-0.3c-0.3-0.3-0.5-0.5-0.8-0.8c0-0.2-0.1-0.4-0.1-0.6c0,0,0,0,0,0c0,0,0.1,0,0.1,0c0.3,0.3,0.7,0.7,1,1
			C274.6,35.1,275,35.7,275.3,36.3z"/>
		<path class="st27" d="M279.6,47.9c0,0.6,0.1,1.1,0.1,1.7c0,0,0,0,0,0c0,0-0.1,0-0.1,0c0-0.1,0-0.3,0-0.4c0-0.2-0.1-0.4-0.1-0.6
			c0-0.1,0-0.3,0-0.4c0-0.2,0-0.3,0-0.5C279.5,47.8,279.6,47.9,279.6,47.9z"/>
		<path class="st28" d="M273.1,33.5c0,0.2,0.1,0.4,0.1,0.6c-0.2-0.2-0.5-0.5-0.7-0.7C272.7,33.4,272.9,33.5,273.1,33.5z"/>
		<path class="st28" d="M274.4,35.3c0.1,0.2,0.3,0.4,0.4,0.6C274.6,35.7,274.5,35.5,274.4,35.3z"/>
		<path class="st28" d="M279.5,47.8c0,0.2,0,0.3,0,0.5c0-0.2-0.1-0.4-0.1-0.6c0,0,0.1,0,0.1,0C279.5,47.7,279.5,47.7,279.5,47.8z"/>
		<path class="st28" d="M279.6,49.6c0,0,0.1,0,0.1,0c0,0.2,0,0.4,0,0.6C279.7,50,279.7,49.8,279.6,49.6z"/>
		<path class="st28" d="M279.5,48.6c0,0.2,0.1,0.4,0.1,0.6C279.6,49,279.5,48.8,279.5,48.6z"/>
		<path class="st28" d="M271.3,32.3c0.2,0.1,0.4,0.3,0.6,0.4C271.7,32.5,271.5,32.4,271.3,32.3z"/>
		<path class="st27" d="M279.5,47.6c0,0-0.1,0-0.1,0c0-0.1,0-0.2,0-0.2c0-0.2,0-0.3,0-0.5C279.4,47.2,279.4,47.4,279.5,47.6z"/>
		<path class="st28" d="M274,34.9c0.1,0.1,0.1,0.2,0.2,0.3C274.2,35.1,274.1,35,274,34.9z"/>
		<path class="st34" d="M259.5,27.8c-3.8,0-7.7,0-11.5,0c-0.3,0-0.5,0-0.8,0.1c-0.1-0.1-0.1-0.2-0.2-0.3c1.3,0,2.5,0,3.8,0
			c2.7,0,5.4,0,8.1,0c0.3,0,0.5,0,0.8,0C259.6,27.6,259.6,27.7,259.5,27.8z"/>
		<path class="st27" d="M279.4,46.9c0-0.1,0-0.3,0-0.4C279.4,46.7,279.4,46.8,279.4,46.9z"/>
		<path class="st23" d="M275.8,37c-0.1-0.2-0.3-0.5-0.4-0.7C275.5,36.5,275.6,36.7,275.8,37z"/>
		<path class="st23" d="M275.9,37.2c0-0.1-0.1-0.2-0.1-0.3C275.8,37.1,275.8,37.2,275.9,37.2z"/>
		<path class="st23" d="M276.4,37.9c-0.1-0.1-0.1-0.2-0.2-0.3C276.2,37.8,276.3,37.8,276.4,37.9z"/>
		<path class="st23" d="M276,37.5c0-0.1-0.1-0.2-0.1-0.3C275.9,37.3,276,37.4,276,37.5z"/>
	</g>
</g>
<g id="Layer_2">
</g>
</svg>
