<?xml version="1.0" encoding="utf-8"?>
<!-- Generator: Adobe Illustrator 19.0.0, SVG Export Plug-In . SVG Version: 6.00 Build 0)  -->
<svg version="1.1" xmlns="http://www.w3.org/2000/svg" xmlns:xlink="http://www.w3.org/1999/xlink" x="0px" y="0px"
	 viewBox="-1799 1953.3 400 94.7" style="enable-background:new -1799 1953.3 400 94.7;" xml:space="preserve">
<style type="text/css">
	.st0{fill:#B133BC;stroke:#000000;stroke-width:3;}
	.st1{display:none;enable-background:new    ;}
	.st2{display:inline;}
	.st3{fill:#050404;}
	.st4{fill:#FFFFFF;}
	.st5{display:none;}
	.st6{font-family:'MyriadPro-Regular';}
	.st7{font-size:35px;}
</style>
<g id="Layer_1" xmlns:bx="https://boxy-svg.com">
	<path class="st0" d="M-1749.1,1956.1h300.3c24.8,0,44.9,20.1,44.9,44.9l0,0c0,24.8-20.1,44.9-44.9,44.9h-300.3
		c-24.8,0-44.9-20.1-44.9-44.9l0,0C-1794,1976.2-1773.9,1956.1-1749.1,1956.1z"/>
	<g class="st1">
		<path class="st2" d="M-1719.9,2005.6l-2,6.1h-2.6l6.6-19.4h3l6.6,19.4h-2.7l-2.1-6.1H-1719.9z M-1713.5,2003.7l-1.9-5.6
			c-0.4-1.3-0.7-2.4-1-3.5h-0.1c-0.3,1.2-0.6,2.3-1,3.5l-1.9,5.6H-1713.5z"/>
		<path class="st2" d="M-1693.8,1991.3v16.8c0,1.2,0,2.6,0.1,3.6h-2.3l-0.1-2.4h-0.1c-0.8,1.6-2.5,2.7-4.8,2.7c-3.4,0-6-2.9-6-7.1
			c0-4.6,2.9-7.5,6.2-7.5c2.1,0,3.6,1,4.2,2.1h0.1v-8.3H-1693.8z M-1696.3,2003.5c0-0.3,0-0.7-0.1-1.1c-0.4-1.6-1.8-2.9-3.7-2.9
			c-2.6,0-4.2,2.3-4.2,5.4c0,2.8,1.4,5.2,4.1,5.2c1.7,0,3.3-1.1,3.7-3c0.1-0.3,0.1-0.7,0.1-1.1V2003.5z"/>
		<path class="st2" d="M-1677.5,1991.3v16.8c0,1.2,0,2.6,0.1,3.6h-2.3l-0.1-2.4h-0.1c-0.8,1.6-2.5,2.7-4.8,2.7c-3.4,0-6-2.9-6-7.1
			c0-4.6,2.9-7.5,6.2-7.5c2.1,0,3.6,1,4.2,2.1h0.1v-8.3H-1677.5z M-1680.1,2003.5c0-0.3,0-0.7-0.1-1.1c-0.4-1.6-1.8-2.9-3.7-2.9
			c-2.6,0-4.2,2.3-4.2,5.4c0,2.8,1.4,5.2,4.1,5.2c1.7,0,3.3-1.1,3.7-3c0.1-0.3,0.1-0.7,0.1-1.1V2003.5z"/>
		<path class="st2" d="M-1650.8,2003.2c-0.1-2.7-0.3-6-0.3-8.4h-0.1c-0.7,2.3-1.5,4.7-2.4,7.4l-3.4,9.4h-1.9l-3.1-9.2
			c-0.9-2.7-1.7-5.2-2.2-7.5h-0.1c-0.1,2.4-0.2,5.7-0.4,8.6l-0.5,8.3h-2.4l1.4-19.4h3.2l3.3,9.4c0.8,2.4,1.5,4.5,2,6.5h0.1
			c0.5-2,1.2-4.1,2-6.5l3.5-9.4h3.2l1.2,19.4h-2.4L-1650.8,2003.2z"/>
		<path class="st2" d="M-1643,1997.8l3.1,8.2c0.3,0.9,0.7,2,0.9,2.9h0.1c0.3-0.8,0.5-1.9,0.9-2.9l2.8-8.2h2.7l-3.8,9.9
			c-1.8,4.8-3.1,7.2-4.8,8.7c-1.2,1.1-2.5,1.5-3.1,1.6l-0.6-2.1c0.6-0.2,1.5-0.6,2.2-1.2c0.7-0.5,1.6-1.5,2.1-2.8
			c0.1-0.3,0.2-0.5,0.2-0.6c0-0.1-0.1-0.3-0.2-0.7l-5.2-12.8H-1643z"/>
		<path class="st2" d="M-1624.1,1992.6c1.2-0.2,2.8-0.4,4.8-0.4c2.5,0,4.3,0.6,5.4,1.6c1.1,0.9,1.7,2.3,1.7,4.1
			c0,1.8-0.5,3.1-1.5,4.1c-1.3,1.4-3.5,2.1-5.9,2.1c-0.7,0-1.4,0-2-0.2v7.8h-2.5V1992.6z M-1621.6,2001.9c0.5,0.1,1.2,0.2,2.1,0.2
			c3,0,4.9-1.5,4.9-4.1c0-2.6-1.8-3.8-4.6-3.8c-1.1,0-1.9,0.1-2.4,0.2V2001.9z"/>
		<path class="st2" d="M-1609.3,2002.1c0-1.6,0-3.1-0.1-4.3h2.2l0.1,2.7h0.1c0.6-1.9,2.2-3.1,3.9-3.1c0.3,0,0.5,0,0.7,0.1v2.4
			c-0.3-0.1-0.5-0.1-0.9-0.1c-1.8,0-3.1,1.4-3.4,3.3c-0.1,0.3-0.1,0.7-0.1,1.2v7.4h-2.5V2002.1z"/>
		<path class="st2" d="M-1597,1993.9c0,0.9-0.6,1.6-1.6,1.6c-0.9,0-1.5-0.7-1.5-1.6c0-0.9,0.7-1.6,1.6-1.6
			C-1597.6,1992.3-1597,1993-1597,1993.9z M-1599.8,2011.7v-13.9h2.5v13.9H-1599.8z"/>
		<path class="st2" d="M-1592.1,1997.8l2.7,7.8c0.5,1.3,0.8,2.4,1.1,3.6h0.1c0.3-1.2,0.7-2.3,1.2-3.6l2.7-7.8h2.6l-5.5,13.9h-2.4
			l-5.3-13.9H-1592.1z"/>
		<path class="st2" d="M-1571.6,2011.7l-0.2-1.8h-0.1c-0.8,1.1-2.3,2.1-4.3,2.1c-2.8,0-4.3-2-4.3-4c0-3.4,3-5.2,8.4-5.2v-0.3
			c0-1.2-0.3-3.2-3.2-3.2c-1.3,0-2.6,0.4-3.6,1l-0.6-1.7c1.2-0.7,2.8-1.2,4.6-1.2c4.3,0,5.3,2.9,5.3,5.7v5.2c0,1.2,0.1,2.4,0.2,3.3
			H-1571.6z M-1572,2004.6c-2.8-0.1-5.9,0.4-5.9,3.1c0,1.6,1.1,2.4,2.4,2.4c1.8,0,3-1.2,3.4-2.3c0.1-0.3,0.1-0.5,0.1-0.8V2004.6z"/>
		<path class="st2" d="M-1562.5,1993.8v4h3.6v1.9h-3.6v7.5c0,1.7,0.5,2.7,1.9,2.7c0.7,0,1.2-0.1,1.5-0.2l0.1,1.9
			c-0.5,0.2-1.3,0.3-2.2,0.3c-1.2,0-2.1-0.4-2.7-1.1c-0.7-0.7-1-2-1-3.6v-7.6h-2.2v-1.9h2.2v-3.3L-1562.5,1993.8z"/>
		<path class="st2" d="M-1554.8,2005.2c0.1,3.4,2.2,4.8,4.8,4.8c1.8,0,2.9-0.3,3.9-0.7l0.4,1.8c-0.9,0.4-2.4,0.9-4.6,0.9
			c-4.3,0-6.9-2.8-6.9-7c0-4.2,2.5-7.5,6.5-7.5c4.5,0,5.8,4,5.8,6.6c0,0.5-0.1,0.9-0.1,1.2H-1554.8z M-1547.4,2003.4
			c0-1.6-0.7-4.1-3.5-4.1c-2.6,0-3.7,2.4-3.9,4.1H-1547.4z"/>
	</g>
	<g>
		<g>
			<path class="st3" d="M-1514.1,1990.9c0.1-1.1,0.1-2.1,0.2-3.1c0.1-1.5,0.3-2.9,0.7-4.3c1.3-4.7,4.3-8,8.8-9.9
				c5.3-2.3,10.7-2.1,15.9,0.6c4.9,2.6,7.6,6.9,8.1,12.5c0.1,1.4,0.2,2.7,0.2,4.1c0.7,0,1.5,0,2.2,0c2.6,0.1,4.5,2.1,4.5,4.6
				c0,1.6-0.5,2.9-1.7,3.9c-0.9,0.8-1.9,1.5-2.9,2.2c-1.5,1.1-1.5,1.1-0.6,2.7c1.4,2.5,3.5,4.4,6,5.8c0.7,0.4,1.5,0.8,2.2,1.2
				c0.5,0.3,1,0.7,1.4,1.2c0.9,1.1,0.9,2.6,0.1,3.7c-0.5,0.8-1.1,1.5-2,1.9c-1.2,0.5-2.3,1-3.5,1.5c-0.7,0.2-1.1,0.6-1.4,1.2
				c-0.4,1-1,1.7-1.9,2.2c-0.7,0.4-1.5,0.5-2.3,0.6c-1.1,0.1-2.2,0.1-3.4,0.3c-1.7,0.2-3.1,0.9-4.5,1.8c-1.7,1.1-3.4,1.9-5.3,2.3
				c-3.8,0.8-7.4,0.5-10.9-1.4c-0.9-0.5-1.9-1-2.8-1.6c-1.2-0.7-2.4-1-3.8-1.2c-1.3-0.1-2.6-0.2-3.9-0.4c-1.5-0.2-2.6-0.9-3.2-2.3
				c-0.4-0.9-1-1.4-2-1.7c-1.1-0.4-2.1-0.8-3.1-1.3c-0.6-0.3-1.1-0.8-1.6-1.4c-1.3-1.3-1.2-4,0.7-5.2c0.6-0.3,1.1-0.7,1.7-1
				c2.5-1.3,4.6-3,6.2-5.3c0.4-0.6,0.8-1.2,1.1-1.8c0.3-0.7,0.2-0.9-0.4-1.4c-0.7-0.5-1.5-0.9-2.1-1.5c-0.8-0.6-1.6-1.3-2.3-2.1
				c-1.8-2.4-1-6.8,2.8-7.6C-1516.2,1990.8-1515.2,1990.9-1514.1,1990.9z M-1511,1990.7C-1511,1990.7-1511,1990.7-1511,1990.7
				c0.2,1.3,0.2,2.5,0.3,3.7c0,0.8-0.2,0.9-0.9,0.7c-0.6-0.2-1.2-0.5-1.8-0.6c-0.8-0.2-1.5-0.5-2.3-0.6c-0.7-0.1-1.4,0.2-1.8,0.9
				c-0.3,0.7-0.2,1.4,0.3,2c0.4,0.4,0.9,0.8,1.3,1.2c1.1,0.8,2.2,1.5,3.3,2.2c1.3,0.9,1.4,1.3,1,2.8c0,0.2-0.1,0.3-0.2,0.5
				c-0.6,1.9-1.7,3.5-3,5c-1.9,2.2-4.3,3.9-6.9,5.2c-0.3,0.2-0.7,0.4-0.8,0.7c-0.1,0.5,0.4,0.7,0.7,0.9c0.3,0.2,0.6,0.3,0.9,0.4
				c0.8,0.3,1.7,0.6,2.5,0.9c0.5,0.2,1.1,0.3,1.6,0.5c0.7,0.3,1,0.8,1.1,1.5c0,0.2,0,0.4,0.1,0.5c0.2,0.8,0.4,1.1,1.3,1.2
				c0.9,0.1,1.7,0.1,2.6,0.2c2.3,0.1,4.6,0.7,6.6,2c0.7,0.5,1.5,0.9,2.2,1.3c3.1,1.6,6.3,1.7,9.7,0.7c1.4-0.5,2.7-1.2,3.9-2
				c1.6-1,3.2-1.6,5.1-1.8c1.1-0.1,2.2-0.2,3.3-0.3c1.7-0.1,1.8-0.2,2-1.8c0.1-0.7,0.5-1.2,1.1-1.5c0.5-0.2,1.1-0.3,1.6-0.5
				c1.1-0.4,2.2-0.8,3.3-1.3c0.3-0.2,0.7-0.5,0.8-0.9c0.1-0.5-0.5-0.6-0.8-0.8c-0.2-0.1-0.4-0.2-0.6-0.3c-2.2-1.1-4.1-2.5-5.8-4.3
				c-1.7-1.8-3-3.8-3.7-6.1c-0.4-1.4-0.2-1.9,0.9-2.7c0.7-0.5,1.4-1,2.1-1.4c0.6-0.4,1.2-0.7,1.7-1.1c0.4-0.3,0.8-0.7,1.1-1.1
				c0.8-1.2,0.1-2.5-1.3-2.7c-0.3,0-0.7,0-1,0.1c-0.9,0.3-1.8,0.6-2.7,0.9c-0.3,0.1-0.7,0.2-1,0.3c-0.5,0.1-0.7-0.1-0.7-0.6
				c0-0.2,0-0.4,0-0.6c0-2.2,0.1-4.4,0-6.6c-0.2-4.6-2.3-8.2-6.4-10.3c-4.8-2.5-9.7-2.5-14.5,0.1c-3.4,1.8-5.5,4.7-6,8.6
				C-1510.8,1987.4-1510.9,1989-1511,1990.7z"/>
		</g>
	</g>
	<g>
		<path d="M-1705.6,2008c1.4,0.8,3.4,1.5,5.5,1.5c3.1,0,4.9-1.6,4.9-4c0-2.2-1.3-3.5-4.4-4.7c-3.9-1.4-6.2-3.4-6.2-6.7
			c0-3.7,3-6.4,7.6-6.4c2.4,0,4.2,0.6,5.2,1.2l-0.8,2.5c-0.8-0.4-2.3-1.1-4.5-1.1c-3.2,0-4.4,1.9-4.4,3.5c0,2.2,1.4,3.3,4.7,4.6
			c4,1.5,6,3.5,6,6.9c0,3.6-2.7,6.8-8.3,6.8c-2.3,0-4.8-0.7-6-1.5L-1705.6,2008z"/>
		<path d="M-1673.9,2007.1c0,1.8,0,3.3,0.1,4.6h-2.7l-0.2-2.8h-0.1c-0.8,1.4-2.6,3.2-5.6,3.2c-2.7,0-5.8-1.5-5.8-7.4v-9.9h3.1v9.4
			c0,3.2,1,5.4,3.8,5.4c2.1,0,3.5-1.4,4.1-2.8c0.2-0.5,0.3-1,0.3-1.6v-10.4h3.1V2007.1z"/>
		<path d="M-1668.9,2011.7c0.1-1.2,0.1-2.9,0.1-4.4v-20.5h3v10.6h0.1c1.1-1.9,3-3.1,5.8-3.1c4.2,0,7.2,3.5,7.1,8.6
			c0,6.1-3.8,9.1-7.6,9.1c-2.5,0-4.4-0.9-5.7-3.2h-0.1l-0.1,2.8H-1668.9z M-1665.7,2004.9c0,0.4,0.1,0.8,0.1,1.1
			c0.6,2.1,2.4,3.6,4.6,3.6c3.2,0,5.1-2.6,5.1-6.5c0-3.4-1.8-6.3-5-6.3c-2.1,0-4.1,1.4-4.7,3.8c-0.1,0.4-0.2,0.8-0.2,1.3V2004.9z"/>
		<path d="M-1649.3,2008.6c0.9,0.6,2.5,1.2,4.1,1.2c2.2,0,3.3-1.1,3.3-2.5c0-1.5-0.9-2.3-3.2-3.1c-3-1.1-4.5-2.8-4.5-4.8
			c0-2.7,2.2-5,5.8-5c1.7,0,3.2,0.5,4.2,1l-0.8,2.2c-0.7-0.4-1.9-1-3.5-1c-1.8,0-2.8,1.1-2.8,2.3c0,1.4,1,2,3.2,2.9
			c2.9,1.1,4.4,2.6,4.4,5.1c0,3-2.3,5.1-6.3,5.1c-1.9,0-3.6-0.5-4.8-1.2L-1649.3,2008.6z"/>
		<path d="M-1622.9,2011.1c-0.8,0.4-2.6,1-4.9,1c-5.1,0-8.4-3.5-8.4-8.6c0-5.2,3.6-9,9.1-9c1.8,0,3.4,0.5,4.3,0.9l-0.7,2.4
			c-0.7-0.4-1.9-0.8-3.6-0.8c-3.9,0-6,2.9-6,6.4c0,3.9,2.5,6.3,5.9,6.3c1.8,0,2.9-0.5,3.8-0.8L-1622.9,2011.1z"/>
		<path d="M-1619.3,2000.1c0-2,0-3.7-0.1-5.3h2.7l0.1,3.3h0.1c0.8-2.3,2.6-3.7,4.7-3.7c0.4,0,0.6,0,0.9,0.1v2.9
			c-0.3-0.1-0.6-0.1-1-0.1c-2.2,0-3.7,1.6-4.1,4c-0.1,0.4-0.1,0.9-0.1,1.4v9h-3V2000.1z"/>
		<path d="M-1604.3,1990c0,1-0.7,1.9-2,1.9c-1.1,0-1.9-0.8-1.9-1.9c0-1.1,0.8-1.9,1.9-1.9C-1605.1,1988.1-1604.3,1988.9-1604.3,1990
			z M-1607.7,2011.7v-16.9h3.1v16.9H-1607.7z"/>
		<path d="M-1599.7,2011.7c0.1-1.2,0.1-2.9,0.1-4.4v-20.5h3v10.6h0.1c1.1-1.9,3-3.1,5.8-3.1c4.2,0,7.2,3.5,7.1,8.6
			c0,6.1-3.8,9.1-7.6,9.1c-2.5,0-4.4-0.9-5.7-3.2h-0.1l-0.1,2.8H-1599.7z M-1596.5,2004.9c0,0.4,0.1,0.8,0.1,1.1
			c0.6,2.1,2.4,3.6,4.6,3.6c3.2,0,5.1-2.6,5.1-6.5c0-3.4-1.8-6.3-5-6.3c-2.1,0-4.1,1.4-4.7,3.8c-0.1,0.4-0.2,0.8-0.2,1.3V2004.9z"/>
		<path d="M-1577.9,2003.8c0.1,4.2,2.7,5.9,5.8,5.9c2.2,0,3.5-0.4,4.7-0.9l0.5,2.2c-1.1,0.5-2.9,1-5.6,1c-5.2,0-8.3-3.4-8.3-8.5
			c0-5.1,3-9.1,7.9-9.1c5.5,0,7,4.9,7,8c0,0.6-0.1,1.1-0.1,1.4H-1577.9z M-1568.9,2001.6c0-2-0.8-5-4.3-5c-3.1,0-4.5,2.9-4.7,5
			H-1568.9z"/>
	</g>
	<g>
		<g>
			<path class="st4" d="M-1511,1990.6C-1511,1990.6-1511,1990.6-1511,1990.6c0.2,1.3,0.2,2.5,0.3,3.7c0,0.8-0.2,0.9-0.9,0.7
				c-0.6-0.2-1.2-0.5-1.8-0.6c-0.8-0.2-1.5-0.5-2.3-0.6c-0.7-0.1-1.4,0.2-1.8,0.9c-0.3,0.7-0.2,1.4,0.3,2c0.4,0.4,0.9,0.8,1.3,1.2
				c1.1,0.8,2.2,1.5,3.3,2.2c1.3,0.9,1.4,1.3,1,2.8c0,0.2-0.1,0.3-0.2,0.5c-0.6,1.9-1.7,3.5-3,5c-1.9,2.2-4.3,3.9-6.9,5.2
				c-0.3,0.2-0.7,0.4-0.8,0.7c-0.1,0.5,0.4,0.7,0.7,0.9c0.3,0.2,0.6,0.3,0.9,0.4c0.8,0.3,1.7,0.6,2.5,0.9c0.5,0.2,1.1,0.3,1.6,0.5
				c0.7,0.3,1,0.8,1.1,1.5c0,0.2,0,0.4,0.1,0.5c0.2,0.8,0.4,1.1,1.3,1.2c0.9,0.1,1.7,0.1,2.6,0.2c2.3,0.1,4.6,0.7,6.6,2
				c0.7,0.5,1.5,0.9,2.2,1.3c3.1,1.6,6.3,1.7,9.7,0.7c1.4-0.5,2.7-1.2,3.9-2c1.6-1,3.2-1.6,5.1-1.8c1.1-0.1,2.2-0.2,3.3-0.3
				c1.7-0.1,1.8-0.2,2-1.8c0.1-0.7,0.5-1.2,1.1-1.5c0.5-0.2,1.1-0.3,1.6-0.5c1.1-0.4,2.2-0.8,3.3-1.3c0.3-0.2,0.7-0.5,0.8-0.9
				c0.1-0.5-0.5-0.6-0.8-0.8c-0.2-0.1-0.4-0.2-0.6-0.3c-2.2-1.1-4.1-2.5-5.8-4.3c-1.7-1.8-3-3.8-3.7-6.1c-0.4-1.4-0.2-1.9,0.9-2.7
				c0.7-0.5,1.4-1,2.1-1.4c0.6-0.4,1.2-0.7,1.7-1.1c0.4-0.3,0.8-0.7,1.1-1.1c0.8-1.2,0.1-2.5-1.3-2.7c-0.3,0-0.7,0-1,0.1
				c-0.9,0.3-1.8,0.6-2.7,0.9c-0.3,0.1-0.7,0.2-1,0.3c-0.5,0.1-0.7-0.1-0.7-0.6c0-0.2,0-0.4,0-0.6c0-2.2,0.1-4.4,0-6.6
				c-0.2-4.6-2.3-8.2-6.4-10.3c-4.8-2.5-9.7-2.5-14.5,0.1c-3.4,1.8-5.5,4.7-6,8.6C-1510.8,1987.4-1510.9,1989-1511,1990.6z"/>
		</g>
	</g>
	<text transform="matrix(1 0 0 1 -1753.4707 2012.5)" class="st5 st6 st7">Add My Private</text>
	<g class="st5">
		<path class="st2" d="M-1746.4,2005.3l-2.5,7.4h-3.2l8-23.6h3.7l8.1,23.6h-3.3l-2.5-7.4H-1746.4z M-1738.6,2002.9l-2.3-6.8
			c-0.5-1.5-0.9-2.9-1.2-4.3h-0.1c-0.4,1.4-0.7,2.8-1.2,4.3l-2.3,6.8H-1738.6z"/>
		<path class="st2" d="M-1714.7,1987.9v20.5c0,1.5,0,3.2,0.1,4.4h-2.8l-0.1-2.9h-0.1c-0.9,1.9-3,3.3-5.8,3.3c-4.1,0-7.2-3.5-7.2-8.6
			c0-5.6,3.5-9.1,7.6-9.1c2.6,0,4.3,1.2,5.1,2.6h0.1v-10.1H-1714.7z M-1717.8,2002.7c0-0.4,0-0.9-0.1-1.3c-0.5-2-2.1-3.6-4.4-3.6
			c-3.2,0-5.1,2.8-5.1,6.5c0,3.4,1.7,6.3,5,6.3c2.1,0,4-1.4,4.5-3.7c0.1-0.4,0.1-0.8,0.1-1.3V2002.7z"/>
		<path class="st2" d="M-1694.9,1987.9v20.5c0,1.5,0,3.2,0.1,4.4h-2.8l-0.1-2.9h-0.1c-0.9,1.9-3,3.3-5.8,3.3c-4.1,0-7.2-3.5-7.2-8.6
			c0-5.6,3.5-9.1,7.6-9.1c2.6,0,4.3,1.2,5.1,2.6h0.1v-10.1H-1694.9z M-1698,2002.7c0-0.4,0-0.9-0.1-1.3c-0.5-2-2.1-3.6-4.4-3.6
			c-3.2,0-5.1,2.8-5.1,6.5c0,3.4,1.7,6.3,5,6.3c2.1,0,4-1.4,4.5-3.7c0.1-0.4,0.1-0.8,0.1-1.3V2002.7z"/>
		<path class="st2" d="M-1662.4,2002.3c-0.2-3.3-0.4-7.2-0.4-10.2h-0.1c-0.8,2.8-1.8,5.7-3,9l-4.2,11.4h-2.3l-3.8-11.2
			c-1.1-3.3-2.1-6.4-2.7-9.2h-0.1c-0.1,2.9-0.2,6.9-0.5,10.4l-0.6,10.1h-2.9l1.6-23.6h3.9l4,11.4c1,2.9,1.8,5.5,2.4,7.9h0.1
			c0.6-2.4,1.4-5,2.5-7.9l4.2-11.4h3.9l1.5,23.6h-3L-1662.4,2002.3z"/>
		<path class="st2" d="M-1652.9,1995.8l3.7,10c0.4,1.1,0.8,2.5,1.1,3.5h0.1c0.3-1,0.7-2.3,1.1-3.5l3.4-9.9h3.3l-4.6,12.1
			c-2.2,5.8-3.7,8.8-5.8,10.6c-1.5,1.3-3,1.9-3.8,2l-0.8-2.6c0.8-0.2,1.8-0.7,2.7-1.5c0.8-0.7,1.9-1.9,2.6-3.4
			c0.1-0.3,0.2-0.6,0.2-0.7c0-0.2-0.1-0.4-0.2-0.8l-6.3-15.6H-1652.9z"/>
		<path class="st2" d="M-1630,1989.4c1.5-0.2,3.4-0.5,5.8-0.5c3,0,5.2,0.7,6.6,2c1.3,1.1,2.1,2.8,2.1,4.9c0,2.1-0.6,3.8-1.8,5
			c-1.6,1.7-4.2,2.6-7.2,2.6c-0.9,0-1.8,0-2.5-0.2v9.5h-3V1989.4z M-1627,2000.8c0.7,0.2,1.5,0.2,2.5,0.2c3.7,0,5.9-1.8,5.9-5
			c0-3.1-2.2-4.6-5.6-4.6c-1.3,0-2.3,0.1-2.9,0.2V2000.8z"/>
		<path class="st2" d="M-1612.1,2001c0-2,0-3.7-0.1-5.3h2.7l0.1,3.3h0.1c0.8-2.3,2.6-3.7,4.7-3.7c0.4,0,0.6,0,0.9,0.1v2.9
			c-0.3-0.1-0.6-0.1-1-0.1c-2.2,0-3.7,1.6-4.1,4c-0.1,0.4-0.1,0.9-0.1,1.4v9h-3V2001z"/>
		<path class="st2" d="M-1597,1991c0,1-0.7,1.9-2,1.9c-1.1,0-1.9-0.8-1.9-1.9c0-1.1,0.8-1.9,1.9-1.9
			C-1597.8,1989.1-1597,1989.9-1597,1991z M-1600.5,2012.7v-16.9h3.1v16.9H-1600.5z"/>
		<path class="st2" d="M-1591.1,1995.8l3.3,9.5c0.6,1.5,1,2.9,1.4,4.3h0.1c0.4-1.4,0.9-2.8,1.4-4.3l3.3-9.5h3.2l-6.7,16.9h-2.9
			l-6.4-16.9H-1591.1z"/>
		<path class="st2" d="M-1566.2,2012.7l-0.2-2.1h-0.1c-0.9,1.3-2.8,2.5-5.2,2.5c-3.4,0-5.2-2.4-5.2-4.9c0-4.1,3.6-6.3,10.2-6.3v-0.4
			c0-1.4-0.4-3.9-3.9-3.9c-1.6,0-3.2,0.5-4.4,1.3l-0.7-2c1.4-0.9,3.4-1.5,5.6-1.5c5.2,0,6.4,3.5,6.4,6.9v6.3c0,1.5,0.1,2.9,0.3,4.1
			H-1566.2z M-1566.7,2004.1c-3.4-0.1-7.2,0.5-7.2,3.8c0,2,1.3,2.9,2.9,2.9c2.2,0,3.6-1.4,4.1-2.8c0.1-0.3,0.2-0.7,0.2-1V2004.1z"/>
		<path class="st2" d="M-1555.1,1990.9v4.9h4.4v2.3h-4.4v9.1c0,2.1,0.6,3.3,2.3,3.3c0.8,0,1.4-0.1,1.8-0.2l0.1,2.3
			c-0.6,0.2-1.5,0.4-2.7,0.4c-1.4,0-2.6-0.5-3.3-1.3c-0.9-0.9-1.2-2.4-1.2-4.4v-9.2h-2.6v-2.3h2.6v-4.1L-1555.1,1990.9z"/>
		<path class="st2" d="M-1545.8,2004.8c0.1,4.2,2.7,5.9,5.8,5.9c2.2,0,3.5-0.4,4.7-0.9l0.5,2.2c-1.1,0.5-2.9,1.1-5.6,1.1
			c-5.2,0-8.3-3.4-8.3-8.5s3-9.1,7.9-9.1c5.5,0,7,4.9,7,8c0,0.6-0.1,1.1-0.1,1.4H-1545.8z M-1536.7,2002.6c0-2-0.8-5-4.3-5
			c-3.1,0-4.5,2.9-4.7,5H-1536.7z"/>
	</g>
</g>
<g id="Layer_2">
</g>
</svg>
